<?xml version="1.0" encoding="UTF-8" standalone="no"?>
<!-- Uploaded to: SVG Repo, www.svgrepo.com, Generator: SVG Repo Mixer Tools -->

<svg
   width="512"
   height="512"
   viewBox="0 0 30.72 30.72"
   version="1.1"
   id="svg2"
   xmlns="http://www.w3.org/2000/svg"
   xmlns:svg="http://www.w3.org/2000/svg">
  <defs
     id="defs2" />
  <path
     d="M 0,0 H 48 V 48 H 0 Z"
     fill="none"
     id="path1" />
  <g
     id="Shopicon"
     transform="matrix(0.84917561,0,0,0.84574355,-1.6046384,-2.0232911)"
     style="stroke-width:1.18">
    <path
       d="m 10.356757,27.880955 -3.8234809,3.805893 2.2600561,2.248864 4.2381048,-4.218608 c 2.046753,1.168168 4.380307,1.969744 6.946337,1.969744 9.586664,0 15.977774,-11.132992 15.977774,-11.132992 0,0 -2.359118,-4.102507 -6.356757,-7.327099 L 33.422272,9.4208643 31.162216,7.172 26.924111,11.390609 C 24.877358,10.22244 22.543805,9.4208643 19.977774,9.4208643 10.39111,9.4208643 4,20.553856 4,20.553856 c 0,0 2.3591183,4.102508 6.356757,7.327099 z m 3.229907,-7.327099 c 0,-3.513254 2.86162,-6.361709 6.39111,-6.361709 1.184752,0 2.290414,0.326832 3.24189,0.885868 l -8.743038,8.702818 c -0.561618,-0.947099 -0.889962,-2.047675 -0.889962,-3.226977 z m 12.78222,0 c 0,3.513254 -2.86162,6.36171 -6.39111,6.36171 -1.184752,0 -2.290414,-0.326833 -3.24189,-0.885868 l 8.743038,-8.702819 c 0.561618,0.947099 0.889962,2.047675 0.889962,3.226977 z"
       id="path2"
       style="fill:none;fill-opacity:1;stroke:#000000;stroke-width:1.6992;stroke-dasharray:none;stroke-opacity:1" />
  </g>
</svg>
