<?xml version="1.0" encoding="UTF-8" standalone="no"?>
<svg
   viewBox="0 0 512 512"
   version="1.1"
   id="svg1"
   width="512"
   height="512"
   xml:space="preserve"
   xmlns="http://www.w3.org/2000/svg"
   xmlns:svg="http://www.w3.org/2000/svg"><defs
     id="defs1" /><path
     id="path8"
     style="fill:none;fill-rule:evenodd;stroke:#000000;stroke-width:24;stroke-linecap:square;stroke-linejoin:round;stroke-dasharray:none;paint-order:markers stroke fill"
     d="M 67.359117,478.23647 26.628412,282.97354 231.07809,288.21038 v 0 l -42.44785,49.06628 c 37.95365,32.55555 93.54916,34.24912 133.51066,3.98371 39.96149,-30.26539 53.51238,-84.32813 32.56629,-129.92665 -20.9461,-45.59852 -70.74062,-70.43617 -119.669,-59.6913 -48.92839,10.74487 -83.79609,54.17473 -83.79609,104.37309 l -120.908344,0.0149 c 0,-107.12276 74.407404,-199.801565 178.820154,-222.73099 104.41273,-22.929469 210.6737,30.073907 255.37243,127.38062 44.69872,97.3068 15.78124,212.67612 -69.49614,277.26222 -85.27738,64.58609 -203.91775,60.97196 -285.22326,-8.7721 z" /></svg>
