<?xml version="1.0" encoding="UTF-8" standalone="no"?>
<!-- Uploaded to: SVG Repo, www.svgrepo.com, Generator: SVG Repo Mixer Tools -->

<svg
   width="512"
   height="512"
   viewBox="0 0 15.36 15.36"
   fill="none"
   version="1.1"
   id="svg1"
   xmlns="http://www.w3.org/2000/svg"
   xmlns:svg="http://www.w3.org/2000/svg">
  <defs
     id="defs1" />
  <path
     style="fill:none;stroke:#000000;stroke-width:0.719999;stroke-linecap:round;stroke-linejoin:round;stroke-dasharray:none;stroke-opacity:1"
     d="m 12.050717,0.87267754 c -0.404116,-0.1019865 -0.603876,0.031463 -0.848151,0.1133004 L 8.1790162,1.9989381 c -0.135198,0.045297 -0.284761,0.074921 -0.4750716,0.2346939 h -0.00137 C 7.5702523,2.3448764 7.4678166,2.4888607 7.404676,2.6504159 7.3144688,2.8819028 7.3335492,3.0349737 7.3335492,3.1778026 V 5.466742 10.133643 C 6.827833,9.8653435 6.2546513,9.6858355 5.615775,9.6858355 c -0.7967028,0 -1.5305304,0.224949 -2.1002472,0.6339445 -0.5697169,0.408994 -0.9917462,1.045108 -0.9917462,1.783133 0,0.73801 0.4220361,1.374133 0.9917462,1.783134 0.5697101,0.409 1.3035326,0.633943 2.1002472,0.633943 0.7967147,0 1.5305375,-0.224943 2.1002476,-0.633943 0.5697096,-0.409001 0.9917456,-1.045124 0.9917456,-1.783134 V 6.6793266 c 0.07175,-0.025966 0.180592,-0.00925 0.25364,-0.033722 l 3.0235508,-1.01296 c 0.135178,-0.04529 0.284732,-0.074897 0.475071,-0.2346939 h 0.0014 C 12.593388,5.2869894 12.696144,5.1436666 12.759324,4.982517 v -0.00135 c 0.09018,-0.2314466 0.07113,-0.3845578 0.07113,-0.5273867 V 2.1648424 c 0,-0.2587861 0.06283,-0.491356 -0.161041,-0.8443583 h -0.0014 C 12.526556,1.0976354 12.305759,0.93707164 12.050717,0.87267754 Z"
     id="path1" />
</svg>
