<?xml version="1.0" encoding="UTF-8" standalone="no"?>
<svg
   viewBox="0 0 512 512"
   version="1.1"
   id="svg892"
   width="512"
   height="512"
   xml:space="preserve"
   xmlns="http://www.w3.org/2000/svg"
   xmlns:svg="http://www.w3.org/2000/svg"><defs
     id="defs896" /><path
     id="path2"
     style="fill:none;fill-rule:evenodd;stroke:#000000;stroke-width:24.0001;stroke-linecap:square;stroke-linejoin:round;stroke-dasharray:none;paint-order:markers stroke fill"
     d="m 130.05491,456.14874 c 60.98518,-69.67488 71.79404,-116.08597 61.51776,-152.0179 -26.24126,-91.75423 -102.358469,104.5968 -158.987479,116.3887 24.15883,-29.91115 -66.64825,-414.2980313 95.871839,-285.82522 83.70657,66.17038 82.90837,-21.24298 82.28993,-50.672591 -1.54234,-73.48129 89.5757,-62.77399 94.27395,-34.83737 43.67493,6.5979 57.52313,26.91969 41.54447,60.965361 -23.43534,-36.157001 -64.03994,-22.692241 -41.54447,30.8786 14.42841,34.35996 44.36071,19.37694 78.08817,-7.12584 162.87103,-127.9826313 72.30489,256.70591 96.46371,286.61706 -56.62901,-11.7919 -132.74622,-208.14293 -158.98747,-116.3887 -10.27628,35.93193 0.53258,82.34302 61.51776,152.0179 -84.01606,37.30966 -168.03212,37.30966 -252.04817,0 z" /></svg>
