<?xml version="1.0" encoding="UTF-8" standalone="no"?>
<!-- Created with Inkscape (http://www.inkscape.org/) -->

<svg
   width="512"
   height="512"
   viewBox="0 0 135.46666 135.46667"
   version="1.1"
   id="svg1"
   xml:space="preserve"
   xmlns="http://www.w3.org/2000/svg"
   xmlns:svg="http://www.w3.org/2000/svg"><defs
     id="defs1" /><g
     style="fill:none;stroke:#000000;stroke-width:50.7636;stroke-dasharray:none;stroke-opacity:1"
     id="g1"
     transform="matrix(0.11810717,-0.04103547,0.04098795,0.11824411,-2.9823154,34.111689)"><g
       id="g6"
       style="fill:none;stroke:#000000;stroke-width:50.7636;stroke-dasharray:none;stroke-opacity:1">

<g
   transform="matrix(0.1,0,0,-0.1,0,511)"
   id="g5"
   style="fill:none;stroke:#000000;stroke-width:507.636;stroke-dasharray:none;stroke-opacity:1">

<path
   id="path1"
   style="fill:none;stroke:#000000;stroke-width:507.636;stroke-linecap:round;stroke-linejoin:round;stroke-dasharray:none;stroke-opacity:1"
   d="m 3898.848,1496.488 c 2242.6794,210.9015 2915.0826,201.2713 3755.2663,-214.9906 330.9352,-165.5117 589.8375,-342.59728 804.002,-552.85578 L 8578.863,612.62298 c -80.5662,-101.02486 -143.6615,-191.79584 -143.6615,-323.87921 0,-157.23716 112.8733,-305.663291 249.0097,-352.569631 42.5426,-14.65824 87.1347,-21.26801 131.66,-20.36319 97.9559,1.99061 195.6831,40.40327 271.1767,109.96925 l 0.2642,0.28201 0.2884,0.23209 c 166.6516,154.517971 326.4828,411.708461 449.5268,662.220021 l 0.1914,0.4318 0.2285,0.419 c 221.3148,455.03948 307.3129,869.18468 288.8982,1408.17758 -12.0081,359.5255 -45.4739,559.07 -152.3901,879.7873 l -0.095,0.3238 -0.095,0.3237 c -82.325,244.7418 -170.5169,428.0819 -316.0755,653.4573 l -0.1711,0.2255 -0.1584,0.2625 c -99.2373,152.8293 -171.5964,259.9219 -292.3788,342.0017 -30.1956,20.5199 -66.1777,39.0135 -105.5137,51.9804 v 0 c -39.3359,12.967 -82.0427,20.4341 -125.716,18.9233 -86.6671,-2.9982 -160.7659,-38.5055 -214.3818,-76.4073 -97.1148,-68.3261 -164.0032,-239.1151 -140.7171,-355.0457 19.0128,-94.6557 59.5085,-164.6359 111.078,-236.3572 l -69.3398,-55.5747 c -585.9388,-471.0419 -1602.0672,-833.1149 -2736.9052,-979.0261 -272.498,-35.0529 -418.5603,-38.9233 -1510.6451,-38.9023 H 3065.9705 l -289.9597,0.021 -465.2798,-0.01 c -256.405,0.01 -466.6389,-7.7561 -466.6389,-7.7561 -316.7146,-51.8477 -788.805,368.6123 -1198.33103,514.3583 -74.84608,26.6369 -136.11861,65.4929 -229.15811,65.4929 -130.9038,0 -171.32431,-33.8087 -240.56517,-87.1679 l -1.19072,-0.9154 -139.514093,-110.32 0.002,-636.4433 0.002,-636.4433 136.724823,-108.0704 c 77.71496,-62.5395 169.10138,-93.3918 258.93191,-94.2196 79.89695,-0.7362 158.41984,22.5319 225.09997,68.1202 l 348.12452,153.6857 1.6231,0.7239 c 69.4768,31.8944 161.619,73.2676 210.9245,95.7935 l 38.3346,16.4258 384.0967,0.029 656.5877,7.2914 -116.1497,-681.32251 c -58.5435,-343.41036 -226.92,-514.81391 -537.3975,-709.89113 -497.5783,-317.14027 -781.65559,-672.9319 -914.28479,-1153.21726 -149.1919,-540.2635 -72.872,-1112.5004 239.9144,-1786.1843 48.04969,-104.094 93.13069,-189.248 98.45449,-184.6057 4.7928,2.7193 2.0655,43.8611 -7.2593,90.7732 -9.7389,45.0554 -24.2085,190.4845 -32.8131,319.9705 -39.92299,630.8094 72.7486,1162.9866 324.4453,1547.8876 129.016,196.60287 266.9498,330.24585 466.9523,454.76555 148.7002,92.24569 463.6341,223.53821 476.7246,197.75962 4.6431,-5.31963 -22.8265,-46.25704 -57.514,-91.18987 -101.2998,-125.50858 -224.9663,-353.91449 -286.7436,-526.57681 -225.4814,-626.25269 -165.5167,-1206.12639 186.9912,-1824.14459 134.5034,-236.9023 346.4265,-537.5889 368.4666,-523.4621 4.2617,0.7963 -15.0438,62.6395 -44.8541,137.4667 -120.1288,303.5931 -183.0824,646.0387 -180.5097,984.4995 1.944,255.8617 96.9903,665.7068 208.5393,901.5133 164.3671,346.39491 394.1834,630.29518 771.5339,958.29899 665.5132,554.52942 731.5694,1044.92466 638.5669,1840.03671 z" />









</g>

</g></g></svg>
