<?xml version="1.0" encoding="UTF-8" standalone="no"?>
<!-- Uploaded to: SVG Repo, www.svgrepo.com, Generator: SVG Repo Mixer Tools -->

<svg
   width="512"
   height="512"
   viewBox="0 0 23.04 23.04"
   aria-hidden="true"
   role="img"
   class="iconify iconify--twemoji"
   preserveAspectRatio="xMidYMid"
   version="1.1"
   id="svg5"
   xml:space="preserve"
   xmlns="http://www.w3.org/2000/svg"
   xmlns:svg="http://www.w3.org/2000/svg"><defs
     id="defs5"><clipPath
       clipPathUnits="userSpaceOnUse"
       id="clipPath6"><path
         style="display:none;fill:#000000;fill-opacity:1;fill-rule:evenodd;stroke-width:0.999999;stroke-linejoin:round;paint-order:markers stroke fill"
         d="m 16.694141,11.608984 c -0.469147,0.004 -0.891079,0.331116 -1.091797,0.78711 -0.142722,0.324236 -0.07198,0.784172 -0.02148,1.230469 -0.256041,0.06734 -0.538654,0.08305 -0.728515,0.28125 -0.294504,0.307444 -0.330831,0.759082 -0.263672,1.175781 -0.265303,0.731399 -0.365281,1.486641 -0.183594,2.226562 -0.04299,0.319409 -0.05438,0.63001 0.05078,0.875 0.111729,0.260302 0.346661,0.451481 0.658203,0.529297 9.99e-4,0.221715 -0.110297,0.467891 -0.05859,0.677734 l -0.01367,-0.173828 c -0.04324,0.53651 -0.109652,1.220263 0.0332,1.94336 -0.07955,0.120456 -0.179921,0.222255 -0.199219,0.392578 -0.03078,0.271703 0.119708,0.575587 0.306641,0.730469 0.09656,0.08038 0.218115,0.124586 0.34375,0.125 h 0.671875 c 0.111974,-4e-6 0.221179,-0.03481 0.3125,-0.09961 0.0789,-0.05577 0.08982,-0.176086 0.148437,-0.269531 0.01472,0.0336 -0.0049,0.05823 0.01367,0.0918 0.09546,0.171456 0.276416,0.277637 0.472656,0.277344 h 0.591797 c 0.06189,9e-5 0.123332,-0.0105 0.181641,-0.03125 0.119652,-0.0428 0.249461,-0.106528 0.363281,-0.230469 0.11382,-0.123942 0.189453,-0.319835 0.189453,-0.490235 0,-0.211166 -0.118708,-0.314474 -0.207031,-0.445312 0.04952,-0.277384 0.0304,-0.569729 0.0098,-0.863281 0.279242,-0.06185 0.592038,-0.08678 0.794922,-0.244141 0.328902,-0.255109 0.488595,-0.644566 0.533203,-0.994141 0.164392,-1.288255 0.195343,-2.860987 0.08203,-4.080078 -0.03026,-0.325604 -0.270683,-0.522113 -0.4375,-0.611328 -0.166817,-0.08921 -0.319789,-0.126237 -0.460938,-0.154297 -0.148386,-0.0295 -0.18129,-0.02371 -0.28125,-0.03125 -0.07669,-0.110984 -0.08818,-0.263674 -0.189453,-0.341796 -0.147542,-0.113816 -0.354793,-0.176365 -0.541015,-0.253907 0.06392,-0.449422 0.147498,-0.911427 0.01172,-1.240234 -0.190519,-0.461368 -0.62265,-0.793093 -1.091796,-0.789063 z"
         id="path6" /><path
         id="lpe_path-effect6"
         style="display:inline;fill:#000000;fill-opacity:1;fill-rule:evenodd;stroke-width:0.999999;stroke-linejoin:round;paint-order:markers stroke fill"
         class="powerclip"
         d="M -3.3353337,-4.2799978 H 26.375333 V 27.319998 H -3.3353337 Z M 16.694141,11.608984 c -0.469147,0.004 -0.891079,0.331116 -1.091797,0.78711 -0.142722,0.324236 -0.07198,0.784172 -0.02148,1.230469 -0.256041,0.06734 -0.538654,0.08305 -0.728515,0.28125 -0.294504,0.307444 -0.330831,0.759082 -0.263672,1.175781 -0.265303,0.731399 -0.365281,1.486641 -0.183594,2.226562 -0.04299,0.319409 -0.05438,0.63001 0.05078,0.875 0.111729,0.260302 0.346661,0.451481 0.658203,0.529297 9.99e-4,0.221715 -0.110297,0.467891 -0.05859,0.677734 l -0.01367,-0.173828 c -0.04324,0.53651 -0.109652,1.220263 0.0332,1.94336 -0.07955,0.120456 -0.179921,0.222255 -0.199219,0.392578 -0.03078,0.271703 0.119708,0.575587 0.306641,0.730469 0.09656,0.08038 0.218115,0.124586 0.34375,0.125 h 0.671875 c 0.111974,-4e-6 0.221179,-0.03481 0.3125,-0.09961 0.0789,-0.05577 0.08982,-0.176086 0.148437,-0.269531 0.01472,0.0336 -0.0049,0.05823 0.01367,0.0918 0.09546,0.171456 0.276416,0.277637 0.472656,0.277344 h 0.591797 c 0.06189,9e-5 0.123332,-0.0105 0.181641,-0.03125 0.119652,-0.0428 0.249461,-0.106528 0.363281,-0.230469 0.11382,-0.123942 0.189453,-0.319835 0.189453,-0.490235 0,-0.211166 -0.118708,-0.314474 -0.207031,-0.445312 0.04952,-0.277384 0.0304,-0.569729 0.0098,-0.863281 0.279242,-0.06185 0.592038,-0.08678 0.794922,-0.244141 0.328902,-0.255109 0.488595,-0.644566 0.533203,-0.994141 0.164392,-1.288255 0.195343,-2.860987 0.08203,-4.080078 -0.03026,-0.325604 -0.270683,-0.522113 -0.4375,-0.611328 -0.166817,-0.08921 -0.319789,-0.126237 -0.460938,-0.154297 -0.148386,-0.0295 -0.18129,-0.02371 -0.28125,-0.03125 -0.07669,-0.110984 -0.08818,-0.263674 -0.189453,-0.341796 -0.147542,-0.113816 -0.354793,-0.176365 -0.541015,-0.253907 0.06392,-0.449422 0.147498,-0.911427 0.01172,-1.240234 -0.190519,-0.461368 -0.62265,-0.793093 -1.091796,-0.789063 z" /></clipPath></defs><path
     id="path5"
     style="fill:none;fill-rule:evenodd;stroke:#000000;stroke-width:1.08;stroke-linecap:round;stroke-linejoin:round;stroke-miterlimit:16;stroke-dasharray:none;paint-order:markers fill stroke"
     d="m 10.264348,17.210702 c -0.8986827,0.08551 -0.212069,-3.276168 1.255652,-3.276161 1.467758,7e-6 2.154335,3.361647 1.255652,3.276176 C 12.308057,17.166547 11.928706,16.86724 11.52,16.86724 c -0.408736,-8e-6 -0.788058,0.299311 -1.255652,0.343477 z M 4.5500303,11.584661 c 1.503431,4.332788 4.352416,3.528643 5.393513,1.274052 1.2825727,-2.777525 -5.892613,-2.712421 -5.393513,-1.274052 v 0 m -1.547965,2.260905 c -0.57735,0.808033 -0.711809,1.492939 -0.403379,2.05471 0.529876,0.669505 0.837972,1.206189 1.494792,1.454457 0.664187,0.251019 1.164797,-1.411812 2.13542,-0.09239 0.414689,0.563726 0.239006,2.793251 1.281241,3.509167 1.957304,1.344564 6.0621637,1.344738 8.0197207,0 1.042221,-0.715916 0.866523,-2.94542 1.281242,-3.509167 0.970623,-1.319426 1.471248,0.343405 2.135419,0.09239 0.65682,-0.248268 0.964894,-0.784945 1.494792,-1.454457 0.308431,-0.561771 0.173971,-1.246677 -0.403378,-2.05471 5.921893,-16.7807495 -22.9577652,-16.7807539 -17.0358697,0 z M 18.48997,11.584676 c -1.503431,4.332788 -4.352416,3.528643 -5.393513,1.274051 -1.282574,-2.777525 5.892612,-2.712421 5.393513,-1.274051 v 0"
     clip-path="url(#clipPath6)" /><path
     style="fill:#000000;fill-opacity:1;fill-rule:evenodd;stroke:none;stroke-width:0.54;stroke-linecap:butt;stroke-linejoin:round;stroke-dasharray:none;paint-order:markers stroke fill"
     d="m 17.145576,21.86971 h 0.592242 c 0.258857,-0.09259 0.258857,-0.281874 0,-0.567867 0.103,-0.411146 0.107387,-0.858556 0.01316,-1.34223 0.944085,-0.0516 1.249287,-0.392806 1.316092,-0.91633 0.158267,-1.240253 0.187362,-2.796003 0.07897,-3.962159 -0.02936,-0.315904 -0.908105,-0.335558 -0.908105,-0.335558 -0.0085,-0.314258 -0.337556,-0.568076 -0.987069,-0.761457 0.733953,-2.461797 -1.822105,-2.42989 -1.15816,0 -0.818113,0.07606 -1.122,0.365445 -0.98707,1.058297 -0.320274,0.735646 -0.381692,1.471291 -0.184253,2.206937 -0.283105,1.227018 1.026992,1.46888 0.407989,-0.09034 0.153759,-0.107315 0.245885,-0.528913 0.276379,-1.264794 0.01233,0.599649 -0.01956,1.249884 0.131609,1.690694 -0.225214,0.63179 -0.277858,1.191051 -0.15793,1.677786 -0.05405,0.670642 -0.208632,1.333068 0.01316,2.026252 -0.219159,0.241942 -0.241094,0.435533 -0.0658,0.580772 h 0.671208 c 0.317515,-0.224418 -0.158438,-0.539752 -0.09213,-0.800176 0.172594,-0.677828 0.223735,-2.103687 0.223735,-2.103687 h 0.605403 c 0.03815,0.588468 0.119996,1.144638 0.184253,1.716505 0.0422,0.375508 -0.181808,0.811906 0.02632,1.187358 z"
     id="path2" /></svg>
