<?xml version="1.0" encoding="UTF-8" standalone="no"?>
<!-- Uploaded to: SVG Repo, www.svgrepo.com, Generator: SVG Repo Mixer Tools -->

<svg
   width="512"
   height="512"
   viewBox="0 0 23.04 23.04"
   aria-hidden="true"
   role="img"
   class="iconify iconify--twemoji"
   preserveAspectRatio="xMidYMid"
   version="1.1"
   id="svg5"
   xml:space="preserve"
   xmlns="http://www.w3.org/2000/svg"
   xmlns:svg="http://www.w3.org/2000/svg"><defs
     id="defs5"><clipPath
       clipPathUnits="userSpaceOnUse"
       id="clipPath9"><path
         style="display:none;fill-rule:evenodd;stroke-width:0.999999;stroke-linecap:round;stroke-linejoin:round"
         d="m 20.328125,10.769531 c -0.174955,-0.09044 -0.385269,-0.07846 -0.548828,0.03125 -0.320109,0.214611 -0.637745,0.576115 -0.910156,0.964844 -1.003563,0.12027 -1.841002,0.570094 -2.457032,1.228516 C 15.75937,13.691798 15.318288,14.578554 15,15.507813 c -0.636575,1.858517 -0.783422,3.914838 -0.871094,5.050781 -1e-6,6.66e-4 -1e-6,0.0013 0,0.002 -6.79e-4,0.002 -0.0013,0.0039 -0.002,0.0059 0.0026,0.0026 0.0052,0.0052 0.0078,0.0078 -0.01431,0.289141 0.201938,0.538127 0.490234,0.564453 0.0013,-6.62e-4 0.0026,-0.0013 0.0039,-0.002 6.66e-4,6.66e-4 0.0013,0.0013 0.002,0.002 l 5.710938,0.36914 c 0.307298,0.01953 0.568705,-0.221428 0.574219,-0.529296 0.0307,-1.879969 -0.537909,-2.929082 -0.978516,-3.611329 -0.220304,-0.341123 -0.384101,-0.586565 -0.455078,-0.796875 -0.006,-0.01782 0.0072,-0.04874 0.002,-0.06641 0.277812,0.09275 0.55317,0.206569 0.947266,0.103516 l -0.330079,-0.01758 1.144532,0.439453 -0.22461,-0.16211 c 0.291663,0.357369 0.717249,0.540124 1.066407,0.533204 0.349158,-0.0069 0.59652,-0.122268 0.771484,-0.173829 0.103006,-0.02984 0.194796,-0.08967 0.263672,-0.171875 C 23.60826,16.47306 23.551161,15.802109 23.5,15.412107 23.48228,15.279786 23.41618,15.158717 23.314453,15.072264 l -2.027344,-1.722657 0.173828,0.275391 c -0.147409,-0.567279 -0.559566,-0.880455 -0.982421,-1.121094 0.042,-0.148321 0.153803,-0.296021 0.162109,-0.43164 0.01976,-0.322676 -0.01603,-0.606468 -0.02148,-0.835938 -0.0046,-0.197046 -0.116097,-0.375961 -0.291016,-0.466797 z"
         id="path9" /><path
         id="lpe_path-effect9"
         style="fill-rule:evenodd;stroke-width:0.999999;stroke-linecap:round;stroke-linejoin:round"
         class="powerclip"
         d="M -3.3353337,-4.2799978 H 26.375333 V 27.319998 H -3.3353337 Z M 20.328125,10.769531 c -0.174955,-0.09044 -0.385269,-0.07846 -0.548828,0.03125 -0.320109,0.214611 -0.637745,0.576115 -0.910156,0.964844 -1.003563,0.12027 -1.841002,0.570094 -2.457032,1.228516 C 15.75937,13.691798 15.318288,14.578554 15,15.507813 c -0.636575,1.858517 -0.783422,3.914838 -0.871094,5.050781 -1e-6,6.66e-4 -1e-6,0.0013 0,0.002 -6.79e-4,0.002 -0.0013,0.0039 -0.002,0.0059 0.0026,0.0026 0.0052,0.0052 0.0078,0.0078 -0.01431,0.289141 0.201938,0.538127 0.490234,0.564453 0.0013,-6.62e-4 0.0026,-0.0013 0.0039,-0.002 6.66e-4,6.66e-4 0.0013,0.0013 0.002,0.002 l 5.710938,0.36914 c 0.307298,0.01953 0.568705,-0.221428 0.574219,-0.529296 0.0307,-1.879969 -0.537909,-2.929082 -0.978516,-3.611329 -0.220304,-0.341123 -0.384101,-0.586565 -0.455078,-0.796875 -0.006,-0.01782 0.0072,-0.04874 0.002,-0.06641 0.277812,0.09275 0.55317,0.206569 0.947266,0.103516 l -0.330079,-0.01758 1.144532,0.439453 -0.22461,-0.16211 c 0.291663,0.357369 0.717249,0.540124 1.066407,0.533204 0.349158,-0.0069 0.59652,-0.122268 0.771484,-0.173829 0.103006,-0.02984 0.194796,-0.08967 0.263672,-0.171875 C 23.60826,16.47306 23.551161,15.802109 23.5,15.412107 23.48228,15.279786 23.41618,15.158717 23.314453,15.072264 l -2.027344,-1.722657 0.173828,0.275391 c -0.147409,-0.567279 -0.559566,-0.880455 -0.982421,-1.121094 0.042,-0.148321 0.153803,-0.296021 0.162109,-0.43164 0.01976,-0.322676 -0.01603,-0.606468 -0.02148,-0.835938 -0.0046,-0.197046 -0.116097,-0.375961 -0.291016,-0.466797 z" /></clipPath></defs><path
     id="path5"
     style="fill:none;fill-rule:evenodd;stroke:#000000;stroke-width:1.08;stroke-linecap:round;stroke-linejoin:round;stroke-miterlimit:16;stroke-dasharray:none;paint-order:markers fill stroke"
     d="m 10.264348,17.210702 c -0.8986827,0.08551 -0.212069,-3.276168 1.255652,-3.276161 1.467758,7e-6 2.154335,3.361647 1.255652,3.276176 C 12.308057,17.166547 11.928706,16.86724 11.52,16.86724 c -0.408736,-8e-6 -0.788058,0.299311 -1.255652,0.343477 z M 4.5500303,11.584661 c 1.503431,4.332788 4.352416,3.528643 5.393513,1.274052 1.2825727,-2.777525 -5.892613,-2.712421 -5.393513,-1.274052 v 0 m -1.547965,2.260905 c -0.57735,0.808033 -0.711809,1.492939 -0.403379,2.05471 0.529876,0.669505 0.837972,1.206189 1.494792,1.454457 0.664187,0.251019 1.164797,-1.411812 2.13542,-0.09239 0.414689,0.563726 0.239006,2.793251 1.281241,3.509167 1.957304,1.344564 6.0621637,1.344738 8.0197207,0 1.042221,-0.715916 0.866523,-2.94542 1.281242,-3.509167 0.970623,-1.319426 1.471248,0.343405 2.135419,0.09239 0.65682,-0.248268 0.964894,-0.784945 1.494792,-1.454457 0.308431,-0.561771 0.173971,-1.246677 -0.403378,-2.05471 5.921893,-16.7807495 -22.9577652,-16.7807539 -17.0358697,0 z M 18.48997,11.584676 c -1.503431,4.332788 -4.352416,3.528643 -5.393513,1.274051 -1.282574,-2.777525 5.892612,-2.712421 5.393513,-1.274051 v 0"
     clip-path="url(#clipPath9)" /><path
     style="fill:#000000;fill-opacity:1;fill-rule:evenodd;stroke:none;stroke-width:0.54;stroke-linecap:round;stroke-linejoin:round;stroke-dasharray:none"
     d="m 20.37644,20.969372 c 0.05804,-3.553801 -1.978786,-3.486147 -1.374206,-5.34937 0.346429,0.223422 0.374109,0.705181 1.29256,0.465012 l 1.14503,0.441007 c 0.427909,0.524309 0.847303,0.307386 1.26776,0.183482 0.365929,-0.43864 0.309582,-0.832336 0.25787,-1.226525 l -2.027823,-1.722617 c -0.134332,-0.516953 -0.586131,-0.785073 -1.094176,-1.009109 0.359374,-0.423961 0.248844,-0.976337 0.236348,-1.501926 -0.431007,0.28896 -0.865945,0.57598 -1.004002,1.008932 -3.805203,0.286091 -4.233662,6.067648 -4.40922,8.34232"
     id="path622" /></svg>
