<?xml version="1.0" encoding="UTF-8" standalone="no"?>
<!-- Created with Inkscape (http://www.inkscape.org/) -->

<svg
   width="512"
   height="512"
   viewBox="0 0 135.46666 135.46667"
   version="1.1"
   id="svg1"
   xmlns="http://www.w3.org/2000/svg"
   xmlns:svg="http://www.w3.org/2000/svg">
  <defs
     id="defs1">
    <clipPath
       clipPathUnits="userSpaceOnUse"
       id="clipPath19">
      <path
         style="display:none;fill-rule:evenodd;stroke-width:0.999998;stroke-linecap:round;stroke-linejoin:round;paint-order:markers stroke fill"
         d="m 67.732422,-1.0585937 c -2.054907,3.784e-4 -4.03956,0.7480074 -5.583986,2.1035156 L 18.767578,39.107422 C 12.899347,44.260505 16.541927,53.934555 24.351562,53.9375 H 36.46289 l -8.371094,73.1582 c -0.789924,6.90899 6.624156,11.77194 12.646486,8.29492 l 26.99414,-15.59374 26.996094,15.59374 c 6.022324,3.47702 13.436414,-1.38593 12.646484,-8.29492 L 99.003907,53.9375 h 12.111323 c 7.80964,-0.0029 11.45222,-9.676992 5.58399,-14.830078 L 73.316406,1.0449219 C 71.771983,-0.31058609 69.78733,-1.0582148 67.732422,-1.0585937 Z"
         id="path19" />
      <path
         id="lpe_path-effect19"
         style="fill-rule:evenodd;stroke-width:0.999998;stroke-linecap:round;stroke-linejoin:round;paint-order:markers stroke fill"
         class="powerclip"
         d="M 14.131015,-35.728498 H 121.33566 V 105.36563 H 14.131015 Z m 53.601407,34.6699043 c -2.054907,3.784e-4 -4.03956,0.7480074 -5.583986,2.1035156 L 18.767578,39.107422 C 12.899347,44.260505 16.541927,53.934555 24.351562,53.9375 H 36.46289 l -8.371094,73.1582 c -0.789924,6.90899 6.624156,11.77194 12.646486,8.29492 l 26.99414,-15.59374 26.996094,15.59374 c 6.022324,3.47702 13.436414,-1.38593 12.646484,-8.29492 L 99.003907,53.9375 h 12.111323 c 7.80964,-0.0029 11.45222,-9.676992 5.58399,-14.830078 L 73.316406,1.0449219 C 71.771983,-0.31058609 69.78733,-1.0582148 67.732422,-1.0585937 Z" />
    </clipPath>
    <clipPath
       clipPathUnits="userSpaceOnUse"
       id="clipPath22">
      <path
         id="path22"
         style="display:none;fill-rule:evenodd;stroke-width:0.999998;stroke-linecap:round;stroke-linejoin:round;paint-order:markers stroke fill"
         d="m 67.732298,-33.972603 c -2.054654,-1.61e-4 -4.038928,0.746879 -5.583637,2.101681 L 18.76733,6.1934203 C 12.8991,11.346505 16.54185,21.020579 24.351485,21.023523 H 36.46289 L 36.137328,23.86676 18.76733,39.107173 c -5.868231,5.153083 -2.22548,14.827157 5.584155,14.830102 h 8.345228 l -4.604887,40.244572 c -0.347393,3.045121 0.90112,5.689219 2.9192,7.400063 l -2.9192,25.51369 c -0.789925,6.90899 6.623925,11.77212 12.646255,8.2951 l 26.994217,-15.59388 26.996286,15.59388 c 6.022326,3.47702 13.436186,-1.38611 12.646256,-8.2951 l -2.9192,-25.51369 c 2.01809,-1.710844 3.26659,-4.354934 2.9192,-7.400063 l -4.60489,-40.244572 h 8.34523 c 7.80964,-0.0029 11.45239,-9.677016 5.58416,-14.830102 L 99.329337,23.867277 99.003775,21.023523 h 12.111405 c 7.80964,-0.0029 11.45239,-9.677016 5.58416,-14.8301027 L 73.316454,-31.870922 c -1.544707,-1.354802 -3.5295,-2.101842 -5.584156,-2.101681 z" />
      <path
         id="lpe_path-effect22"
         style="fill-rule:evenodd;stroke-width:0.999998;stroke-linecap:round;stroke-linejoin:round;paint-order:markers stroke fill"
         class="powerclip"
         d="M 14.131015,-78.015375 H 121.33566 V 63.07875 H 14.131015 Z m 53.601283,44.042772 c -2.054654,-1.61e-4 -4.038928,0.746879 -5.583637,2.101681 L 18.76733,6.1934203 C 12.8991,11.346505 16.54185,21.020579 24.351485,21.023523 H 36.46289 L 36.137328,23.86676 18.76733,39.107173 c -5.868231,5.153083 -2.22548,14.827157 5.584155,14.830102 h 8.345228 l -4.604887,40.244572 c -0.347393,3.045121 0.90112,5.689219 2.9192,7.400063 l -2.9192,25.51369 c -0.789925,6.90899 6.623925,11.77212 12.646255,8.2951 l 26.994217,-15.59388 26.996286,15.59388 c 6.022326,3.47702 13.436186,-1.38611 12.646256,-8.2951 l -2.9192,-25.51369 c 2.01809,-1.710844 3.26659,-4.354934 2.9192,-7.400063 l -4.60489,-40.244572 h 8.34523 c 7.80964,-0.0029 11.45239,-9.677016 5.58416,-14.830102 L 99.329337,23.867277 99.003775,21.023523 h 12.111405 c 7.80964,-0.0029 11.45239,-9.677016 5.58416,-14.8301027 L 73.316454,-31.870922 c -1.544707,-1.354802 -3.5295,-2.101842 -5.584156,-2.101681 z" />
    </clipPath>
  </defs>
  <g
     id="g23"
     transform="matrix(0.60044877,0,0,0.61562174,27.062935,49.183121)"
     style="stroke-width:1.64477">
    <path
       id="path3"
       style="font-variation-settings:normal;display:inline;vector-effect:none;fill:none;fill-opacity:1;fill-rule:evenodd;stroke:#000000;stroke-width:10.4443;stroke-linecap:round;stroke-linejoin:round;stroke-miterlimit:4;stroke-dasharray:none;stroke-dashoffset:0;stroke-opacity:1;-inkscape-stroke:none;paint-order:markers stroke fill;stop-color:#000000"
       d="m 98.963556,52.857049 -9.45063,-82.587338 H 111.11437 L 67.733336,-67.793398 24.352301,-29.730289 h 21.601432 l -9.450635,82.587338 31.230238,-18.03843 z"
       clip-path="url(#clipPath22)" />
    <path
       id="path2"
       style="font-variation-settings:normal;vector-effect:none;fill:none;fill-opacity:1;fill-rule:evenodd;stroke:#000000;stroke-width:10.4443;stroke-linecap:round;stroke-linejoin:round;stroke-miterlimit:4;stroke-dasharray:none;stroke-dashoffset:0;stroke-opacity:1;-inkscape-stroke:none;paint-order:markers stroke fill;stop-color:#000000"
       d="M 98.963556,95.143926 89.512926,12.556588 H 111.11437 L 67.733336,-25.506521 24.352301,12.556588 h 21.601432 l -9.450635,82.587338 31.230238,-18.03843 z"
       clip-path="url(#clipPath19)" />
    <path
       id="path28"
       style="font-variation-settings:normal;vector-effect:none;fill:none;fill-opacity:1;fill-rule:evenodd;stroke:#000000;stroke-width:10.4443;stroke-linecap:round;stroke-linejoin:round;stroke-miterlimit:4;stroke-dasharray:none;stroke-dashoffset:0;stroke-opacity:1;-inkscape-stroke:none;paint-order:markers stroke fill;stop-color:#000000"
       d="M 98.963556,128.05864 89.512926,45.471302 H 111.11437 L 67.733336,7.4081927 24.352301,45.471302 h 21.601432 l -9.450635,82.587338 31.230238,-18.03843 z" />
  </g>
</svg>
