<?xml version="1.0" encoding="UTF-8" standalone="no"?>
<!-- Created with Inkscape (http://www.inkscape.org/) -->

<svg
   version="1.1"
   id="svg89213"
   width="512"
   height="512"
   viewBox="0 0 512 512"
   xml:space="preserve"
   xmlns="http://www.w3.org/2000/svg"
   xmlns:svg="http://www.w3.org/2000/svg"><defs
     id="defs89217"><clipPath
       clipPathUnits="userSpaceOnUse"
       id="clipPath28"><path
         id="path28"
         style="font-variation-settings:normal;display:none;fill:none;fill-opacity:1;fill-rule:evenodd;stroke:#000000;stroke-width:24;stroke-linecap:round;stroke-linejoin:round;stroke-miterlimit:4;stroke-dasharray:none;stroke-dashoffset:0;stroke-opacity:1;paint-order:markers stroke fill"
         d="m 656.76538,570.26282 51.40872,133.21884 -58.32206,-32.70705 -21.71107,40.45344 -28.52255,-37.87131 -5.87855,6.78161 v 79.4211 h -49.4229 v -79.4211 l -5.87855,-6.78161 -28.52254,37.87131 -21.71108,-40.45344 -58.32206,32.70705 51.40872,-133.21884 -20.01543,10.64941 57.36017,-125.75169 -22.47045,12.34548 72.86267,-163.94829 72.86267,163.94829 -22.47044,-12.34548 57.36016,125.75169" /><path
         id="lpe_path-effect28"
         style="font-variation-settings:normal;fill:none;fill-opacity:1;fill-rule:evenodd;stroke:#000000;stroke-width:24;stroke-linecap:round;stroke-linejoin:round;stroke-miterlimit:4;stroke-dasharray:none;stroke-dashoffset:0;stroke-opacity:1;paint-order:markers stroke fill"
         class="powerclip"
         d="M 223.90501,286.27043 H 536.77227 V 776.84855 H 223.90501 Z m 452.8758,294.6418 -57.36016,-125.75169 22.47044,12.34548 -72.86267,-163.94829 -72.86267,163.94829 22.47045,-12.34548 -57.36017,125.75169 20.01543,-10.64941 -51.40872,133.21884 58.32206,-32.70705 21.71108,40.45344 28.52254,-37.87131 5.87855,6.78161 v 79.4211 h 49.4229 v -79.4211 l 5.87855,-6.78161 28.52255,37.87131 21.71107,-40.45344 58.32206,32.70705 -51.40872,-133.21884" /></clipPath><clipPath
       clipPathUnits="userSpaceOnUse"
       id="clipPath38"><path
         style="display:none;fill-rule:evenodd;stroke-width:1;stroke-linecap:round;stroke-linejoin:round;paint-order:markers stroke fill"
         d="m 376.00001,484.79208 c 4.19564,3e-4 8.20588,-1.72888 11.08573,-4.78008 L 559.81373,296.9251 c 9.1671,-9.72224 2.27681,-25.69525 -11.08574,-25.69885 H 203.27203 c -13.36254,0.004 -20.25284,15.97661 -11.08573,25.69885 L 364.91428,480.012 c 2.87986,3.0512 6.89009,4.78038 11.08573,4.78008 z"
         id="path38" /><path
         id="lpe_path-effect38"
         style="display:block;fill-rule:evenodd;stroke-width:1;stroke-linecap:round;stroke-linejoin:round;paint-order:markers stroke fill"
         class="powerclip"
         d="M 10.999822,16.366883 H 501.00018 V 495.63312 H 10.999822 Z M 376.00001,484.79208 c 4.19564,3e-4 8.20588,-1.72888 11.08573,-4.78008 L 559.81373,296.9251 c 9.1671,-9.72224 2.27681,-25.69525 -11.08574,-25.69885 H 203.27203 c -13.36254,0.004 -20.25284,15.97661 -11.08573,25.69885 L 364.91428,480.012 c 2.87986,3.0512 6.89009,4.78038 11.08573,4.78008 z" /></clipPath></defs><g
     id="g30"
     clip-path="url(#clipPath38)"><g
       id="g14"
       transform="matrix(0.97648962,0,0,0.97646193,-189.40079,-263.0476)"
       style="stroke-width:1.02409"><path
         id="path8"
         style="font-variation-settings:normal;opacity:1;fill:none;fill-opacity:1;fill-rule:evenodd;stroke:#000000;stroke-width:24.5782;stroke-linecap:round;stroke-linejoin:round;stroke-miterlimit:4;stroke-dasharray:none;stroke-dashoffset:0;stroke-opacity:1;paint-order:markers stroke fill"
         d="m 522.54756,442.81507 -44.94089,24.69095 72.86267,-163.94829 72.86267,163.94829 -44.94089,-24.69095 -27.92178,32.59203 z" /><path
         style="font-variation-settings:normal;opacity:1;fill:none;fill-opacity:1;fill-rule:evenodd;stroke:#000000;stroke-width:24.5782;stroke-linecap:round;stroke-linejoin:round;stroke-miterlimit:4;stroke-dasharray:none;stroke-dashoffset:0;stroke-opacity:1;paint-order:markers stroke fill"
         d="m 600.86157,455.16054 57.36016,125.75169 -55.18748,-29.36311 -20.33213,39.64025 -32.23278,-35.23573 -32.23278,35.23573 -20.33213,-39.64025 -55.18748,29.36311 57.36017,-125.75169"
         id="path9" /><path
         id="path12"
         style="font-variation-settings:normal;opacity:1;fill:none;fill-opacity:1;fill-rule:evenodd;stroke:#000000;stroke-width:24.5782;stroke-linecap:round;stroke-linejoin:round;stroke-miterlimit:4;stroke-dasharray:none;stroke-dashoffset:0;stroke-opacity:1;paint-order:markers stroke fill"
         d="m 462.73238,570.26282 -51.40872,133.21884 58.32206,-32.70705 21.71108,40.45344 28.52254,-37.87131 30.59,35.28918 30.59,-35.28918 28.52255,37.87131 21.71107,-40.45344 58.32206,32.70705 -51.40872,-133.21884" /><path
         style="font-variation-settings:normal;opacity:1;fill:none;fill-opacity:1;fill-rule:evenodd;stroke:#000000;stroke-width:24.5782;stroke-linecap:round;stroke-linejoin:round;stroke-miterlimit:4;stroke-dasharray:none;stroke-dashoffset:0;stroke-opacity:1;paint-order:markers stroke fill"
         d="m 575.18079,680.13835 v 79.4211"
         id="path13" /><path
         style="font-variation-settings:normal;opacity:1;fill:none;fill-opacity:1;fill-rule:evenodd;stroke:#000000;stroke-width:24.5782;stroke-linecap:round;stroke-linejoin:round;stroke-miterlimit:4;stroke-dasharray:none;stroke-dashoffset:0;stroke-opacity:1;paint-order:markers stroke fill"
         d="m 525.75789,680.13835 v 79.4211"
         id="path14" /></g><g
       id="g19"
       transform="matrix(0.97648962,0,0,0.97646193,-207.52354,-263.0476)"
       clip-path="url(#clipPath28)"
       style="stroke-width:1.02409"><path
         id="path15"
         style="font-variation-settings:normal;opacity:1;fill:none;fill-opacity:1;fill-rule:evenodd;stroke:#000000;stroke-width:24.5782;stroke-linecap:round;stroke-linejoin:round;stroke-miterlimit:4;stroke-dasharray:none;stroke-dashoffset:0;stroke-opacity:1;paint-order:markers stroke fill"
         d="m 352.41686,442.81507 -44.94089,24.69095 72.86267,-163.94829 72.86267,163.94829 -44.94089,-24.69095 -27.92178,32.59203 z" /><path
         style="font-variation-settings:normal;opacity:1;fill:none;fill-opacity:1;fill-rule:evenodd;stroke:#000000;stroke-width:24.5782;stroke-linecap:round;stroke-linejoin:round;stroke-miterlimit:4;stroke-dasharray:none;stroke-dashoffset:0;stroke-opacity:1;paint-order:markers stroke fill"
         d="m 430.73087,455.16054 57.36016,125.75169 -55.18748,-29.36311 -20.33213,39.64025 -32.23278,-35.23573 -32.23278,35.23573 -20.33213,-39.64025 -55.18748,29.36311 57.36017,-125.75169"
         id="path16" /><path
         id="path17"
         style="font-variation-settings:normal;opacity:1;fill:none;fill-opacity:1;fill-rule:evenodd;stroke:#000000;stroke-width:24.5782;stroke-linecap:round;stroke-linejoin:round;stroke-miterlimit:4;stroke-dasharray:none;stroke-dashoffset:0;stroke-opacity:1;paint-order:markers stroke fill"
         d="m 292.60168,570.26282 -51.40872,133.21884 58.32206,-32.70705 21.71108,40.45344 28.52254,-37.87131 30.59,35.28918 30.59,-35.28918 28.52255,37.87131 21.71107,-40.45344 58.32206,32.70705 -51.40872,-133.21884" /><path
         style="font-variation-settings:normal;opacity:1;fill:none;fill-opacity:1;fill-rule:evenodd;stroke:#000000;stroke-width:24.5782;stroke-linecap:round;stroke-linejoin:round;stroke-miterlimit:4;stroke-dasharray:none;stroke-dashoffset:0;stroke-opacity:1;paint-order:markers stroke fill"
         d="m 405.05009,680.13835 v 79.4211"
         id="path18" /><path
         style="font-variation-settings:normal;opacity:1;fill:none;fill-opacity:1;fill-rule:evenodd;stroke:#000000;stroke-width:24.5782;stroke-linecap:round;stroke-linejoin:round;stroke-miterlimit:4;stroke-dasharray:none;stroke-dashoffset:0;stroke-opacity:1;paint-order:markers stroke fill"
         d="m 355.62719,680.13835 v 79.4211"
         id="path19" /></g></g><path
     style="fill:none;fill-rule:evenodd;stroke:#000000;stroke-width:29.4916;stroke-linecap:round;stroke-linejoin:round;paint-order:markers stroke fill"
     id="path36"
     d="m 356.49534,263.04795 -207.64003,0 103.82001,-179.82154 z"
     transform="matrix(-1.0402703,0,0,-0.63662075,638.85039,483.28592)" /></svg>
