<?xml version="1.0" encoding="UTF-8" standalone="no"?>
<!-- Created with Inkscape (http://www.inkscape.org/) -->

<svg
   version="1.1"
   id="svg89213"
   width="512"
   height="512"
   viewBox="0 0 512 512"
   xml:space="preserve"
   xmlns="http://www.w3.org/2000/svg"
   xmlns:svg="http://www.w3.org/2000/svg"><defs
     id="defs89217"><clipPath
       clipPathUnits="userSpaceOnUse"
       id="clipPath36"><path
         style="display:none;fill-rule:evenodd;stroke-width:1;stroke-linecap:round;stroke-linejoin:round;paint-order:markers stroke fill"
         d="m 376.00001,146.85619 c 4.19564,-3e-4 8.20588,1.72888 11.08573,4.78008 l 172.72799,183.0869 c 9.1671,9.72224 2.27681,25.69525 -11.08574,25.69885 H 203.27203 c -13.36254,-0.004 -20.25284,-15.97661 -11.08573,-25.69885 l 172.72798,-183.0869 c 2.87986,-3.0512 6.89009,-4.78038 11.08573,-4.78008 z"
         id="path37" /><path
         id="lpe_path-effect37"
         style="display:block;fill-rule:evenodd;stroke-width:1;stroke-linecap:round;stroke-linejoin:round;paint-order:markers stroke fill"
         class="powerclip"
         d="M 10.999822,16.366883 H 501.00018 V 495.63312 H 10.999822 Z M 376.00001,146.85619 c -4.19564,-3e-4 -8.20587,1.72888 -11.08573,4.78008 L 192.1863,334.72317 c -9.16711,9.72224 -2.27681,25.69485 11.08573,25.69885 h 345.45596 c 13.36255,-0.004 20.25284,-15.97661 11.08574,-25.69885 L 387.08574,151.63627 c -2.87985,-3.0512 -6.89009,-4.78038 -11.08573,-4.78008 z" /></clipPath><clipPath
       clipPathUnits="userSpaceOnUse"
       id="clipPath2"><path
         d="m 219.8856,198.35388 c -1.41049,-4.78029 -5.9128,-8.25656 -12.86476,-10.03162 6.31996,-15.1287 5.83579,-27.5759 -1.51493,-32.36792 -1.52954,-0.99726 -3.76897,-1.91977 -6.82406,-1.93281 3.40118,-11.84189 1.96636,-20.94405 -4.1456,-24.92828 -4.45009,-2.9005 -10.5824,-2.48639 -17.44984,1.02245 0.89976,-10.59434 -1.85793,-18.24169 -7.86942,-21.10265 -5.88845,-2.80274 -13.57597,-0.3146 -21.36085,6.66965 -1.69906,-8.64591 -5.67868,-14.21792 -11.40339,-15.67187 -5.8411,-1.484797 -12.31729,1.73031 -18.21991,8.89576 -5.9013,-7.16501 -12.37661,-10.380125 -18.21992,-8.89576 -5.725141,1.45438 -9.704772,7.02596 -11.403376,15.67187 -7.784887,-6.98382 -15.471967,-9.47152 -21.360865,-6.66922 -6.01149,2.86053 -8.769614,10.50788 -7.86986,21.10222 -6.867431,-3.50927 -12.999746,-3.92381 -17.448949,-1.02245 -6.112841,3.98423 -7.546783,13.08769 -4.146039,24.92828 -3.05465,0.013 -5.29452,0.93555 -6.823616,1.93281 -7.351166,4.79202 -7.835785,17.23922 -1.515376,32.36835 -6.951963,1.77507 -11.454275,5.2509 -12.865203,10.03119 -2.142062,7.25845 3.309131,15.55063 14.955484,22.75085 10.210196,6.31245 22.215919,9.64923 34.719095,9.64923 H 170.21058 c 12.50362,0 24.50934,-3.33678 34.71953,-9.64923 11.64679,-7.20066 17.09755,-15.49284 14.95549,-22.75085 z"
         id="path3"
         style="display:none;fill:none;fill-opacity:1;stroke:#000000;stroke-width:13.8431;stroke-linejoin:round;stroke-dasharray:none;stroke-opacity:1" /><path
         id="lpe_path-effect3"
         style="fill:none;fill-opacity:1;stroke:#000000;stroke-width:13.8431;stroke-linejoin:round;stroke-dasharray:none;stroke-opacity:1"
         class="powerclip"
         d="M 59.143102,15.259921 H 287.14944 V 170.20365 H 59.143102 Z M 219.8856,198.35388 c -1.41049,-4.78029 -5.9128,-8.25656 -12.86476,-10.03162 6.31996,-15.1287 5.83579,-27.5759 -1.51493,-32.36792 -1.52954,-0.99726 -3.76897,-1.91977 -6.82406,-1.93281 3.40118,-11.84189 1.96636,-20.94405 -4.1456,-24.92828 -4.45009,-2.9005 -10.5824,-2.48639 -17.44984,1.02245 0.89976,-10.59434 -1.85793,-18.24169 -7.86942,-21.10265 -5.88845,-2.80274 -13.57597,-0.3146 -21.36085,6.66965 -1.69906,-8.64591 -5.67868,-14.21792 -11.40339,-15.67187 -5.8411,-1.484797 -12.31729,1.73031 -18.21991,8.89576 -5.9013,-7.16501 -12.37661,-10.380125 -18.21992,-8.89576 -5.725141,1.45438 -9.704772,7.02596 -11.403376,15.67187 -7.784887,-6.98382 -15.471967,-9.47152 -21.360865,-6.66922 -6.01149,2.86053 -8.769614,10.50788 -7.86986,21.10222 -6.867431,-3.50927 -12.999746,-3.92381 -17.448949,-1.02245 -6.112841,3.98423 -7.546783,13.08769 -4.146039,24.92828 -3.05465,0.013 -5.29452,0.93555 -6.823616,1.93281 -7.351166,4.79202 -7.835785,17.23922 -1.515376,32.36835 -6.951963,1.77507 -11.454275,5.2509 -12.865203,10.03119 -2.142062,7.25845 3.309131,15.55063 14.955484,22.75085 10.210196,6.31245 22.215919,9.64923 34.719095,9.64923 H 170.21058 c 12.50362,0 24.50934,-3.33678 34.71953,-9.64923 11.64679,-7.20066 17.09755,-15.49284 14.95549,-22.75085 z" /></clipPath></defs><g
     id="g30"
     clip-path="url(#clipPath36)"><g
       style="fill:#000000"
       id="g2"
       transform="matrix(1.7337182,0,0,1.7337182,3.4155509,32.406325)"><path
         d="m 219.8856,198.35388 c -1.41049,-4.78029 -5.9128,-8.25656 -12.86476,-10.03162 6.31996,-15.1287 5.83579,-27.5759 -1.51493,-32.36792 -1.52954,-0.99726 -3.76897,-1.91977 -6.82406,-1.93281 3.40118,-11.84189 1.96636,-20.94405 -4.1456,-24.92828 -4.45009,-2.9005 -10.5824,-2.48639 -17.44984,1.02245 0.89976,-10.59434 -1.85793,-18.24169 -7.86942,-21.10265 -5.88845,-2.80274 -13.57597,-0.3146 -21.36085,6.66965 -1.69906,-8.64591 -5.67868,-14.21792 -11.40339,-15.67187 -5.8411,-1.484798 -12.31729,1.73031 -18.21991,8.89576 -5.9013,-7.16501 -12.37661,-10.380123 -18.21992,-8.89576 -5.725142,1.45438 -9.704772,7.02596 -11.403376,15.67187 -7.784885,-6.98382 -15.471964,-9.47152 -21.360862,-6.66922 -6.011492,2.86053 -8.769618,10.50788 -7.869863,21.10222 -6.867431,-3.50927 -12.999746,-3.92381 -17.448949,-1.02245 -6.112841,3.98423 -7.546783,13.08769 -4.146039,24.92828 -3.05465,0.013 -5.29452,0.93555 -6.823616,1.93281 -7.351166,4.79202 -7.835785,17.23922 -1.515376,32.36835 -6.951963,1.77507 -11.454275,5.2509 -12.865203,10.03119 -2.142062,7.25845 3.309131,15.55063 14.955484,22.75085 10.210196,6.31245 22.215919,9.64923 34.719096,9.64923 H 170.21058 c 12.50362,0 24.50934,-3.33678 34.71953,-9.64923 11.64679,-7.20066 17.09755,-15.49284 14.95549,-22.75085 z"
         id="path1-3"
         style="fill:none;fill-opacity:1;stroke:#000000;stroke-width:13.8431;stroke-linejoin:round;stroke-dasharray:none;stroke-opacity:1" /><path
         d="m 274.79924,125.88202 c -1.41048,-4.7803 -5.9128,-8.25656 -12.86475,-10.03163 6.31995,-15.1287 5.83578,-27.575902 -1.51494,-32.367922 -1.52954,-0.99725 -3.76897,-1.91976 -6.82406,-1.9328 3.40118,-11.8419 1.96636,-20.944057 -4.1456,-24.928291 -4.45009,-2.900494 -10.58239,-2.486389 -17.44983,1.022457 0.89975,-10.594339 -1.85793,-18.241688 -7.86943,-21.102651 -5.88845,-2.802736 -13.57597,-0.314603 -21.36085,6.669653 -1.69906,-8.645906 -5.67868,-14.217923 -11.40339,-15.67187 -5.8411,-1.484799 -12.31729,1.73031 -18.21991,8.895758 -5.9013,-7.165013 -12.3766,-10.380122 -18.21991,-8.895758 -5.72515,1.454382 -9.70478,7.025964 -11.40338,15.67187 -7.78489,-6.983816 -15.47196,-9.471518 -21.36086,-6.669221 -6.01149,2.860531 -8.76962,10.50788 -7.86986,21.102219 -6.86743,-3.509278 -12.99975,-3.923815 -17.448948,-1.022457 -6.11285,3.984234 -7.54678,13.087691 -4.14605,24.928291 -3.05464,0.013 -5.29451,0.93555 -6.82361,1.9328 -7.351169,4.79202 -7.835788,17.239222 -1.515373,32.368362 -6.951969,1.77506 -11.454279,5.25089 -12.865207,10.03119 -2.142061,7.25844 3.309131,15.55063 14.95549,22.75084 10.21019,6.31246 22.215918,9.64924 34.719098,9.64924 h 103.95635 c 12.50362,0 24.50934,-3.33678 34.71954,-9.64924 11.64679,-7.20065 17.09754,-15.49284 14.95548,-22.75084 z"
         id="path2-5"
         style="fill:none;fill-opacity:1;stroke:#000000;stroke-width:13.8431;stroke-linejoin:round;stroke-dasharray:none;stroke-opacity:1"
         clip-path="url(#clipPath2)" /></g></g><path
     style="fill:none;fill-rule:evenodd;stroke:#000000;stroke-width:24;stroke-linecap:round;stroke-linejoin:round;paint-order:markers stroke fill"
     id="path5"
     d="M 267.99888,315.82413 H 484.00063 L 375.99976,201.34601 Z" /></svg>
