<?xml version="1.0" encoding="UTF-8" standalone="no"?>
<!-- Created with Inkscape (http://www.inkscape.org/) -->

<svg
   version="1.1"
   id="svg89213"
   width="512"
   height="512"
   viewBox="0 0 512 512"
   xml:space="preserve"
   xmlns="http://www.w3.org/2000/svg"
   xmlns:svg="http://www.w3.org/2000/svg"><defs
     id="defs89217"><clipPath
       clipPathUnits="userSpaceOnUse"
       id="clipPath36"><path
         style="display:none;fill-rule:evenodd;stroke-width:1;stroke-linecap:round;stroke-linejoin:round;paint-order:markers stroke fill"
         d="m 376.00001,146.85619 c 4.19564,-3e-4 8.20588,1.72888 11.08573,4.78008 l 172.72799,183.0869 c 9.1671,9.72224 2.27681,25.69525 -11.08574,25.69885 H 203.27203 c -13.36254,-0.004 -20.25284,-15.97661 -11.08573,-25.69885 l 172.72798,-183.0869 c 2.87986,-3.0512 6.89009,-4.78038 11.08573,-4.78008 z"
         id="path37" /><path
         id="lpe_path-effect37"
         style="display:block;fill-rule:evenodd;stroke-width:1;stroke-linecap:round;stroke-linejoin:round;paint-order:markers stroke fill"
         class="powerclip"
         d="M 10.999822,16.366883 H 501.00018 V 495.63312 H 10.999822 Z M 376.00001,146.85619 c -4.19564,-3e-4 -8.20587,1.72888 -11.08573,4.78008 L 192.1863,334.72317 c -9.16711,9.72224 -2.27681,25.69485 11.08573,25.69885 h 345.45596 c 13.36255,-0.004 20.25284,-15.97661 11.08574,-25.69885 L 387.08574,151.63627 c -2.87985,-3.0512 -6.89009,-4.78038 -11.08573,-4.78008 z" /></clipPath></defs><g
     id="g30"
     clip-path="url(#clipPath36)"><path
       id="path5-9"
       style="fill:none;fill-opacity:1;fill-rule:evenodd;stroke:#000000;stroke-width:24;stroke-linecap:round;stroke-linejoin:round;stroke-opacity:1;paint-order:markers stroke fill"
       d="m 50.391272,283.72828 107.392748,30.1445 -28.14226,110.00693 M 59.568035,371.74557 256,256 M 177.20733,447.93923 257.00773,370 338.1986,449.37711 M 258.01547,484 256,256 M 382.81605,420.21094 355.22372,312.1272 464.55685,281.49739 M 454.44744,368.25441 256,256 M 461.60873,228.27171 354.21599,198.12721 382.35825,88.120278 M 452.43197,140.25442 256,256 M 334.79268,64.060764 254.99226,142 173.8014,62.62288 M 253.98453,28 256,256 M 129.18395,91.789052 156.77628,199.87278 47.443151,230.50259 M 57.552561,143.74557 256,256" /></g><path
     style="fill:none;fill-rule:evenodd;stroke:#000000;stroke-width:24;stroke-linecap:round;stroke-linejoin:round;paint-order:markers stroke fill"
     id="path5"
     d="M 267.99888,315.82413 H 484.00063 L 375.99976,201.34601 Z" /></svg>
