<?xml version="1.0" encoding="UTF-8" standalone="no"?>
<!-- Uploaded to: SVG Repo, www.svgrepo.com, Generator: SVG Repo Mixer Tools -->

<svg
   width="512"
   height="512"
   viewBox="0 0 15.36 15.36"
   fill="none"
   version="1.1"
   id="svg1"
   xml:space="preserve"
   xmlns="http://www.w3.org/2000/svg"
   xmlns:svg="http://www.w3.org/2000/svg"><defs
     id="defs1"><clipPath
       clipPathUnits="userSpaceOnUse"
       id="clipPath6"><path
         style="display:none;fill:none;fill-rule:evenodd;stroke:#000000;stroke-width:0.720002;stroke-linecap:round;stroke-linejoin:round;paint-order:markers stroke fill"
         d="m 0.92768392,14.33314 c 0,0 3.81335618,-1.77377 4.99817758,-3.404708 C 6.5093518,10.125243 6.1241623,8.8319816 6.7596008,8.0692288 7.6135555,7.044178 10.336472,6.273204 10.336472,6.273204 11.262963,5.8079929 10.85042,5.0225217 9.7466658,4.78596 9.225199,4.6741968 5.3181872,5.4952051 3.7040684,6.7416137 2.6409535,7.5625418 1.9499798,9.6683186 1.9499798,9.6683186 l -3.2645687,2.0941634 z"
         id="path6" /><path
         id="lpe_path-effect6"
         style="fill:none;fill-rule:evenodd;stroke:#000000;stroke-width:0.720002;stroke-linecap:round;stroke-linejoin:round;paint-order:markers stroke fill"
         class="powerclip"
         d="M -2.4220789,-2.4195402 H 26.416717 V 26.419222 H -2.4220789 Z M 0.92768392,14.33314 c 0,0 3.81335618,-1.77377 4.99817758,-3.404708 C 6.5093518,10.125243 6.1241623,8.8319816 6.7596008,8.0692288 7.6135555,7.044178 10.336472,6.273204 10.336472,6.273204 11.262963,5.8079929 10.85042,5.0225217 9.7466658,4.78596 9.225199,4.6741968 5.3181872,5.4952051 3.7040684,6.7416137 2.6409535,7.5625418 1.9499798,9.6683186 1.9499798,9.6683186 l -3.2645687,2.0941634 z" /></clipPath></defs><g
     id="g4"
     style="display:inline;stroke-width:1.30825"
     transform="matrix(0.76438146,0,0,0.76438144,-1.4905284,-1.4924555)"><path
       style="fill:none;fill-rule:evenodd;stroke:#000000;stroke-width:0.941938;stroke-linecap:round;stroke-linejoin:round;stroke-dasharray:none;paint-order:markers stroke fill"
       id="path2"
       clip-path="url(#clipPath6)"
       d="M 20.945748,11.999841 A 8.9484291,8.9484119 0 0 1 11.997319,20.948253 8.9484291,8.9484119 0 0 1 3.0488901,11.999841 8.9484291,8.9484119 0 0 1 11.997319,3.0514288 8.9484291,8.9484119 0 0 1 20.945748,11.999841 Z" /><circle
       style="fill:#000000;fill-opacity:1;fill-rule:evenodd;stroke:none;stroke-width:0.627959;stroke-linecap:round;stroke-linejoin:round;stroke-dasharray:none;stroke-opacity:1;paint-order:markers stroke fill"
       id="path3"
       cx="8.9907742"
       cy="10.003861"
       r="1.4803462" /><circle
       style="fill:#000000;fill-opacity:1;fill-rule:evenodd;stroke:none;stroke-width:0.627959;stroke-linecap:round;stroke-linejoin:round;stroke-dasharray:none;stroke-opacity:1;paint-order:markers stroke fill"
       id="circle4"
       cx="8.9907742"
       cy="10.003861"
       r="1.4803462"
       transform="matrix(-0.99999999,0,0,0.99999999,23.994638,0)" /><path
       id="path5"
       style="fill:none;fill-opacity:1;fill-rule:evenodd;stroke:#000000;stroke-width:0.941938;stroke-linecap:round;stroke-linejoin:round;stroke-dasharray:none;stroke-opacity:1;paint-order:markers stroke fill"
       d="M 15.038083,15.788857 H 9.0249931" /></g><path
     style="fill:none;fill-rule:evenodd;stroke:#000000;stroke-width:0.720002;stroke-linecap:round;stroke-linejoin:round;paint-order:markers stroke fill"
     d="M -2.4953758,7.4985671 0,5.8978278 c 0,0 0.52816752,-1.6096166 1.3407928,-2.2371188 1.2338025,-0.9527317 4.22025,-1.5802952 4.6188494,-1.4948655 0.8436892,0.1808234 1.1590296,0.781223 0.4508372,1.1368217 0,0 -2.081347,0.5893181 -2.7340944,1.3728479 C 3.1906676,5.2585473 3.4850994,6.2470923 3.0390902,6.8610354 2.1334348,8.1076934 -0.781424,9.4635308 -0.781424,9.4635308"
     id="path1" /></svg>
