<?xml version="1.0" encoding="UTF-8" standalone="no"?>
<!-- Created with Inkscape (http://www.inkscape.org/) -->

<svg
   width="512"
   height="512"
   viewBox="0 0 135.46666 135.46667"
   version="1.1"
   id="svg1"
   xml:space="preserve"
   xmlns="http://www.w3.org/2000/svg"
   xmlns:svg="http://www.w3.org/2000/svg"><defs
     id="defs1" /><g
     id="g14"
     transform="matrix(0.97843732,0,0,0.9783504,-16.884984,0.38211237)"
     style="stroke-width:1.02208"><circle
       style="fill:none;fill-rule:evenodd;stroke:#000000;stroke-width:6.49023;stroke-linecap:round;stroke-linejoin:round;stroke-miterlimit:6;stroke-dasharray:none;paint-order:markers stroke fill"
       id="path2"
       cx="73.470131"
       cy="47.660954"
       r="5.7135897" /><path
       id="path10"
       style="fill:none;fill-rule:evenodd;stroke:#000000;stroke-width:6.49023;stroke-linecap:round;stroke-linejoin:round;stroke-miterlimit:6;stroke-dasharray:none;paint-order:markers stroke fill"
       d="m 68.5104,50.469921 -17.775721,9.748737 c -2.690528,1.475566 -3.036832,4.708416 -2.267684,7.180176" /><path
       id="path11"
       style="fill:none;fill-rule:evenodd;stroke:#000000;stroke-width:6.49023;stroke-linecap:round;stroke-linejoin:round;stroke-miterlimit:6;stroke-dasharray:none;paint-order:markers stroke fill"
       d="m 144.1994,21.783701 -5.62333,-9.739879 -60.059994,32.93869" /><path
       id="path9"
       style="fill:none;fill-rule:evenodd;stroke:#000000;stroke-width:6.49023;stroke-linecap:round;stroke-linejoin:round;stroke-miterlimit:6;stroke-dasharray:none;paint-order:markers stroke fill"
       d="M 106.83602,51.132743 148.13754,28.513222 144.1994,21.783701" /><path
       style="fill:none;fill-opacity:0.157745;fill-rule:evenodd;stroke:#000000;stroke-width:6.49023;stroke-linecap:round;stroke-linejoin:round;stroke-miterlimit:6;stroke-dasharray:none;paint-order:markers stroke fill"
       d="m 47.339181,54.66956 5.891704,-3.630936 c 2.276451,-1.40293 3.718875,-1.822281 5.960216,0.753589 l 4.59005,5.275133"
       id="path5" /><path
       style="fill:none;fill-opacity:0.157745;fill-rule:evenodd;stroke:#000000;stroke-width:6.49023;stroke-linecap:round;stroke-linejoin:round;stroke-miterlimit:6;stroke-dasharray:none;paint-order:markers stroke fill"
       d="m 107.77178,28.937815 11.10194,6.761424"
       id="path6" /><path
       id="path7"
       style="fill:none;fill-opacity:0.157745;fill-rule:evenodd;stroke:#000000;stroke-width:6.49023;stroke-linecap:round;stroke-linejoin:round;stroke-miterlimit:6;stroke-dasharray:none;paint-order:markers stroke fill"
       d="M 144.19933,21.783582 59.072581,68.558166 C 54.134465,71.271512 50.029674,63.425774 42.731232,70.216508 27.84966,84.062862 21.709025,101.75329 26.274979,123.85842 c 9.82326,4.12805 17.680485,0.73241 24.640963,-4.24844 4.730269,-3.38493 2.363627,-5.72789 -0.91505,-9.60802 C 40.294295,98.51475 46.753184,87.81132 54.968301,83.334819 L 98.629209,59.543547 C 109.82157,53.444718 109.78113,41.512076 103.91184,43.920343" /><path
       style="fill:none;fill-opacity:0.157745;fill-rule:evenodd;stroke:#000000;stroke-width:6.49023;stroke-linecap:round;stroke-linejoin:round;stroke-miterlimit:6;stroke-dasharray:none;paint-order:markers stroke fill"
       d="m 54.78371,83.436618 c 6.669891,11.97108 26.830019,8.470937 22.015045,-11.997435"
       id="path12" /><path
       style="fill:none;fill-opacity:0.157745;fill-rule:evenodd;stroke:#000000;stroke-width:6.49023;stroke-linecap:round;stroke-linejoin:round;stroke-miterlimit:6;stroke-dasharray:none;paint-order:markers stroke fill"
       d="m 63.423259,78.727624 3.274947,4.039548"
       id="path13" /><path
       style="fill:none;fill-opacity:0.157745;fill-rule:evenodd;stroke:#000000;stroke-width:6.49023;stroke-linecap:round;stroke-linejoin:round;stroke-miterlimit:6;stroke-dasharray:none;paint-order:markers stroke fill"
       d="M 45.277301,100.29721 25.208155,103.1787"
       id="path14" /></g></svg>
