<?xml version="1.0" encoding="UTF-8" standalone="no"?>
<!-- Created with Inkscape (http://www.inkscape.org/) -->

<svg
   version="1.1"
   id="svg89213"
   width="256"
   height="256"
   viewBox="0 0 256 256"
   xml:space="preserve"
   xmlns="http://www.w3.org/2000/svg"
   xmlns:svg="http://www.w3.org/2000/svg"><defs
     id="defs89217" /><path
     style="fill:none;fill-rule:evenodd;stroke:#000000;stroke-width:16;stroke-linecap:square;stroke-linejoin:round;stroke-dasharray:none;stroke-dashoffset:0;paint-order:markers stroke fill"
     d="M 48.019527,120.38118 H 207.98048 v 99.61883 H 48.019527 Z"
     id="path13" /><path
     style="fill-rule:evenodd;stroke-linecap:round;stroke-linejoin:round;stroke-dasharray:16, 24;paint-order:markers stroke fill"
     d="m 191.98048,78.082031 a 8,8 0 0 0 -8,8 8,8 0 0 0 8,8 h 16 a 8,8 0 0 0 8,-8 8,8 0 0 0 -8,-8 z"
     id="path5" /><path
     style="fill-rule:evenodd;stroke-linecap:round;stroke-linejoin:round;stroke-dasharray:16, 24;paint-order:markers stroke fill"
     d="m 143.9935,78.082031 a 8,8 0 0 0 -8,8 8,8 0 0 0 8,8 h 16 a 8,8 0 0 0 8,-8 8,8 0 0 0 -8,-8 z"
     id="path4" /><path
     style="fill-rule:evenodd;stroke-linecap:round;stroke-linejoin:round;stroke-dasharray:16, 24;paint-order:markers stroke fill"
     d="m 96.006514,78.082031 a 8,8 0 0 0 -8,8 8,8 0 0 0 8,8 h 15.999996 a 8,8 0 0 0 8,-8 8,8 0 0 0 -8,-8 z"
     id="path3" /><path
     style="fill-rule:evenodd;stroke-linecap:round;stroke-linejoin:round;stroke-dasharray:16, 24;paint-order:markers stroke fill"
     d="m 48.019531,78.082031 a 8,8 0 0 0 -8,8 8,8 0 0 0 8,8 h 16 a 8,8 0 0 0 8,-8 8,8 0 0 0 -8,-8 z"
     id="path2" /></svg>
