<?xml version="1.0" encoding="UTF-8" standalone="no"?>
<svg
   version="1"
   width="512"
   height="512"
   viewBox="0 0 512 512"
   id="svg1"
   xml:space="preserve"
   xmlns="http://www.w3.org/2000/svg"
   xmlns:svg="http://www.w3.org/2000/svg"><defs
     id="defs1" /><path
     id="path6"
     style="fill:none;fill-rule:evenodd;stroke:#000000;stroke-width:8;stroke-linecap:round;stroke-linejoin:round;stroke-dasharray:none;paint-order:markers stroke fill"
     d="m 283.58649,66.812685 v 0 c 0,-21.936923 -12.68428,-39.720314 -28.33112,-39.720319 -15.64685,-3e-6 -28.33113,17.783391 -28.33113,39.720319 0,12.081591 3.92206,23.50642 10.64256,31.027273 l -0.0145,15.635672 c -48.17147,-0.13365 -54.4914,13.86514 -61.60617,56.93634 -6.71661,40.66079 -5.07678,75.19928 2.03362,103.17377 -1.28899,3.55241 -1.76998,7.7467 -1.37215,11.96989 v 0 c 1.03171,10.95206 7.58684,19.29454 14.6413,18.63342 7.05446,-0.66111 11.93686,-10.07545 10.90515,-21.02751 -0.51231,-5.43838 -2.44077,-10.5033 -5.33346,-14.00869 -2.1789,-40.27156 1.53763,-67.71307 11.15017,-82.32386 11.20493,69.7944 0.46414,86.15637 -2.85631,119.65414 -9.99644,100.84735 -5.47163,108.3556 -6.85513,153.84104 -11.03034,11.78958 -11.83337,30.76821 2.28504,30.76821 h 25.70674 c 11.12954,0 8.51962,-15.47553 -5.7126,-27.9193 4.22448,-14.85286 4.51624,-11.95411 13.71025,-51.28035 7.52053,-32.16814 13.04729,-54.67095 13.139,-68.37379 h 20.56539 c -0.0124,-0.0139 -0.65902,38.62273 9.71143,72.36227 4.52228,14.7129 4.17359,35.96572 1.14253,46.15231 -5.26836,17.70549 -0.98792,29.05886 13.13899,29.05886 h 35.10865 c 10.19623,0 24.57333,-17.44617 -13.7661,-33.04734 5.18375,-35.37534 0.57608,-133.2025 0,-135.03824 -29.68212,-94.58668 -12.01678,-89.08657 -17.34372,-132.18935 6.19539,25.31714 19.00474,39.39379 18.54897,79.87427 -0.91163,3.74225 -0.90236,8.065 0.0263,12.30958 2.35132,10.7474 9.86934,18.23845 16.79197,16.73175 6.92263,-1.5067 10.6284,-11.44061 8.27708,-22.18801 v 0 c -0.66442,-3.03688 -1.77743,-5.93196 -3.25355,-8.45971 6.8694,-56.7107 -1.11991,-83.24494 -15.82659,-119.86193 -3.42756,-23.55097 -7.22051,-33.80704 -47.41465,-34.18689 l -0.11851,-17.23252 c 6.70116,-7.520946 10.61052,-18.929383 10.61052,-30.991305 z" /></svg>
