<?xml version="1.0" encoding="UTF-8" standalone="no"?>
<!-- Created with Inkscape (http://www.inkscape.org/) -->

<svg
   version="1.1"
   id="svg89213"
   width="512"
   height="512"
   viewBox="0 0 512 512"
   xml:space="preserve"
   xmlns="http://www.w3.org/2000/svg"
   xmlns:svg="http://www.w3.org/2000/svg"><defs
   id="defs89217" />







<g
   id="g1"
   transform="matrix(0.91999543,0,0,0.92022938,-511.27711,78.163071)"
   style="stroke-width:1.08682"><path
     d="M 806.604,87.914 C 784.295,74.939 753.778,58.559 715.487,46.979 676.87734,35.30111 633.92025,29.574 586.172,29.574"
     id="path2"
     style="fill:none;fill-opacity:1;stroke:#000000;stroke-width:26.0837;stroke-linecap:round;stroke-dasharray:none;stroke-opacity:1" /><path
     d="M 1081.83,29.574 C 985.16893,28.55225 912.06711,56.5992 829.719,107.041 767.008,145.634 707.774,182.085 586.172,182.085"
     id="path4"
     style="fill:none;stroke:#000000;stroke-width:26.0837;stroke-linecap:round;stroke-dasharray:none;stroke-opacity:1" /><path
     d="m 650.988,310.085 c -4.513,0 -8.17,3.657 -8.17,8.17 v 10.894 c 0,4.513 3.657,8.17 8.17,8.17 4.513,0 8.17,-3.657 8.17,-8.17 v -10.894 c 0,-4.513 -3.657,-8.17 -8.17,-8.17 z"
     id="path6"
     style="stroke-width:1.08682" /><path
     d="m 885.201,212.043 c -4.513,0 -8.17,3.657 -8.17,8.17 v 10.894 c 0,4.513 3.657,8.17 8.17,8.17 4.513,0 8.17,-3.657 8.17,-8.17 v -10.894 c 0,-4.513 -3.657,-8.17 -8.17,-8.17 z"
     id="path8"
     style="stroke-width:1.08682" /><path
     d="m 1015.924,277.404 c -4.513,0 -8.17,3.657 -8.17,8.17 v 10.894 c 0,4.513 3.657,8.17 8.17,8.17 4.513,0 8.17,-3.657 8.17,-8.17 v -10.894 c 0,-4.513 -3.657,-8.17 -8.17,-8.17 z"
     id="path10"
     style="stroke-width:1.08682" /><path
     d="m 983.243,310.085 c -4.513,0 -8.17,3.657 -8.17,8.17 v 10.894 c 0,4.513 3.657,8.17 8.17,8.17 4.513,0 8.17,-3.657 8.17,-8.17 v -10.894 c 0,-4.513 -3.657,-8.17 -8.17,-8.17 z"
     id="path12"
     style="stroke-width:1.08682" /><path
     id="path14"
     d="m 716.349,342.766 c -4.513,0 -8.17,3.657 -8.17,8.17 v 10.894 c 0,4.513 3.657,8.17 8.17,8.17 4.513,0 8.17,-3.657 8.17,-8.17 v -10.894 c 10e-4,-4.513 -3.656,-8.17 -8.17,-8.17 z"
     style="stroke-width:1.08682" /></g>
</svg>
