<?xml version="1.0" encoding="UTF-8" standalone="no"?>
<svg
   version="1.1"
   id="Layer_1"
   x="0px"
   y="0px"
   viewBox="0 0 512 512"
   enable-background="new 0 0 1548.1006 1657.1896"
   xml:space="preserve"
   width="512"
   height="512"
   xmlns="http://www.w3.org/2000/svg"
   xmlns:svg="http://www.w3.org/2000/svg"><defs
   id="defs11" />

<path
   style="fill:none;fill-rule:evenodd;stroke:#000000;stroke-width:8;stroke-linecap:butt;stroke-linejoin:round;stroke-dasharray:none;paint-order:markers stroke fill"
   d="m 262.74565,484 h 29.5455 c 12.91372,-4.34351 12.91372,-13.22373 0,-26.64064 5.13839,-19.28837 5.35725,-40.27793 0.65661,-62.96882 47.09804,-2.42067 62.32378,-18.42794 65.65655,-42.98832 7.89553,-58.18473 9.34698,-131.17051 3.93939,-185.87906 -1.46488,-14.82018 -45.30302,-15.74221 -45.30302,-15.74221 -0.42571,-14.74297 -16.83983,-26.6505 -49.2424,-35.72265 36.61505,-115.4916946 -90.90028,-113.99484464 -57.77774,0 -40.81359,3.56838 -55.97377,17.14433 -49.24245,49.64849 -15.9777,34.51174 -19.04165,69.02351 -9.19191,103.53525 -14.12342,57.56383 51.23406,68.91044 20.35352,-4.2383 7.67066,-5.03451 12.26662,-24.81317 13.7879,-59.33601 0.61501,28.13171 -0.97557,58.63654 6.56563,79.31651 -11.23539,29.63951 -13.86164,55.87648 -7.87875,78.71097 -2.69636,31.46222 -10.40814,62.53897 0.65661,95.05871 -10.9333,11.35037 -12.02759,20.43239 -3.28283,27.24608 h 33.48486 c 15.84004,-10.52825 -7.90408,-25.32166 -4.59597,-37.5391 8.61028,-31.79932 11.1616,-98.69147 11.1616,-98.69147 h 30.20206 c 1.90314,27.60711 5.98627,53.69903 9.19188,80.5274 2.10499,17.61638 -9.06992,38.08936 1.313,55.70317 z"
   id="path2" /></svg>
