<?xml version="1.0" encoding="UTF-8" standalone="no"?>
<!-- Created with Inkscape (http://www.inkscape.org/) -->

<svg
   width="512"
   height="512"
   viewBox="0 0 135.46666 135.46667"
   version="1.1"
   id="svg1"
   xml:space="preserve"
   xmlns="http://www.w3.org/2000/svg"
   xmlns:svg="http://www.w3.org/2000/svg"><defs
     id="defs1" /><g
     id="layer1"><path
       style="fill:none;fill-rule:evenodd;stroke:#000000;stroke-width:2.11667;stroke-linecap:round;stroke-linejoin:round;stroke-dasharray:none;stroke-opacity:1;paint-order:markers stroke fill"
       d="m 67.32799,6.3500208 a 6.3664628,6.3664623 0 0 0 -0.37597,0.152734 c -16.66,0.22029 -31.770841,7.0024492 -42.71985,18.0231692 a 6.3664628,6.3664623 0 0 0 -0.187986,0.08223 6.3664628,6.3664623 0 0 0 -0.223237,0.540437 C 13.095121,36.208153 6.3499868,51.166932 6.3499868,67.739198 c 0,16.85199 6.8584012,32.11713 17.9056802,43.225052 a 6.3664628,6.3664623 0 0 0 0.0705,0.17626 6.3664628,6.3664623 0 0 0 0.199717,0.0822 c 10.924393,10.84993 25.914345,17.52289 42.426136,17.74122 a 6.3664628,6.3664623 0 0 0 0.37597,0.15273 6.3664628,6.3664623 0 0 0 0.12921,-0.0589 c 0.096,4.4e-4 0.17421,0.0589 0.27022,0.0589 16.70926,0 31.82384,-6.81134 42.90784,-17.69419 a 6.3664628,6.3664623 0 0 0 0.2115,0 6.3664628,6.3664623 0 0 0 0.17626,-0.25849 c 11.15965,-11.1233 18.09366,-26.475662 18.09366,-43.424792 0,-16.709206 -6.81141,-31.823848 -17.69419,-42.907833 a 6.3664628,6.3664623 0 0 0 -0.29374,-0.505186 6.3664628,6.3664623 0 0 0 -0.19972,-0.08223 C 99.82359,13.214232 84.56425,6.3500088 67.72747,6.3500088 c -0.0704,6e-6 -0.12939,0.03489 -0.19972,0.03549 a 6.3664628,6.3664623 0 0 0 -0.19971,-0.03549 z m 6.36803,13.9344732 c 8.69904,1.107368 16.45232,4.344188 23.07529,9.399305 L 80.71025,45.756611 C 78.52853,44.453972 76.22227,43.58005 73.69602,42.960316 Z M 60.95996,20.44896 v 22.664079 c -2.36707,0.660682 -4.49579,1.600805 -6.54427,2.866785 L 38.342877,29.907012 C 44.82136,24.874826 52.43931,21.681234 60.95996,20.44896 Z m 44.82294,18.234651 c 4.97455,6.518305 8.15677,14.149223 9.31706,22.687577 H 92.42414 c -0.62351,-2.38091 -1.4797,-4.54624 -2.71405,-6.61475 z M 29.448788,39.024332 45.5216,55.097148 c -1.133384,1.96978 -1.903105,4.02927 -2.490819,6.27403 H 20.354958 c 1.141031,-8.396593 4.25473,-15.894363 9.09383,-22.346846 z m -9.09383,35.071156 h 22.675823 c 0.623104,2.38155 1.479815,4.54567 2.714051,6.61476 l -16.061065,16.07282 c -4.978233,-6.52132 -8.169178,-14.14395 -9.328809,-22.68758 z m 72.069182,0 h 22.67582 c -1.17841,8.68201 -4.44015,16.43273 -9.55205,23.01655 L 89.48685,81.050978 c 1.33844,-2.165 2.27843,-4.43787 2.93729,-6.95549 z m -37.66772,15.61459 c 1.95205,1.16452 3.97068,2.02033 6.20354,2.64356 v 22.664082 c -8.37928,-1.21183 -15.862613,-4.3387 -22.276356,-9.23482 z m 25.61311,0.23497 16.07281,16.072812 c -6.55834,4.91979 -14.18839,8.07492 -22.74632,9.16432 V 92.506358 c 2.38822,-0.58585 4.59014,-1.36207 6.67351,-2.56131 z"
       id="path6" /></g></svg>
