<svg xmlns="http://www.w3.org/2000/svg" width="512" height="512" viewBox="0 0 512 512">
  <symbol id="on" viewBox="0 0 512 512">
    <path stroke="#fff" stroke-linejoin="round" stroke-width="8"
      d="M254 28a24 24 0 0 0-1 1c-62 0-118 26-159 67a24 24 0 0 0 0 0 24 24 0 0 0-1 2 227 227 0 0 0 2 319 24 24 0 0 0 0 0 24 24 0 0 0 1 1c40 40 96 65 157 65a24 24 0 0 0 1 1 24 24 0 0 0 1 0h1c62 0 118-25 159-66a24 24 0 0 0 1 0 24 24 0 0 0 1-1 227 227 0 0 0 1-320 24 24 0 0 0-1-2 24 24 0 0 0-1-1c-41-41-97-66-160-66h-1a24 24 0 0 0-1 0zm24 52c32 4 61 16 86 35l-60 59c-8-4-16-8-26-10zm-47 0v85c-9 2-17 5-24 10l-60-60c24-18 52-30 84-35zm166 68c19 24 31 53 35 84h-84l-10-24zm-283 1 59 60c-4 7-7 15-9 23H80c4-31 16-59 34-83zM80 280h84l10 24-59 60c-19-24-31-53-35-84Zm268 0h84c-4 32-17 61-36 85l-59-60c5-8 8-16 11-25zm-140 58c7 4 15 7 23 9v85c-31-5-59-16-83-35zm95 1 60 59c-25 18-53 30-85 34v-84c9-2 17-5 25-9z" />
  </symbol>
  <symbol id="off" viewBox="0 0 512 512">
    <path fill="none" stroke="#000" stroke-dasharray="16 16" stroke-linecap="round"
      stroke-linejoin="round" stroke-width="8"
      d="M254 28a24 24 0 0 0-1 1c-62 0-118 26-159 67a24 24 0 0 0 0 0 24 24 0 0 0-1 2 227 227 0 0 0 2 319 24 24 0 0 0 0 0 24 24 0 0 0 1 1c40 40 96 65 157 65a24 24 0 0 0 1 1 24 24 0 0 0 1 0h1c62 0 118-25 159-66a24 24 0 0 0 1 0 24 24 0 0 0 1-1 227 227 0 0 0 1-320 24 24 0 0 0-1-2 24 24 0 0 0-1-1c-41-41-97-66-160-66h-1a24 24 0 0 0-1 0zm24 52c32 4 61 16 86 35l-60 59c-8-4-16-8-26-10zm-47 0v85c-9 2-17 5-24 10l-60-60c24-18 52-30 84-35zm166 68c19 24 31 53 35 84h-84l-10-24zm-283 1 59 60c-4 7-7 15-9 23H80c4-31 16-59 34-83zM80 280h84l10 24-59 60c-19-24-31-53-35-84Zm268 0h84c-4 32-17 61-36 85l-59-60c5-8 8-16 11-25zm-140 58c7 4 15 7 23 9v85c-31-5-59-16-83-35zm95 1 60 59c-25 18-53 30-85 34v-84c9-2 17-5 25-9z" />
  </symbol>
  <use href="#on" />
</svg>