<?xml version="1.0" encoding="UTF-8" standalone="no"?>
<!-- Created with Inkscape (http://www.inkscape.org/) -->

<svg
   id="svg4686"
   version="1.1"
   width="512"
   height="512"
   viewBox="0 0 512 512"
   xml:space="preserve"
   xmlns="http://www.w3.org/2000/svg"
   xmlns:svg="http://www.w3.org/2000/svg"
   xmlns:rdf="http://www.w3.org/1999/02/22-rdf-syntax-ns#"
   xmlns:cc="http://creativecommons.org/ns#"
   xmlns:dc="http://purl.org/dc/elements/1.1/"><metadata
     id="metadata4692"><rdf:RDF><cc:Work
         rdf:about=""><dc:format>image/svg+xml</dc:format><dc:type
           rdf:resource="http://purl.org/dc/dcmitype/StillImage" /></cc:Work></rdf:RDF></metadata><defs
     id="defs4690" /><g
     id="g3263"
     transform="matrix(3.3320025,0,0,3.3213991,-116.93776,-75.403636)"
     style="stroke-width:7.21439;stroke-dasharray:none"><path
       style="fill:#000000;fill-opacity:1;fill-rule:evenodd;stroke:#000000;stroke-width:7.21439;stroke-linecap:round;stroke-linejoin:miter;stroke-dasharray:none"
       d="m 121.14626,76.711718 c 6.89949,11.72536 9.36438,5.3341 15.50158,14.51646 0.63668,-4.93416 -3.2677,-8.98832 -0.45744,-14.51646 -6.70175,-4.57864 -8.63175,0.50134 -15.04414,0 z"
       id="path3241" /><path
       id="path3239"
       style="fill:none;fill-rule:evenodd;stroke:#000000;stroke-width:7.21439;stroke-linecap:round;stroke-linejoin:round;stroke-dasharray:none"
       d="m 101.71655,42.325127 c -12.704843,-9.076366 -34.230643,-8.472609 -37.705743,7.287091 -5.22643,23.70204 -10.792417,31.10186 -16.006095,45.32102 16.596065,7.100562 37.427105,31.331342 45.679245,31.331342 5.268504,0 7.497153,-27.017075 10.991043,-40.773662 m 27.81266,25.222762 c 18.43487,22.71281 43.36063,32.12239 43.36063,32.12239 0,0 -42.35645,6.20465 -55.28583,-25.19139 -1.8359,-4.45807 8.14484,-11.58862 11.9252,-6.931 z m 22.21125,31.57352 c -9.92866,41.29613 -54.759229,24.50938 -53.78552,11.27153 0.57203,-7.77685 10.31451,-20.0613 11.48536,-13.75546 5.60668,30.19589 21.47812,5.62527 20.90134,-5.94411 M 89.575677,37.138072 C 107.03141,32.896568 145.22832,18.570838 145.73294,58.417146 v 0 c 7.01992,7.11573 6.24937,14.718782 5.44601,22.323832 5.03337,21.899012 6.33553,38.724092 5.14325,51.491812 m -32.06954,-7.71057 c -7.66364,-5.15537 -15.43633,-11.23479 -23.45343,-18.66116" /></g></svg>
