<?xml version="1.0" encoding="UTF-8" standalone="no"?>
<!-- Uploaded to: SVG Repo, www.svgrepo.com, Generator: SVG Repo Mixer Tools -->

<svg
   width="512"
   height="512"
   viewBox="0 0 327.68 327.68"
   version="1.1"
   id="svg4"
   xml:space="preserve"
   xmlns="http://www.w3.org/2000/svg"
   xmlns:svg="http://www.w3.org/2000/svg"><defs
     id="defs8" /><path
     id="path713"
     style="fill:none;fill-opacity:1;fill-rule:evenodd;stroke:#000000;stroke-width:15.36;stroke-linecap:round;stroke-linejoin:round;stroke-dasharray:none"
     d="m 62.5795,26.554752 a 41.288132,41.689518 0 0 0 -20.591478,36.0697 41.288132,41.689518 0 0 0 41.290075,41.688988 41.288132,41.689518 0 0 0 14.724197,-2.80233 l 0.520994,1.16479 76.995272,78.63594 -15.1332,46.16786 H 101.05523 A 21.866116,27.947502 0 0 0 88.527,222.43063 21.866116,27.947502 0 0 0 76.052334,227.4797 H 27.872465 l -9.952466,11.00465 v 30.79157 l 9.952466,9.96169 H 60.60751 a 27.921626,21.88638 0 0 0 27.91949,21.88744 27.921626,21.88638 0 0 0 27.91949,-21.88744 h 101.55019 a 27.921626,21.88638 0 0 0 27.92438,21.88744 27.921626,21.88638 0 0 0 27.9195,-21.88744 h 25.96208 L 309.76,269.27592 V 238.48435 L 298.76065,227.4797 H 272.00002 V 38.451273 H 222.35456 L 185.807,149.93544 119.16832,83.235013 a 41.288132,41.689518 0 0 0 0.0154,-0.02436 z M 231.50361,100.9945 v 94.67992 L 208.00526,172.1543 Z m -33.95231,102.81401 33.95231,34.67584 h -45.40448 z" /></svg>
