<?xml version="1.0" encoding="UTF-8" standalone="no"?>
<!-- Created with Inkscape (http://www.inkscape.org/) -->

<svg
   version="1.1"
   id="svg89213"
   width="512"
   height="512"
   viewBox="0 0 512 512"
   xml:space="preserve"
   xmlns="http://www.w3.org/2000/svg"
   xmlns:svg="http://www.w3.org/2000/svg"><defs
     id="defs89217" /><path
     style="fill:none;fill-rule:evenodd;stroke:#000000;stroke-width:23.9999;stroke-linecap:round;stroke-linejoin:round;stroke-dasharray:none"
     d="M 91.237159,27.999998 V 324.54644 C 91.237159,411.91237 256,484.00011 256,484.00011 c 0,0 164.76284,-72.08774 164.76284,-159.45367 V 27.999998 Z"
     id="path1369" /><path
     id="path3239"
     style="display:inline;fill:none;fill-rule:evenodd;stroke:#000000;stroke-width:16;stroke-linecap:round;stroke-linejoin:round;stroke-dasharray:none"
     d="m 272.64406,116.23789 c -19.00452,-0.33444 -40.45116,6.72508 -54.2793,10.0957 -18.94535,-3.98864 -39.07781,1.88533 -43.3164,21.11133 -8.83006,40.05254 -18.23447,52.5579 -27.04297,76.58594 28.03904,11.99878 63.23379,52.94336 77.17578,52.94336 5.3274,0 8.80828,-16.40373 12.01562,-34.51953 l 0.005,0.0411 35.11524,23.73632 c 1.33671,2.75451 2.80965,5.32715 4.41015,7.71876 l -39.52532,-31.45511 c 13.51454,12.52122 26.61758,22.77541 39.53711,31.47459 4.35913,6.50864 9.62086,11.71722 15.37305,15.87891 0.93625,19.56679 -25.84643,60.99546 -35.31251,10.00391 -1.97815,-10.65583 -18.43784,10.10254 -19.40429,23.24414 -1.64486,22.36672 74.07302,50.72773 90.86133,-19.01952 19.42347,3.27489 35.74023,0.90038 35.74023,0.90038 0,0 -14.61537,-5.52373 -32.99023,-17.90233 l 0.002,-0.0152 c 2.01435,-21.57534 -0.18559,-50.00601 -8.68947,-87.01172 1.35727,-12.85128 2.65898,-25.7002 -9.20117,-37.72461 -0.45292,-35.77102 -18.87855,-45.70589 -40.4746,-46.08594 z" /></svg>
