<?xml version="1.0" encoding="UTF-8" standalone="no"?>
<!-- Created with Inkscape (http://www.inkscape.org/) -->

<svg
   width="256"
   height="512"
   viewBox="0 0 67.73333 135.46667"
   version="1.1"
   id="svg1"
   xml:space="preserve"
   xmlns="http://www.w3.org/2000/svg"
   xmlns:svg="http://www.w3.org/2000/svg"><defs
     id="defs1" /><path
     id="path12"
     style="fill:none;fill-rule:evenodd;stroke:#000000;stroke-width:6.35;stroke-linecap:round;stroke-linejoin:round;stroke-dasharray:none;stroke-opacity:1;paint-order:markers stroke fill"
     d="m 25.7195,22.461891 -4.910071,-3.023882 10e-7,-12.0297923 4.910071,4.9302413 4.910063,-4.9302359 6e-6,12.0297879 -4.91007,3.023881 -1e-6,9.11885 m 15.230878,-3.490853 -4.910065,-3.023886 -3e-6,-12.029788 4.910066,4.930244 4.910072,-4.930247 -3e-6,12.029797 -4.910067,3.02388 5e-6,13.527625 m 8.291,3.157105 8e-6,67.848342 c 4e-6,5.52159 -2.936906,10.62275 -7.702246,13.3782 -4.765653,2.7549 -10.633465,2.74553 -15.389561,-0.026 -4.756111,-2.77148 -7.675958,-7.88254 -7.657555,-13.37816 l -4e-5,-82.442161 c 18.777523,2.077781 15.647077,11.52538 30.749393,14.61973 z" /></svg>
