<?xml version="1.0" encoding="UTF-8" standalone="no"?>
<!-- Created with Inkscape (http://www.inkscape.org/) -->

<svg
   version="1.1"
   id="svg89213"
   width="256"
   height="512"
   viewBox="0 0 256 512"
   xml:space="preserve"
   xmlns="http://www.w3.org/2000/svg"
   xmlns:svg="http://www.w3.org/2000/svg"><defs
     id="defs89217" /><g
     id="g3"
     transform="matrix(0.6479671,0,0,0.65820525,-63.928931,72.972169)"
     style="stroke-width:1.53124"><path
       d="m 379.535,267.16661 c -10.3028,-5.94833 -16.65447,-16.9367 -16.66667,-28.83333 V 44.666615 c 0,-88.888849 -133.33333,-88.888849 -133.33333,0 V 238.33328 c -0.0122,11.89663 -6.36387,22.885 -16.66667,28.83333 -147.715045,85.28334 -87.13947,310.97553 83.33334,310.97553 170.47279,0 231.04836,-225.69219 83.33333,-310.97553 z"
       id="path2"
       style="display:inline;fill:none;stroke:#000000;stroke-width:36.7497;stroke-dasharray:none;stroke-opacity:1" /><path
       d="M 396.20167,411.33328 C 396.538,492.54844 305.0448,540.26494 238.6382,493.51468 172.23162,446.76444 186.29752,344.53928 262.86833,317.46661 V 44.666615 c 0,-44.44442622 66.66667,-44.44442622 66.66667,0 V 317.46661 c 39.87457,13.99177 66.59107,51.6086 66.66667,93.86667 z"
       id="path1-5"
       style="fill:#000000;fill-opacity:1;stroke-width:51.0413" /></g></svg>
