<?xml version="1.0" encoding="UTF-8" standalone="no"?>
<!-- Created with Inkscape (http://www.inkscape.org/) -->

<svg
   version="1.1"
   id="svg89213"
   width="512"
   height="512"
   viewBox="0 0 512 512"
   xml:space="preserve"
   xmlns="http://www.w3.org/2000/svg"
   xmlns:svg="http://www.w3.org/2000/svg"><defs
     id="defs89217"><clipPath
       clipPathUnits="userSpaceOnUse"
       id="clipPath7"><path
         d="m 383.88007,255.99999 c 0,16.89221 -5.74303,30.69073 -17.08862,41.54304 -11.24303,10.7542 -25.63295,16.20473 -43.31084,16.20473 -7.85684,0 -15.43316,-1.4386 -22.68663,-4.41947 -7.08542,-2.91181 -82.79145,-2.94631 -89.86261,0 -7.07115,2.94631 -14.73157,4.41947 -22.98125,4.41947 -17.87431,0 -32.45715,-5.35239 -43.60547,-16.20473 -11.04747,-10.75417 -16.49936,-24.65083 -16.49936,-41.54304 0,-16.89221 5.598,-30.73989 16.794,-41.54305 11.19599,-10.80315 25.63293,-16.20473 43.31083,-16.20473 8.05325,0 15.56739,1.59129 22.68662,4.41947 7.22147,2.8688 82.81158,2.80109 89.86261,0 7.28807,-2.89526 14.928,-4.41947 22.98126,-4.41947 17.87431,0 32.40947,5.40158 43.60546,16.20473 11.196,10.80316 16.794,24.65084 16.794,41.54305 z"
         id="path7"
         style="font-size:240.848px;line-height:1.25;font-family:Blinker;-inkscape-font-specification:Blinker;text-align:center;text-anchor:middle;display:none;stroke-width:1"
         aria-label="∞" /><path
         id="lpe_path-effect7"
         style="font-size:240.848px;line-height:1.25;font-family:Blinker;-inkscape-font-specification:Blinker;text-align:center;text-anchor:middle;stroke-width:1"
         class="powerclip"
         d="M 22.845281,7.4999902 H 489.15472 V 504.50001 H 22.845281 Z M 383.88007,255.99999 c 0,-16.89221 -5.598,-30.73989 -16.794,-41.54305 -11.19599,-10.80315 -25.73115,-16.20473 -43.60546,-16.20473 -8.05326,0 -15.69319,1.52421 -22.98126,4.41947 -7.05103,2.80109 -82.64114,2.8688 -89.86261,0 -7.11923,-2.82818 -14.63337,-4.41947 -22.68662,-4.41947 -17.6779,0 -32.11484,5.40158 -43.31083,16.20473 -11.196,10.80316 -16.794,24.65084 -16.794,41.54305 0,16.89221 5.45189,30.78887 16.49936,41.54304 11.14832,10.85234 25.73116,16.20473 43.60547,16.20473 8.24968,0 15.9101,-1.47316 22.98125,-4.41947 7.07116,-2.94631 82.77719,-2.91181 89.86261,0 7.25347,2.98087 14.82979,4.41947 22.68663,4.41947 17.67789,0 32.06781,-5.45053 43.31084,-16.20473 11.34559,-10.85231 17.08862,-24.65083 17.08862,-41.54304 z" /></clipPath></defs><path
     d="m 360.51115,256 q 0,20.71293 -13.96918,33.95957 -13.72834,13.24664 -35.40466,13.24664 -9.63392,0 -18.5453,-3.61272 -8.67053,-3.61272 -15.65512,-10.35646 l -21.19462,-20.23124 -21.19463,20.23124 q -6.74374,6.74374 -15.41427,10.35646 -8.67053,3.61272 -18.78614,3.61272 -21.91717,0 -35.64551,-13.24664 Q 151.21423,276.71293 151.21423,256 q 0,-20.71293 13.72834,-33.95957 13.72833,-13.24664 35.40466,-13.24664 9.87476,0 18.54529,3.61272 8.91138,3.37187 15.65512,10.11562 l 21.19463,20.47208 21.19462,-20.47208 q 6.74375,-6.74375 15.41427,-10.11562 8.91138,-3.61272 18.78615,-3.61272 21.91717,0 35.6455,13.24664 Q 360.51115,235.28707 360.51115,256 Z M 289.70184,235.52792 268.50721,256 l 21.19463,20.71293 q 4.33526,3.85357 9.87476,6.0212 5.53951,2.16763 11.56071,2.16763 13.00579,0 21.19462,-7.94798 8.18884,-8.18883 8.18884,-20.95378 0,-13.00579 -8.18884,-20.95378 -8.18883,-8.18883 -21.19462,-8.18883 -6.26205,0 -11.80155,2.40848 -5.53951,2.16763 -9.63392,6.26205 z M 242.73647,256 221.7827,235.52792 q -4.33527,-4.33526 -9.87477,-6.5029 -5.29866,-2.16763 -11.5607,-2.16763 -12.76495,0 -20.95378,8.18883 -8.18883,7.94799 -8.18883,20.95378 0,12.76495 8.18883,20.95378 8.18883,7.94798 20.95378,7.94798 6.26204,0 11.80155,-1.92678 5.5395,-2.16763 9.63392,-6.26205 z"
     id="text5"
     style="font-size:240.848px;line-height:1.25;font-family:Blinker;-inkscape-font-specification:Blinker;text-align:center;text-anchor:middle"
     aria-label="∞" /><g
     id="g1"
     clip-path="url(#clipPath7)"><path
       fill="#ffff00"
       stroke="#000000"
       stroke-width="1"
       stroke-linecap="round"
       stroke-linejoin="round"
       d="M 231.96437,24.495951 39.844192,258.09046 139.85266,271.96626 79.761004,480.50407 271.88117,246.90955 171.87271,233.03375 Z"
       id="Lightning Bolt"
       style="fill:none;stroke-width:24;stroke-dasharray:none" /><path
       fill="#ffff00"
       stroke="#000000"
       stroke-width="1"
       stroke-linecap="round"
       stroke-linejoin="round"
       d="M 385.53129,29.995941 193.41111,263.59045 293.41958,277.46625 233.32792,486.00406 425.44809,252.40954 325.43963,238.53374 Z"
       id="path1"
       style="fill:none;stroke-width:24;stroke-dasharray:none"
       clip-path="none"
       transform="translate(-53.566914,-3.499991)" /><path
       fill="#ffff00"
       stroke="#000000"
       stroke-width="1"
       stroke-linecap="round"
       stroke-linejoin="round"
       d="M 385.53129,29.995941 193.41111,263.59045 293.41958,277.46625 233.32792,486.00406 425.44809,252.40954 325.43963,238.53374 Z"
       id="path2-3"
       style="fill:none;stroke-width:24;stroke-dasharray:none"
       clip-path="none"
       transform="translate(46.707717,1.4999895)" /></g></svg>
