<?xml version="1.0" encoding="UTF-8" standalone="no"?>
<svg
   width="512"
   height="512"
   viewBox="0 0 15.36 15.36"
   fill="none"
   version="1.1"
   id="svg1"
   xmlns="http://www.w3.org/2000/svg"
   xmlns:svg="http://www.w3.org/2000/svg">
  <defs
     id="defs1" />
  <path
     d="m 7.1883299,14.360445 c 0.1573744,0.08213 0.2360998,0.123192 0.3452577,0.144453 0.085087,0.01658 0.2077374,0.01658 0.2928254,0 0.109157,-0.02126 0.187883,-0.06232 0.345257,-0.144453 1.455387,-0.759264 5.640792,-3.240535 5.640792,-6.6646677 v -2.903179 c 0,-0.6136744 0,-0.9205039 -0.100266,-1.1842583 C 13.623659,3.3753414 13.479776,3.1674342 13.292966,3.0026021 13.081549,2.8160175 12.794627,2.7082837 12.220782,2.4928084 L 8.110652,0.94951163 C 7.951285,0.88967313 7.87164,0.85975393 7.789618,0.84788753 c -0.07267,-0.010515 -0.146566,-0.010515 -0.219236,0 -0.082021,0.011866 -0.1616667,0.041786 -0.3210341,0.1016241 L 3.1392185,2.4928084 C 2.5653734,2.7082837 2.2784508,2.8160175 2.0670035,3.0026021 1.8802087,3.1674342 1.7363182,3.3753414 1.6477731,3.60834 1.547538,3.8720944 1.547538,4.1789239 1.547538,4.7925983 v 2.903179 c 0,3.4241327 4.1853747,5.9054037 5.6407919,6.6646677 z"
     stroke="#000000"
     stroke-width="2"
     stroke-linecap="round"
     stroke-linejoin="round"
     id="path1"
     style="stroke-width:0.72;stroke-dasharray:none" />
</svg>
