<?xml version="1.0" encoding="UTF-8" standalone="no"?>
<!-- Created with Inkscape (http://www.inkscape.org/) -->

<svg
   version="1.1"
   id="svg89213"
   width="256"
   height="256"
   viewBox="0 0 256 256"
   xml:space="preserve"
   xmlns="http://www.w3.org/2000/svg"
   xmlns:svg="http://www.w3.org/2000/svg"><defs
     id="defs89217" /><g
     id="g1"
     transform="matrix(1.0259991,0,0,1.0260533,-3.3278854,-3.3348252)"
     style="stroke-width:15.5941;stroke-dasharray:none"><g
       id="g6"
       style="stroke-width:15.5941;stroke-dasharray:none" /><g
       id="g9"
       transform="rotate(45,126.58578,124.58579)"
       style="stroke-width:15.5941;stroke-dasharray:none"><path
         id="path9"
         style="fill:none;fill-rule:evenodd;stroke:#000000;stroke-width:15.5941;stroke-linecap:round;stroke-linejoin:round;stroke-dasharray:none;paint-order:markers stroke fill"
         d="M 200.29739,55.702606 173.46516,82.534832 M 82.651988,173.34801 59.702606,196.29739 m 0,-136.594784 22.949392,22.949392 M 173.348,173.348 196.29739,196.29739 M 128.00002,25.756012 v 37.946501 m 1e-5,128.429227 -1e-5,32.45532 m -96.587094,-96.5871 h 32.455341 m 128.263513,0 h 32.45534 M 173.46516,82.53483 a 64.297409,64.297409 0 0 0 -90.930267,0 64.297409,64.297409 0 0 0 0,90.93027 64.297409,64.297409 0 0 0 90.930267,0 64.297409,64.297409 0 0 0 0,-90.93027 z" /></g></g></svg>
