<svg xmlns="http://www.w3.org/2000/svg" width="512" height="512">
  <symbol id="can-run-amok" viewBox="0 0 512 512">
    <path fill="none" stroke="#000" stroke-linejoin="round" stroke-width="24"
      d="m218 158 9 121h58l9-121zm11 146 3 50h48l3-50zm246 23-107 10 23 104-93-55-42 98-43-98-93 54 24-104-107-10 81-70-81-71 107-10-23-104 93 55 42-98 43 98 93-54-24 104 107 10-81 70z" />
  </symbol>
  <symbol id="cant-hide" viewBox="0 0 512 512">
    <path fill="none" stroke="#000" stroke-linejoin="round" stroke-width="24"
      d="m114 371-57 59 34 35 62-66c31 19 65 31 103 31 142 0 236-174 236-174s-35-64-94-115l57-59-34-35-62 66c-31-19-65-31-103-31C114 82 20 256 20 256s35 64 94 115zm47-115c0-55 43-100 95-100 18 0 34 6 48 14L175 307c-9-15-14-33-14-51zm190 0c0 55-43 100-95 100-18 0-34-6-48-14l129-137c9 15 14 33 14 51z" />
  </symbol>
  <symbol id="cantabrian-circle" viewBox="0 0 512 512">
    <path fill="none" stroke="#000" stroke-linejoin="round" stroke-width="24"
      d="M67 478 27 283l204 5v0l-42 49a106 106 0 0 0 166-126 107 107 0 0 0-204 45H30a228 228 0 1 1 80 173z" />
  </symbol>
  <symbol id="chant" viewBox="0 0 512 512">
    <path fill="none" stroke="#000" stroke-linejoin="round" stroke-width="24"
      d="M404 29c-14-3-21 1-29 4L273 67c-5 1-10 2-16 7h0c-5 4-8 9-10 14-3 8-3 13-3 18v232a124 124 0 0 0-129 6 74 74 0 0 0-33 59c0 25 14 46 33 60s44 21 71 21 52-7 71-21c20-14 34-35 34-60V223l8-1 103-34c4-2 9-3 16-8h0c4-4 8-9 10-14v0c3-8 2-13 2-18V72c0-8 2-16-5-28h0c-5-7-12-13-21-15z" />
  </symbol>
  <symbol id="command" viewBox="0 0 512 512">
    <path fill="none" stroke="#000" stroke-linejoin="round" stroke-width="24"
      d="M130 456c61-70 72-116 62-152-27-92-103 105-159 117 24-30-67-415 95-286 84 66 83-22 83-51-2-73 89-63 94-35 44 7 58 27 42 61-24-36-64-23-42 31 14 34 44 19 78-7 163-128 72 257 97 287-57-12-133-209-159-117-11 36 0 82 61 152-84 37-168 37-252 0z" />
  </symbol>
  <symbol id="formed-charge" viewBox="0 0 512 512">
    <path fill="none" stroke="#000" stroke-linecap="round" stroke-linejoin="round" stroke-width="24"
      d="M84 101C-93 297 185 551 384 318l100-33-122-123-23 96-96 94" />
    <ellipse cx="158.5" cy="279.2" fill="none" stroke="#000" stroke-width="24" rx="112.1" ry="111.1" />
  </symbol>
  <symbol id="frighten-all" viewBox="0 0 512 512">
    <path fill="none" stroke="#000" stroke-linejoin="round" stroke-width="24"
      d="M227 382c-21 2-5-72 29-72s50 74 29 72c-11-1-20-7-29-7s-18 6-29 7zM94 257c35 97 101 79 125 29 30-62-136-61-125-29v0m-36 51c-13 18-16 33-9 45 12 15 20 27 35 33 15 5 27-32 49-2 10 12 6 62 30 78 45 29 141 29 186 0 24-16 20-66 30-78 22-30 34 7 49 2 15-6 23-18 35-33 7-12 4-27-9-45C591-65-79-65 58 308zm360-51c-35 97-101 79-125 29-30-62 136-61 125-29v0" />
  </symbol>
  <symbol id="frighten-foot" viewBox="0 0 512 512">
    <defs>
      <clipPath id="clip-foot">
        <path
          d="M21 0h470v511H21Zm356 260c-10 0-20 7-25 18-3 7-4 16-3 27-5 1-10 4-14 8-7 6-8 16-7 24-7 18-9 36-4 54-2 8-1 15 1 21 3 5 7 10 13 13l1 12c-1 13-4 28-1 45l-3 9c0 6 3 13 7 16 2 2 5 3 8 3h16l7-2 4-5v1-1c2 3 4 5 7 6h4v1h14l4-1 8-5c2-3 4-7 4-11 0-5-1-9-4-12 1-5 2-11 1-17 7-2 13-4 17-8 8-5 12-14 13-22 4-30 4-67 2-95-1-7-6-12-10-14l-11-3-4-1-7-8c-3-3-7-4-11-6 2-11 2-21-2-29-4-11-14-18-25-18z" />
      </clipPath>
    </defs>
    <use href="#frighten-all" clip-path="url(#clip-foot)" />
    <path
      d="M388 498h14c6-2 6-7 0-13 2-10 2-20 0-32 22-1 29-9 31-21 4-29 4-65 2-92-1-7-22-8-22-8 0-7-7-13-23-18 17-57-42-56-27 0-19 2-26 9-23 25-7 17-9 34-4 51-7 29 24 35 9-2 4-2 6-12 7-29 0 14-1 29 3 39-5 15-7 28-4 39-1 16-5 31 0 47-5 6-5 10-1 14h16c7-5-4-13-3-19 5-16 6-49 6-49h14l4 40c1 9-4 19 1 28z" />
  </symbol>
  <symbol id="frighten-mounted" viewBox="0 0 512 512">
    <defs>
      <clipPath id="clip-mounted">
        <path
          d="M23 11h466v490H23Zm374 231-9 2c-8 6-18 12-25 23-22 3-40 14-54 28-15 16-25 37-33 59-15 43-18 91-20 118-1 4 2 8 5 11l15 8 6 2h120c7 0 12-5 12-12 1-44-13-68-23-84l-11-18c6 1 12 2 19 0l22 9c6 6 14 9 21 9 8 0 14-3 18-4 3-1 5-2 6-4 11-13 10-28 9-38 0-3-2-5-4-7l-46-38c-4-10-11-17-19-22l2-11-1-19c0-6-5-11-10-12z" />
      </clipPath>
    </defs>
    <use href="#frighten-all" clip-path="url(#clip-mounted)" />
    <path
      d="M282 481h120c1-83-47-81-32-125 8 5 8 17 30 11l27 10c10 13 20 8 30 5 8-11 7-20 6-29l-48-40c-3-12-14-19-26-24 9-10 6-23 6-35-10 7-20 14-24 24-89 6-99 141-103 194z" />
  </symbol>
  <symbol id="heart" viewBox="0 0 512 512">
    <path fill="none" stroke="#000" stroke-linejoin="round" stroke-width="24"
      d="M483 155c0 163-227 329-227 329S29 318 29 155c0-93 71-127 109-127 79 0 118 67 118 67s39-67 118-67c38 0 109 34 109 127z" />
  </symbol>
  <symbol id="hide-anywhere" viewBox="0 0 512 512">
    <path fill="none" stroke="#000" stroke-linejoin="round" stroke-width="24"
      d="M256 431c136 0 226-175 226-175-20-39-107-175-226-175C120 81 30 256 30 256c20 39 107 175 226 175Z" />
    <ellipse cx="256" cy="256" fill="none" stroke="#000" stroke-width="24" rx="90.4" ry="100.9" />
  </symbol>
  <symbol id="hide-forest" viewBox="0 0 512 512">
    <defs>
      <clipPath id="clip-forest-eye">
        <path
          d="M155 16h306v480H155Zm33 298h-9c-45 5-83 37-117 75-8 10-8 24 1 33 34 35 72 63 116 67 45 4 91-18 135-68 8-8 8-21 1-30-41-53-84-79-127-77z" />
      </clipPath>
    </defs>
    <symbol id="little-eye">
      <g fill="none" stroke="#000" stroke-linejoin="round" stroke-width="24">
        <path d="M296 405c-81-105-150-74-216 0 65 66 134 94 216 0z" />
        <ellipse cx="188.1" cy="395.5" rx="47.9" ry="54.1" />
      </g>
      <ellipse cx="188.1" cy="395.5" rx="17.8" ry="20.1" />
    </symbol>
    <use href="#little-eye" />
    <path fill="none" stroke="#000" stroke-linecap="round" stroke-linejoin="round" stroke-width="24"
      d="M284 401v78m48-78v78M222 294l-50 130 57-32 21 39 28-37 30 35 30-35 28 37 21-39 57 32-50-130m-37-113 56 123-54-28-20 38-31-34-31 34-20-38-54 28 56-123m22-12-44 24 71-160 71 160-44-24-27 32z"
      clip-path="url(#clip-forest-eye)" />
  </symbol>
  <symbol id="hide-grass" viewBox="0 0 512 512">
    <defs>
      <clipPath id="clip-grass-eye">
        <path d="M11 11h490v490H11Zm273 396C173 259 78 304-12 407c89 92 183 130 296 0z" />
      </clipPath>
      <clipPath id="clip-grass">
        <path
          d="M160 79h273v422H160Zm-18 484h68v-79c0-193-57-291-182-296 18 17 108 70 114 273v23zm114 0h68v-79C324 31 165 28 119 28c19 19 128 66 137 410v46z" />
      </clipPath>
    </defs>
    <g fill="none" stroke="#000" stroke-linejoin="round" stroke-width="24"
      clip-path="url(#clip-grass-eye)">
      <path
        d="M393 484c0-205 71-276 91-296-46 0-160 51-160 296m-114 0c0-193-57-291-182-296 18 17 108 70 114 273v23" />
      <path d="M252 484C220 350 359 110 416 96c-81-15-256 256-238 388" clip-path="url(#clip-grass)" />
      <path d="M324 484C324 31 165 28 119 28c19 19 128 66 137 410v46" />
    </g>
    <use href="#little-eye" transform="translate(-52, 0)" />
  </symbol>
  <symbol id="power-charge" viewBox="0 0 512 512">
    <defs>
      <clipPath id="clip-mid-arrow">
        <path
          d="M140 111h232v312H140Zm116 73c-5 0-9 2-13 5l-98 88c-14 12-5 34 12 34h28l-19 169c-2 16 15 27 29 19l61-36 61 36c14 8 31-3 29-19l-19-169h28c17 0 26-22 12-34l-98-88c-4-3-8-5-13-5z" />
      </clipPath>
      <clipPath id="clip-top-arrow">
        <path
          d="M140 11h232v315H140Zm116 96c-5 0-9 2-13 5l-99 88c-14 12-5 35 13 35h27v6l-40 36c-14 12-5 34 13 34h19l-11 94c-1 7 2 13 7 17l-7 60c-2 16 15 27 29 19l62-36 62 36c14 8 31-3 29-19l-7-60c5-4 8-10 7-17l-11-94h19c18 0 27-22 13-34l-40-36v-6h27c18 0 27-23 13-35l-99-88c-4-3-8-5-13-5z" />
      </clipPath>
    </defs>
    <g fill="none" stroke="#000" stroke-linejoin="round" stroke-width="24">
      <path d="m328 309-22-192h49l-99-89-99 89h49l-22 192 72-42Z" clip-path="url(#clip-top-arrow)" />
      <path d="m327 406-21-190h49l-99-88-99 88h49l-21 190 71-41Z" clip-path="url(#clip-mid-arrow)" />
      <path d="m328 484-22-192h49l-99-89-99 89h49l-22 192 72-42Z" />
    </g>
  </symbol>
  <symbol id="stakes" viewBox="0 0 512 512">
    <path fill="none" stroke="#000" stroke-linecap="square" stroke-miterlimit="1000"
      stroke-width="24"
      d="m257 167-38 20L45 364h30l159-161Zm95 0-34 20-175 177h27l163-161c11-12 15-24 19-36zm110 0-38 20-175 177h27l163-161Z" />
  </symbol>
  <symbol id="warcry" viewBox="0 0 512 512">
    <g fill="none" stroke="#000" stroke-linejoin="round" stroke-width="24">
      <path
        d="M148 101c-24 36-40 90-40 152 0 60 15 115 39 151-41-27-69-85-69-151 0-67 28-125 70-152zm59 28c-19 30-32 74-32 123s13 94 32 123c-33-22-56-69-56-123s23-101 56-123zm56 32c-15 22-24 55-24 92 0 36 9 69 23 91-24-16-42-51-42-91 0-41 18-76 43-92zm144 181c-33-44-107-36-129-70 25-33 106-34 156-19" />
      <path
        d="M299 485c-14-7-28-23-32-37-2-8-1-15 4-21 5-7 15-14 33-18 85-20 131-89 130-156 0-68-48-135-142-152-16-2-21-7-23-12s0-13 4-23l17-30 9-15" />
    </g>
  </symbol>
</svg>