<svg xmlns="http://www.w3.org/2000/svg" width="512" height="512">
  <symbol id="dog" viewBox="0 0 512 512">
    <path fill="none" stroke="#000" stroke-linejoin="round" stroke-width="24"
      d="M341 142c-36-20-84-26-121-18l-41-89c-9 14-16 28-20 44V49c-13 32-20 71-11 107-38-8-76-10-115-4 34 10 52 24 76 47-26 9-60 30-93 70 36-9 65-12 90-6-37 22-64 56-88 114 35-17 64-19 102-19-23 33-35 77-36 113 25-26 58-60 87-79 3 30 15 58 36 85 0-48 13-96 38-146l2-1 1-1c30-12 61-19 92-20l-15-11c34-7 72-12 118-14l19-35-6-24-24 30-8-27-23 29-7-26-24 32-8-29-24 32 1-41 23-43 8 28 24-31 7 28 24-30 6 27 25-31 8 27 24-32 8-35c-56-4-107 4-155 9z" />
  </symbol>
  <symbol id="pig" viewBox="0 0 512 512">
    <path fill="none" stroke="#000" stroke-linejoin="round" stroke-width="24"
      d="M187 28c50 16 92 39 129 64 25 16 37 35 40 53 9 53 8 68 12 101 51 27 59 60 107 130-11 14-21 26-33 27-28 1-25-33-74-49" />
    <path fill="none" stroke="#000" stroke-linejoin="round" stroke-width="24"
      d="M419 391c-11 17-26 24-43 17-67-29-120-6-190-51" />
    <path fill="none" stroke="#000" stroke-linejoin="round" stroke-width="24"
      d="M207 272c-4 31-11 60-21 85 11 31 17 62 18 92 14 12 24 24 29 35l-52-1-7-56c-72-27-117-81-137-160m209-36s-41-73-6-115c10-13 60 43 60 43" />
  </symbol>
</svg>