<svg xmlns="http://www.w3.org/2000/svg" width="512" height="512">
  <symbol id="animal" viewBox="0 0 512 512">
    <g stroke="#000" stroke-width="24">
      <path d="M286 180c23 36 33 16 53 46 0-16-13-30-3-46-24-17-27 0-50 0z" />
      <path fill="none" stroke-linejoin="round"
        d="M223 64C180 34 107 37 97 90c-17 77-37 103-53 150 56 23 122 102 152 102 17 0 23-89 37-136m89 87c63 73 146 106 146 106s-142 20-182-83c-7-17 26-40 36-23zm77 103c-33 139-183 82-180 39 0-26 34-69 37-46 20 99 73 16 70-20M183 47c56-13 183-60 186 70v0c23 26 20 50 16 76 17 73 24 126 17 169m-106-23-77-63" />
    </g>
  </symbol>
  <symbol id="artillery" viewBox="0 0 512 512">
    <path fill="none" stroke="#000" stroke-linejoin="round" stroke-width="24"
      d="M98 41a65 65 0 0 0-32 57 65 65 0 0 0 64 65 65 65 0 0 0 23-5l1 2 120 123-23 73h-93a34 44 0 0 0-20-8 34 44 0 0 0-19 8H44l-16 17v48l16 16h51a44 34 0 0 0 43 34 44 34 0 0 0 44-34h159a44 34 0 0 0 43 34 44 34 0 0 0 44-34h40l16-16v-48l-17-17h-42V60h-78l-57 174-104-104a65 65 0 0 0 0 0zm264 117v148l-37-37zm-53 161 53 54h-71z" />
  </symbol>
  <symbol id="cavalry" viewBox="0 0 512 512">
    <path fill="none" stroke="#000" stroke-linejoin="round" stroke-width="24"
      d="M87 484h242c3-167-94-164-65-251 16 11 18 33 61 22l55 21c20 24 40 14 60 8 17-20 14-39 12-57l-96-81c-7-24-28-37-52-48 17-19 12-45 11-70-20 14-41 27-47 47C87 89 67 360 59 467Z" />
  </symbol>
  <symbol id="general" viewBox="0 0 512 512">
    <path fill="none" stroke="#000" stroke-linecap="round" stroke-linejoin="round" stroke-width="16"
      d="m288 402-6 2-10 5-1 1 2 2 1 3v4l4 4c10 11 25 14 46 10 5-1 7-2 7-3v-3l2-1 3-1-4-3a70 70 0 0 0-33-20zm-75 0c-10 2-22 9-35 21l-2 2 3 1 2 1-1 3 7 3c22 4 36 1 47-9 3-3 4-5 4-7v-2l1-3 2-2-6-4c-8-4-14-5-22-4zm40-7-5 5-1 4 1 4c0 4 2 8 5 9 5 1 11-2 11-8v-7c-1-6-6-9-11-7zm82-9c-6 2-12 4-17 8l-2 2 1 2c2 2 2 2 1 3-1 2 0 4 3 6 11 11 26 14 48 8 6-2 9-4 8-6l-1-1 3-2 3-1-5-3c-12-9-21-13-29-15Zm-168 0c-7 1-16 5-25 11l-11 8 2 1 2 2-1 1c0 2 2 4 9 6 21 6 37 3 47-8 3-2 4-4 3-6l2-3 1-2-2-2c-9-6-18-9-27-8zm155-33c-23 5-36 13-41 25-3 5-4 15-4 17l1 1c0 3 2 4 6 4 12 0 24-7 32-21 5-6 9-15 9-17v-2l2-6v-3zm-137 0 2 7v1c0 3 4 12 9 20 8 12 20 19 31 19 5 0 6-1 7-4v-1l1-4c-3-21-15-32-44-38l-7-2zm168-29a69 69 0 0 0-19 27c-2 4-2 10-2 13v5c1 6 3 13 5 15 3 2 7-1 13-7 4-3 6-7 8-12l2-10v-2l1-5v-11l-2-19zm-200-6a198 198 0 0 0-2 23c0 11 0 15 2 21 2 8 7 16 14 20 5 3 7 3 9-1 2-2 3-8 3-11l1-6c0-5 0-8-2-13-2-8-7-15-16-24zm227-24c-5 8-9 17-11 24l-1 16c0 9 1 14 5 20 5 8 9 9 13 3 4-4 7-11 7-17v-6c1-11-2-23-10-38l-2-5zm-252 3a72 72 0 0 0-9 42c-1 4 3 13 7 18 2 4 5 5 7 3a35 35 0 0 0 11-22v-4c1-10-2-21-9-35l-4-7v-1zm-21-29c-12 15-17 29-16 40v8c0 4 1 7 3 11l5 4c4 1 13-8 16-16a31 31 0 0 0 2-12l1-8a121 121 0 0 0-7-32zm293-1-5 18a102 102 0 0 0 0 20c-1 1 1 6 2 10 3 7 11 17 15 17 2 0 4-3 6-7 2-5 3-9 3-20l-1-8c-2-10-8-20-16-30l-3-4zm86-17-17 3c-18 4-28 13-33 27l-2 9 1 1h1v3c1 1 3 2 7 2h6l-3 1-13 8c-4 4-8 10-10 17v4h1l-1 2 4 4c1 0 1 0 0 0l-5 1c-12 2-20 8-26 18l-3 4 1 2 1 1v3c1 2 3 4 5 4h1-23c-8 3-14 7-20 15l-2 2 2 1 1 2c-1 1 0 3 1 4l12 6h17c11-2 29-12 29-16l-1-2 2-2 3-2-2-1-14-6h12c7-1 16-6 23-12 9-7 12-11 10-13l2-3 2-3a352 352 0 0 0-14-3l9-3c5-2 12-7 16-13l10-12v-4l2-4 2-3h-3c-3-1-13 0-18 1h-4c3-1 9-4 13-8 7-7 18-23 17-27h-1l2-5 2-3zm-35 44h-1zm-48 71h-1v-1zm1 0h-1zM24 250l2 3 1 4v4c1 4 10 17 16 23a41 41 0 0 0 15 10l-5-1-18-1h-3l2 3 2 4v3c0 3 9 14 15 19l11 7 9 3h2l-2 1a362 362 0 0 1-15 3l5 5-1 2 5 7c13 11 24 17 35 17l6-1-5 2-11 5 2 2 3 2-1 2c0 4 18 14 29 16h17c4-1 9-4 11-6 2-1 2-3 2-4-1-1 0-1 1-2l1-1-2-3c-6-8-14-13-23-14a79 79 0 0 0-20 0l5-2 2-4 1-2 1-1-1-2c-6-12-16-19-30-21l-3-1c2-1 3-2 3-5l1-1v-4c-4-13-12-21-24-25l-2-1a32 32 0 0 0 11-1c1 0 3-2 2-4h1v-5c-2-12-9-22-20-27a89 89 0 0 0-32-9zm386-32a103 103 0 0 0-2 38c0 2 1 8 3 11 2 7 8 13 14 16 3 2 6 1 7-3 3-4 3-8 3-19l-1-9c-3-10-9-20-19-30l-5-5zm-313 3c-15 16-21 29-20 43v7c0 5 2 11 4 12 3 2 6 1 10-3 5-4 8-8 10-13l3-12 1-6-1-17-3-15zm380-23c-20 12-29 23-31 37v14l1 6c1 3 5 3 10 0 8-4 14-11 18-21a66 66 0 0 0 5-21l1-7 1-8-1-2zm-446 3a160 160 0 0 1 0 12l4 17c4 12 11 21 20 25 7 4 11 2 11-5v-10l-1-10c-3-10-10-18-23-27l-11-7zm428-58-9 12a51 51 0 0 0-9 35l4 15c2 3 3 4 6 4 2 0 5-3 8-7 3-3 5-7 6-11 2-5 2-9 2-20l-1-13-4-18zm-409-2-4 14a71 71 0 0 0-1 26c0 4 1 11 3 15 3 4 6 9 10 11 2 2 4 2 6 1 1 0 3-3 4-7 2-5 3-9 3-19l-1-9c-2-8-7-16-15-27zm333-15a239 239 0 0 0 2 11c0 4 6 18 10 24l4 5 9 7a308 308 0 0 1 1 22l3 15 7 13 9 8c6 3 10 4 12 3s3-4 3-6v-9c0-7-1-12-4-17-3-6-11-15-19-21-5-4-7-5-4-4l9 1c2 0 4-2 4-3v-11c-1-8-5-14-11-20a81 81 0 0 0-35-18zm-260 2-16 6c-13 7-21 16-24 27l-1 12 1 2 3 3a30 30 0 0 0 11-1l-5 3c-13 10-20 19-23 30v9a58 58 0 0 0 0 7v2c1 8 5 8 14 3l10-8 6-12a52 52 0 0 0 3-14c1 1 1 0 0 0l1-5v-11l1-8 8-6c5-5 8-11 12-20l3-11 2-8v-2zm310-35c-5 9-9 19-10 27-2 6-1 16 0 21 2 7 6 15 10 17l3 1c2 0 5-3 8-9l3-12v-1h1v-4c1-10-3-24-11-40l-2-4zM75 92c-6 12-9 21-10 29v21c2 6 5 12 8 15l3 2c3 0 7-4 10-10a35 35 0 0 0 3-13h1v-5l-3-21-8-17-2-4Zm300-14 1 11 3 15c3 8 7 14 11 19 6 6 13 10 20 11 5 0 6-1 7-8 1-20-11-35-38-47l-4-2zm-242 1c-22 10-33 20-37 34l-1 10 1 9 1 1c4 2 13-1 19-5l10-10a77 77 0 0 0 10-29l1-7v-5z" />
  </symbol>
  <symbol id="missile" viewBox="0 0 512 512">
    <path fill="none" stroke="#000" stroke-linejoin="round" stroke-width="24"
      d="M370 389H174v-25l156-156c86 86 25 102 40 181zM94 484l63-63h216c11 20 37 50 84 25v0c-124-58 50-131-85-273l25-25c48 29 86-107 87-120-13 1-149 39-120 87l-25 25C197 5 124 179 66 55v0c-25 47 5 73 25 84v216l-63 63h66zm29-342v196h25l156-156c-86-86-102-25-181-40Z" />
  </symbol>
  <symbol id="ship" viewBox="0 0 512 512">
    <path fill="none" stroke="#000" stroke-linejoin="round" stroke-width="24"
      d="M239 28v31H111c30 69 33 138 0 209h128v74H136c-37 0-53-27-62-42H28c-6 89 89 184 198 184h231l27-24c-23-20-50-43-50-87v-69h-36c-12 18-25 38-58 38h-65v-74h123c33-71 30-140 0-209H275V28z" />
  </symbol>
  <symbol id="spear" viewBox="0 0 512 512">
    <path fill="none" stroke="#000" stroke-linecap="round" stroke-linejoin="round" stroke-width="24"
      d="m64 484 286-286c37 11 56-2 134-170-168 78-181 97-170 134L28 448" />
  </symbol>
  <symbol id="sword" viewBox="0 0 512 512">
    <path fill="none" stroke="#000" stroke-linejoin="round" stroke-width="24"
      d="M66 472c36 15 51 0 51-37l37-37 22 15h29l30-29-22-22 234-228 37-103-103 37-227 228-22-15-30 29v30l15 14-37 44c-36 0-58 8-44 52-14 15-7 22 0 29 8 0 15 8 30-7z" />
  </symbol>
</svg>