<?xml version="1.0" encoding="UTF-8" standalone="no"?>
<!-- Created with Inkscape (http://www.inkscape.org/) -->

<svg
   width="256"
   height="512"
   viewBox="0 0 256 512"
   version="1.1"
   id="svg1"
   xmlns="http://www.w3.org/2000/svg"
   xmlns:svg="http://www.w3.org/2000/svg">
  <defs
     id="defs1" />
  <path
     fill="none"
     stroke="#000000"
     stroke-width="24"
     d="m 182.34428,259.14316 c -6.90086,-4.33941 -11.2139,-11.28247 -11.2139,-19.09341 V 92.29861 c 0,-59.015999 -86.260763,-59.015999 -86.260763,0 v 147.75114 c 0,7.81094 -4.313038,14.754 -11.213899,19.09341 C -22.093729,315.55551 17.586222,463.96339 128,463.96339 c 110.41378,0 150.09373,-148.40788 54.34428,-204.82023 z"
     id="path23" />
  <path
     d="m 192.69557,353.74233 c 0,53.80871 -58.65732,85.05247 -101.787699,54.67659 C 70.738664,394.29394 60.114659,370.00647 63.386297,345.50204 66.657935,320.9976 83.275717,300.39186 106.43481,292.12269 V 92.29861 c 0,-29.507999 43.13038,-29.507999 43.13038,0 v 199.82408 c 25.87823,9.5467 43.13038,33.84741 43.13038,61.61964 z"
     id="path24"
     style="stroke-width:1" />
</svg>
