<svg xmlns="http://www.w3.org/2000/svg" width="512" height="512">
  <symbol id="camel" viewBox="0 0 512 512">
    <g fill="none" stroke="#000" stroke-linejoin="round">
      <path stroke-width="12"
        d="M401 169c20 7 30 28 37 45l-16 7c-5-10-14-32-25-35zm-165-23 27 2c5 2 4 10-3 15-25 10-36 14-61-9 20-6 26-8 37-8zM59 68c12 2 25 9 38 18 12 8 22 17 28 26l-15 9c-2-4-12-14-23-21-11-8-24-14-30-14Zm404 207c-46-2-97-5-129-33l45 8c26 12 50 13 87 16" />
      <g stroke-linecap="round" stroke-width="24">
        <path
          d="M466 266c8-5 13-10 15-14 3-4 4-7 3-12-3-11-12-15-21-14-15-38-38-80-68-94-35-9-70 2-101 11 3-13-2-18-7-27-18-19-38-11-55-18-13-8-14-34-27-41-11-4-26-4-40-1s-26 9-33 17l-4 5-6-3C94 59 69 45 44 45v0l-11 1c1 18 2 38 8 54 6 18 17 31 41 34h4l19 27c-12 19-24 39-27 62-3 36 24 68 23 106 0 33-37 56-73 67" />
        <path
          d="M212 467c5-57 7-156 47-205 36 27 75 41 116 45v0c3 19 13 35 29 39 14 3 31 0 42-6 17-8 27-39 17-65" />
      </g>
    </g>
  </symbol>
  <symbol id="horse" viewBox="0 0 512 512">
    <path fill="none" stroke="#000" stroke-linecap="round" stroke-linejoin="round" stroke-width="24"
      d="M329 484c3-167-94-164-65-251 16 11 18 33 61 22l55 21c20 24 40 14 60 8 17-20 14-39 12-57l-96-81c-7-24-28-37-52-48 17-19 12-45 11-70-20 14-41 27-47 47C87 89 67 360 59 467" />
  </symbol>
  <symbol id="elephant" viewBox="0 0 512 512">
    <g stroke="#000" stroke-width="24">
      <path d="M286 180c23 36 33 16 53 46 0-16-13-30-3-46-24-17-27 0-50 0z" />
      <path fill="none" stroke-linejoin="round"
        d="M223 64C180 34 107 37 97 90c-17 77-37 103-53 150 56 23 122 102 152 102 17 0 23-89 37-136m89 87c63 73 146 106 146 106s-142 20-182-83c-7-17 26-40 36-23zm77 103c-33 139-183 82-180 39 0-26 34-69 37-46 20 99 73 16 70-20M183 47c56-13 183-60 186 70 23 26 20 50 16 76 17 73 24 126 17 169m-106-23-77-63" />
    </g>
  </symbol>
  <symbol id="chariot" viewBox="0 0 512 512">
    <defs>
      <clipPath id="clip-wheel">
        <path
          d="M151 11h298v393H151Zm38 246a12 12 0 0 0-1 1c-31 0-60 13-81 34a12 12 0 0 0 0 1 116 116 0 0 0 1 163c21 21 49 33 80 33a12 12 0 0 0 1 1h1c32 0 60-13 81-34a12 12 0 0 0 1 0 116 116 0 0 0 1-164 12 12 0 0 0-1-1c-21-21-50-34-82-34h-1zm12 27v43l13 5 31-31a90 90 0 0 0-44-17zm-24 0c-16 2-30 8-43 17l31 31 12-5zm85 34-30 31 5 12h43c-2-16-8-30-18-43zm-145 1c-9 12-15 26-17 42h43l5-11zm-17 67c2 16 8 30 18 43l30-31-5-12zm137 0-6 13 30 30c10-12 17-27 19-43zm-72 29-30 31c12 9 26 15 42 17v-43l-12-5zm49 1-13 5v42c17-2 31-8 44-17z" />
      </clipPath>
    </defs>
    <g fill="none" stroke="#000" stroke-linejoin="round" stroke-width="24">
      <path
        d="M190 374c3 23 157 13 236-14l3-45 3-74c2-62-5-109-14-142-8-27-18-45-30-55a58 58 0 0 0-42-16c-4 0-9 3-16 11s-14 21-21 36c-15 29-29 64-52 87-12 12-29 15-47 16-8 1-43-8-42 0z"
        clip-path="url(#clip-wheel)" />
      <path
        d="M189 257a12 12 0 0 0-1 1c-31 0-60 13-81 34a12 12 0 0 0 0 1 116 116 0 0 0 1 163c21 21 49 33 80 33a12 12 0 0 0 1 1h1c32 0 60-13 81-34a12 12 0 0 0 1 0 116 116 0 0 0 1-164 12 12 0 0 0-1-1c-21-21-50-34-82-34h-1z" />
    </g>
    <circle cx="190" cy="373.5" r="36" />
  </symbol>
</svg>