<svg xmlns="http://www.w3.org/2000/svg" width="512" height="512">
  <symbol id="cost" viewBox="0 0 512 512">
    <path fill="none" stroke="#000" stroke-linejoin="round" stroke-width="24"
      d="M203 78v189m107 155c48 0 118 1 144-48V78M310 363c48 1 108 0 141-39l3-11M203 137c15 46 83 47 125 50 42-3 112-3 126-50M306 304c49 0 122 2 148-45v-6m-251-60c4 41 63 47 97 52 52 2 115 2 151-38l3-11v-3m0-115c0 28-56 50-126 50-69 0-125-22-125-50s56-50 125-50c70 0 126 22 126 50zM310 317v118c-1 8-6 15-13 20-29 25-70 28-108 29-27 1-54-3-80-9-22-6-46-19-51-41V317m0 58c5 23 29 35 51 41 30 8 62 11 94 9 35-2 72-9 98-32 5-5 9-11 9-18m0-58c0 27-57 50-126 50S58 344 58 317c0-28 57-51 126-51s126 23 126 51z" />
  </symbol>
  <symbol id="upkeep" viewBox="0 0 512 512">
    <defs>
      <clipPath id="clip-arrow">
        <path
          d="M45 15h430v490H45Zm176-7c-25 0-52 4-79 13a24 24 0 0 0 12 46c107-20 178 36 200 104 20 62 1 133-86 175l-2-16c-2-20-26-28-40-15l-95 89a24 24 0 0 0 4 38l114 67c17 10 38-4 36-24l-3-22c72-23 122-60 152-104 33-48 41-105 29-157A248 248 0 0 0 221 8Z" />
      </clipPath>
    </defs>
    <use href="#cost" clip-path="url(#clip-arrow)" />
    <path stroke="#000" stroke-linejoin="round" stroke-width="12"
      d="M221 30c-23 0-47 4-72 12 235-45 340 252 99 337l-6-48-94 88 113 67-5-43c314-82 189-414-35-413z" />
  </symbol>
  <symbol id="defense" viewBox="0 0 512 512">
    <path fill="none" stroke="#000" stroke-linecap="round" stroke-linejoin="round" stroke-width="24"
      d="M95 28v297c0 87 161 159 161 159s161-72 161-159V28Z" />
  </symbol>
  <symbol id="defense-mount" viewBox="0 0 512 512">
    <use href="#defense" />
    <path stroke="#000" stroke-linejoin="round" stroke-width="12"
      d="M273 116c-19 0-41 7-55 10-19-4-39 2-43 21-9 40-18 53-27 77 28 12 63 53 77 53 6 0 9-16 12-35l35 24 5 8-40-32c14 13 27 23 40 32 4 6 9 12 15 16 1 19-26 61-35 10-2-11-19 10-20 23-1 22 74 51 91-19 20 3 36 1 36 1s-15-6-33-18c2-22 0-50-9-87 2-13 3-26-9-38 0-35-19-45-40-46z" />
  </symbol>
  <symbol id="replenish" viewBox="0 0 512 512">
    <path fill="none" stroke="#000" stroke-linejoin="round" stroke-width="24"
      d="M83 413H63v71h386v-71h-20c3-79-23-132-79-157 56-25 82-78 79-157h20V28H63v71h20c-3 79 23 132 79 157-56 25-82 78-79 157Z" />
  </symbol>
  <symbol id="soldiers" viewBox="0 0 512 512">
    <path fill="none" stroke="#000" stroke-linejoin="round" stroke-width="24"
      d="m348 377 7 51c2 18-9 38 1 56h30c13-4 13-13 0-27 5-19 6-40 1-63 48-2 63-18 66-43 9-58 10-131 4-185-1-15-46-16-46-16 0-15-17-27-50-36 38-115-92-114-58 0l-23 4m-25 259 7 51c2 18-10 38 1 56h30c13-4 13-13 0-27 5-19 5-40 1-63 47-2 63-18 66-43 8-58 10-131 4-185-1-15-46-16-46-16 0-15-17-27-50-36 37-115-92-114-59 0l-22 4m-17 366h30c13-4 13-13 0-27 5-19 5-40 0-63 48-2 64-18 67-43 8-58 9-131 4-185-2-15-46-16-46-16 0-15-17-27-50-36 37-115-92-114-59 0-41 4-57 17-50 50-16 34-19 69-9 103-14 58 52 69 21-4 7-5 12-25 14-59 0 28-1 58 6 79-11 30-14 56-8 79-3 31-10 62 1 95-11 11-12 20-3 27h34c16-11-8-25-5-38 9-31 11-98 11-98h31c2 27 6 53 9 80 2 18-9 38 2 56z" />
  </symbol>
  <symbol id="upkeep-castle" viewBox="0 0 512 512">
    <defs>
      <clipPath id="clip-castle">
        <path
          d="M41 9h430v494H41Zm4 69v81H18v140h99v-52c0-8 6-13 13-13s13 5 13 13v52h99V159h-27V78h-53v26h-5V78h-54v26h-5V78Z" />
      </clipPath>
    </defs>
    <g clip-path="url(#clip-castle)">
      <use href="#upkeep" />
    </g>
    <path
      d="M203 171V90h-29v26h-29V90h-30v26H86V90H57v81H30v116h75v-40a25 25 0 0 1 50 0v40h75V171Zm-88 0H91v-25h24zm54 0h-24v-25h24z" />
  </symbol>
</svg>