<svg xmlns="http://www.w3.org/2000/svg" width="512" height="512">
  <symbol id="forest-down" viewBox="0 0 512 512">
    <defs>
      <clipPath id="clip-tree">
        <path
          d="M11 16h306v480H11Zm440 288-56-122 22 12-70-159-71 159 22-12-56 122 20-11-50 130 56-32 21 39 28-37 6 7v77h48v-77l5-7 28 37 21-39 56 32-49-130" />
      </clipPath>
      <clipPath id="clip-arrow-down">
        <path
          d="M11 16h490v480H11Zm365 469c4 0 8-2 11-5l173-183c9-10 2-26-11-26H203c-13 0-20 16-11 26l173 183c3 3 7 5 11 5z" />
      </clipPath>
      <clipPath id="clip-arrow-up">
        <path
          d="M11 16h490v480H11Zm365 131c-4 0-8 2-11 5L192 335c-9 9-2 25 11 25h346c13 0 20-16 11-25L387 152c-3-3-7-5-11-5z" />
      </clipPath>
    </defs>
    <symbol id="trees">
      <g fill="none" stroke="#000" stroke-linecap="round" stroke-linejoin="round" stroke-width="24">
        <path
          d="M324 401v78m48-78v78M262 294l-50 130 57-32 21 39 28-37 30 35 30-35 28 37 21-39 57 32-50-130m-37-113 56 123-54-28-19 38-32-34-31 34-20-38-54 28 56-123m22-12-44 24 71-160 71 160-44-24-27 32z" />
        <path
          d="M140 401v78m48-78v78M78 294 28 424l57-32 21 39 28-37 30 35 30-35 28 37 21-39 57 32-50-130m-37-113 56 123-54-28-19 38-32-34-31 34-20-38-54 28 56-123m22-12-44 24 71-160 71 160-44-24-27 32z"
          clip-path="url(#clip-tree)" />
      </g>
    </symbol>
    <use href="#trees" clip-path="url(#clip-arrow-down)" />
    <path id="arrow-down" fill="none" stroke="#000" stroke-linejoin="round" stroke-width="24"
      d="M268 316h216L376 430z" />
  </symbol>
  <symbol id="forest-up" viewBox="0 0 512 512">
    <use href="#trees" clip-path="url(#clip-arrow-up)" />
    <path id="arrow-up" fill="none" stroke="#000" stroke-linejoin="round" stroke-width="24"
      d="M268 316h216L376 201Z" />
  </symbol>
  <symbol id="sand-down" viewBox="0 0 512 512">
    <defs>
      <clipPath id="clip-sun">
        <path
          d="M11 11h490v490H11Zm366 244a120 120 0 0 0-120-120 120 120 0 0 0-120 120 120 120 0 0 0 120 120 120 120 0 0 0 120-120Z" />
      </clipPath>
    </defs>
    <symbol id="sun">
      <g fill="none" stroke="#000" stroke-linejoin="round" stroke-width="24">
        <path
          d="M297 147h-81l41-119Zm68 149v-80l119 39zm-60 66 56-57 57 111zm-89 3h80l-39 119zm-66-60 57 56-111 57zm-3-89v80L28 257Zm60-66-56 57L94 96Zm155 58-56-57 112-55Z"
          clip-path="url(#clip-sun)" />
        <circle cx="256" cy="256" r="120" />
      </g>
    </symbol>
    <use href="#sun" clip-path="url(#clip-arrow-down)" />
    <use href="#arrow-down" />
  </symbol>
  <symbol id="sand-up" viewBox="0 0 512 512">
    <use href="#sun" clip-path="url(#clip-arrow-up)" />
    <use href="#arrow-up" />
  </symbol>
  <symbol id="scrub-down" viewBox="0 0 512 512">
    <defs>
      <clipPath id="clip-bush">
        <path
          d="M105 58h396v269H105Zm280 318c-4-7-11-14-23-18 10-26 10-47-2-55l-12-4c5-21 4-36-7-43-8-5-19-4-31 2 2-18-3-32-14-37-10-5-22 0-36 12-4-15-11-26-21-27-9-2-21 3-31 15-11-12-21-17-31-15-11 1-18 12-19 27-14-12-28-17-39-12-10 5-15 19-14 37-10-6-22-7-29-2-10 7-14 22-7 43l-12 4c-12 8-14 29-4 55-12 4-19 11-20 18-6 13 5 27 26 39 17 11 38 18 59 18h180c22 0 43-7 61-18 20-12 29-26 26-39z" />
      </clipPath>
    </defs>
    <symbol id="bushes">
      <g fill="none" stroke="#000" stroke-linejoin="round" stroke-width="24">
        <path
          d="M385 376c-3-8-11-14-23-17 11-26 10-48-2-56-3-2-7-4-12-4 6-20 3-36-7-43-8-5-19-4-31 2 2-18-3-32-13-37-10-4-24 0-37 12-3-15-10-25-20-27-10-3-21 3-32 15-10-12-21-18-31-15-10 2-17 12-20 27-13-12-27-16-37-12-10 5-15 19-14 37-12-6-22-7-30-2-10 7-13 23-7 43-5 0-9 2-12 4-13 8-13 30-3 56-12 3-19 9-22 17-4 13 6 27 26 40 18 11 39 16 60 16h181c21 0 42-5 60-16 20-13 29-27 26-40z" />
        <path
          d="M480 251c-3-9-10-14-23-18 11-26 11-48-3-57l-10-2c5-20 3-36-9-43-7-5-17-5-30 2 2-19-3-33-13-37-11-5-23-1-37 11-3-14-10-24-21-26-8-4-20 2-31 14-10-12-21-18-31-14-10 2-17 12-19 26-14-12-28-16-38-11-11 4-16 18-14 37-12-7-23-7-30-2-10 7-13 23-7 43l-12 2c-12 9-14 31-3 57-12 4-19 9-23 18-3 12 7 26 26 40 19 10 40 15 61 15h180c23 0 44-5 61-15 19-14 29-28 26-40z"
          clip-path="url(#clip-bush)" />
      </g>
    </symbol>
    <use href="#bushes" clip-path="url(#clip-arrow-down)" />
    <use href="#arrow-down" />
  </symbol>
  <symbol id="scrub-up" viewBox="0 0 512 512">
    <use href="#bushes" clip-path="url(#clip-arrow-up)" />
    <use href="#arrow-up" />
  </symbol>
  <symbol id="snow-down" viewBox="0 0 512 512">
    <symbol id="snowflake">
      <path fill="none" stroke="#000" stroke-linecap="round" stroke-linejoin="round"
        stroke-width="24"
        d="m50 284 108 30-28 110m-70-52 196-116m-79 192 80-78 81 79m-80 35-2-228m127 164-28-108 110-31m-11 87L256 256m206-28-108-30 28-110m70 52L256 256m79-192-80 78-81-79m80-35 2 228M129 92l28 108-110 31m11-87 198 112" />
    </symbol>
    <use href="#snowflake" clip-path="url(#clip-arrow-down)" />
    <use href="#arrow-down" />
  </symbol>
  <symbol id="snow-up" viewBox="0 0 512 512">
    <use href="#snowflake" clip-path="url(#clip-arrow-up)" />
    <use href="#arrow-up" />
  </symbol>
</svg>