<?xml version="1.0" encoding="UTF-8" standalone="no"?>
<!-- Uploaded to: SVG Repo, www.svgrepo.com, Generator: SVG Repo Mixer Tools -->

<svg
   width="512"
   height="512"
   viewBox="0 0 23.04 23.04"
   aria-hidden="true"
   role="img"
   class="iconify iconify--twemoji"
   preserveAspectRatio="xMidYMid"
   version="1.1"
   id="svg5"
   xml:space="preserve"
   xmlns="http://www.w3.org/2000/svg"
   xmlns:svg="http://www.w3.org/2000/svg"><defs
     id="defs5" /><path
     id="path5"
     style="fill:none;fill-rule:evenodd;stroke:#000000;stroke-width:1.08;stroke-linecap:round;stroke-linejoin:round;stroke-miterlimit:16;stroke-dasharray:none;paint-order:markers fill stroke"
     d="m 10.264348,17.210702 c -0.8986827,0.08551 -0.212069,-3.276168 1.255652,-3.276161 1.467758,7e-6 2.154335,3.361647 1.255652,3.276176 C 12.308057,17.166547 11.928706,16.86724 11.52,16.86724 c -0.408736,-8e-6 -0.788058,0.299311 -1.255652,0.343477 z M 4.5500303,11.584661 c 1.503431,4.332788 4.352416,3.528643 5.393513,1.274052 1.2825727,-2.777525 -5.892613,-2.712421 -5.393513,-1.274052 v 0 m -1.547965,2.260905 c -0.57735,0.808033 -0.711809,1.492939 -0.403379,2.05471 0.529876,0.669505 0.837972,1.206189 1.494792,1.454457 0.664187,0.251019 1.164797,-1.411812 2.13542,-0.09239 0.414689,0.563726 0.239006,2.793251 1.281241,3.509167 1.957304,1.344564 6.0621637,1.344738 8.0197207,0 1.042221,-0.715916 0.866523,-2.94542 1.281242,-3.509167 0.970623,-1.319426 1.471248,0.343405 2.135419,0.09239 0.65682,-0.248268 0.964894,-0.784945 1.494792,-1.454457 0.308431,-0.561771 0.173971,-1.246677 -0.403378,-2.05471 5.921893,-16.7807495 -22.9577652,-16.7807539 -17.0358697,0 z M 18.48997,11.584676 c -1.503431,4.332788 -4.352416,3.528643 -5.393513,1.274051 -1.282574,-2.777525 5.892612,-2.712421 5.393513,-1.274051 v 0"
     clip-path="none" /></svg>
