<?xml version="1.0" encoding="UTF-8" standalone="no"?>
<!-- Created with Inkscape (http://www.inkscape.org/) -->

<svg
   version="1.1"
   id="svg89213"
   width="512"
   height="512"
   viewBox="0 0 512 512"
   xml:space="preserve"
   xmlns="http://www.w3.org/2000/svg"
   xmlns:svg="http://www.w3.org/2000/svg"><defs
     id="defs89217"><clipPath
       clipPathUnits="userSpaceOnUse"
       id="clipPath8"><path
         id="path8"
         style="display:none;fill:none;stroke:#000000;stroke-width:1.26316;stroke-linecap:round;stroke-linejoin:round;stroke-dasharray:none;stroke-opacity:1"
         d="M 479,235.47368 V 232 231 c -0.28,-8.91 -4.23,-11.23 -5,-12 5.5,0.22 8,4.52 8,13 v 3.47368 z m 5,0 V 232 230 c -0.39,-15.12 -5.18,-17.18 -6,-18 2,0 9,0.12 9,20 v 3.47368 z" /><path
         id="lpe_path-effect8"
         style="display:block;fill:none;stroke:#000000;stroke-width:1.26316;stroke-linecap:round;stroke-linejoin:round;stroke-dasharray:none;stroke-opacity:1"
         class="powerclip"
         d="m 475.00839,209.44312 h 21.5178 v 28.08327 h -21.5178 z M 479,235.47368 h 3 V 232 c 0,-8.48 -2.5,-12.78 -8,-13 0.77,0.77 4.72,3.09 5,12 v 1 z m 5,0 h 3 V 232 c 0,-19.88 -7,-20 -9,-20 0.82,0.82 5.61,2.88 6,18 v 2 z" /></clipPath><clipPath
       clipPathUnits="userSpaceOnUse"
       id="clipPath15"><path
         id="path15"
         style="display:none;fill:none;fill-rule:evenodd;stroke:#000000;stroke-width:24;stroke-linecap:round;stroke-linejoin:round;stroke-miterlimit:6;stroke-dasharray:none;stroke-opacity:1;paint-order:markers stroke fill"
         d="m 485.23112,228.61433 c -4.8878,-6.46126 -9.04927,-4.52997 -12.98583,0 3.89473,4.03151 8.03617,5.72422 12.98583,0 z" /><path
         id="lpe_path-effect15"
         style="fill:none;fill-rule:evenodd;stroke:#000000;stroke-width:24;stroke-linecap:round;stroke-linejoin:round;stroke-miterlimit:6;stroke-dasharray:none;stroke-opacity:1;paint-order:markers stroke fill"
         class="powerclip"
         d="m 468.47369,206.47361 h 31.05262 v 31.05278 h -31.05262 z m 16.75743,22.14072 c -4.8878,-6.46126 -9.04927,-4.52997 -12.98583,0 3.89473,4.03151 8.03617,5.72422 12.98583,0 z" /></clipPath></defs><title
     id="title1">grass</title><g
     id="g4"
     transform="matrix(22.794139,0,0,22.799848,-10776.364,-4805.5663)"
     style="stroke-width:0.0438656"
     clip-path="url(#clipPath15)"><path
       d="m 490,232 c 0,-9 3.12,-12.12 4,-13 -2,0 -7,2.25 -7,13"
       id="path4"
       style="fill:none;stroke:#000000;stroke-width:1.05277;stroke-linecap:round;stroke-linejoin:round;stroke-dasharray:none;stroke-opacity:1" /><path
       d="m 482,232 c 0,-8.48 -2.5,-12.78 -8,-13 0.77,0.77 4.72,3.09 5,12 v 1"
       id="path3"
       style="fill:none;stroke:#000000;stroke-width:1.05277;stroke-linecap:round;stroke-linejoin:round;stroke-dasharray:none;stroke-opacity:1" /><path
       d="m 483.80312,232 c -1.38238,-5.88241 4.7098,-16.39 7.19688,-17 -3.51468,-0.66385 -11.22082,11.19118 -10.40135,17"
       id="path2"
       style="fill:none;stroke:#000000;stroke-width:1.05277;stroke-linecap:round;stroke-linejoin:round;stroke-dasharray:none;stroke-opacity:1"
       clip-path="url(#clipPath8)" /><path
       d="m 487,232 c 0,-19.88 -7,-20 -9,-20 0.82,0.82 5.61,2.88 6,18 v 2"
       id="path1"
       style="fill:none;stroke:#000000;stroke-width:1.05277;stroke-linecap:round;stroke-linejoin:round;stroke-dasharray:none;stroke-opacity:1" /></g><g
     id="g12"
     transform="translate(-204.9068,136.56036)"><path
       id="path10"
       style="fill:none;fill-rule:evenodd;stroke:#000000;stroke-width:24;stroke-linecap:round;stroke-linejoin:round;stroke-miterlimit:6;stroke-dasharray:none;stroke-opacity:1;paint-order:markers stroke fill"
       d="m 448.96853,268.73408 c -81.30174,-105.54657 -150.52185,-73.99838 -216.00098,0 64.78324,65.85588 133.67028,93.50678 216.00098,0 z" /><ellipse
       style="fill:#000000;fill-opacity:1;fill-rule:evenodd;stroke:none;stroke-width:24;stroke-linecap:round;stroke-linejoin:round;stroke-miterlimit:6;stroke-dasharray:none;stroke-opacity:1;paint-order:markers stroke fill"
       id="path11"
       cx="340.96802"
       cy="258.90625"
       rx="17.810305"
       ry="20.12627" /><ellipse
       style="fill:none;fill-opacity:1;fill-rule:evenodd;stroke:#000000;stroke-width:24;stroke-linecap:round;stroke-linejoin:round;stroke-miterlimit:6;stroke-dasharray:none;stroke-opacity:1;paint-order:markers stroke fill"
       id="path12"
       cx="340.96802"
       cy="258.90625"
       rx="47.901955"
       ry="54.130886" /></g></svg>
