<?xml version="1.0" encoding="UTF-8" standalone="no"?>
<!-- Created with Inkscape (http://www.inkscape.org/) -->

<svg
   version="1.1"
   id="svg89213"
   width="512"
   height="512"
   viewBox="0 0 512 512"
   xml:space="preserve"
   xmlns="http://www.w3.org/2000/svg"
   xmlns:svg="http://www.w3.org/2000/svg"><defs
     id="defs89217"><clipPath
       clipPathUnits="userSpaceOnUse"
       id="clipPath21"><path
         id="path21"
         style="display:none;fill:none;fill-rule:evenodd;stroke:#000000;stroke-width:24;stroke-linecap:round;stroke-linejoin:round;stroke-miterlimit:6;stroke-dasharray:none;stroke-opacity:1;paint-order:markers stroke fill"
         d="m 284.0616,406.80567 c -111.4132,-147.31574 -206.270322,-103.28262 -296.000818,0 88.777017,91.91782 183.177578,130.51135 296.000818,0 z" /><path
         id="lpe_path-effect21"
         style="display:block;fill:none;fill-rule:evenodd;stroke:#000000;stroke-width:24;stroke-linecap:round;stroke-linejoin:round;stroke-miterlimit:6;stroke-dasharray:none;stroke-opacity:1;paint-order:markers stroke fill"
         class="powerclip"
         d="M 103.1268,16.366721 H 408.87319 V 495.63329 H 103.1268 Z M 284.0616,406.80567 c -111.4132,-147.31574 -206.270322,-103.28262 -296.000818,0 88.777017,91.91782 183.177578,130.51135 296.000818,0 z" /></clipPath></defs><title
     id="title1">grass</title><g
     id="g12"
     transform="translate(-204.9068,136.56036)"><path
       id="path10"
       style="fill:none;fill-rule:evenodd;stroke:#000000;stroke-width:24;stroke-linecap:round;stroke-linejoin:round;stroke-miterlimit:6;stroke-dasharray:none;stroke-opacity:1;paint-order:markers stroke fill"
       d="m 448.96853,268.73408 c -81.30174,-105.54657 -150.52185,-73.99838 -216.00098,0 64.78324,65.85588 133.67028,93.50678 216.00098,0 z" /><ellipse
       style="fill:#000000;fill-opacity:1;fill-rule:evenodd;stroke:none;stroke-width:24;stroke-linecap:round;stroke-linejoin:round;stroke-miterlimit:6;stroke-dasharray:none;stroke-opacity:1;paint-order:markers stroke fill"
       id="path11"
       cx="340.96802"
       cy="258.90625"
       rx="17.810305"
       ry="20.12627" /><ellipse
       style="fill:none;fill-opacity:1;fill-rule:evenodd;stroke:#000000;stroke-width:24;stroke-linecap:round;stroke-linejoin:round;stroke-miterlimit:6;stroke-dasharray:none;stroke-opacity:1;paint-order:markers stroke fill"
       id="path12"
       cx="340.96802"
       cy="258.90625"
       rx="47.901955"
       ry="54.130886" /></g><g
     id="g30"
     clip-path="url(#clipPath21)"><path
       id="path8-9"
       style="font-variation-settings:normal;fill:none;fill-opacity:1;fill-rule:evenodd;stroke:#000000;stroke-width:24;stroke-linecap:round;stroke-linejoin:round;stroke-miterlimit:4;stroke-dasharray:none;stroke-dashoffset:0;stroke-opacity:1;paint-order:markers stroke fill"
       d="M 228.73467,169.34446 184.85036,193.45423 256,33.364967 327.14964,193.45423 283.26532,169.34446 256,201.16933 Z" /><path
       style="font-variation-settings:normal;fill:none;fill-opacity:1;fill-rule:evenodd;stroke:#000000;stroke-width:24;stroke-linecap:round;stroke-linejoin:round;stroke-miterlimit:4;stroke-dasharray:none;stroke-dashoffset:0;stroke-opacity:1;paint-order:markers stroke fill"
       d="m 305.20749,181.39934 56.0116,122.79174 -53.89,-28.67196 -19.85412,38.70719 L 256,279.81996 l -31.47498,34.40635 -19.85411,-38.70719 -53.89,28.67196 56.01161,-122.79174"
       id="path9" /><path
       id="path12-1"
       style="font-variation-settings:normal;fill:none;fill-opacity:1;fill-rule:evenodd;stroke:#000000;stroke-width:24;stroke-linecap:round;stroke-linejoin:round;stroke-miterlimit:4;stroke-dasharray:none;stroke-dashoffset:0;stroke-opacity:1;paint-order:markers stroke fill"
       d="m 170.32577,293.79233 -50.20009,130.08313 56.95089,-31.93719 21.20064,39.50124 27.85197,-36.97989 29.87082,34.45854 29.87081,-34.45854 27.85198,36.97989 21.20063,-39.50124 56.95089,31.93719 -50.20008,-130.08313" /><path
       style="font-variation-settings:normal;fill:none;fill-opacity:1;fill-rule:evenodd;stroke:#000000;stroke-width:24;stroke-linecap:round;stroke-linejoin:round;stroke-miterlimit:4;stroke-dasharray:none;stroke-dashoffset:0;stroke-opacity:1;paint-order:markers stroke fill"
       d="m 280.13047,401.08161 v 77.55168"
       id="path13" /><path
       style="font-variation-settings:normal;fill:none;fill-opacity:1;fill-rule:evenodd;stroke:#000000;stroke-width:24;stroke-linecap:round;stroke-linejoin:round;stroke-miterlimit:4;stroke-dasharray:none;stroke-dashoffset:0;stroke-opacity:1;paint-order:markers stroke fill"
       d="m 231.86952,401.08161 v 77.55168"
       id="path14" /></g></svg>
