<?xml version="1.0" encoding="UTF-8" standalone="no"?>
<svg
   viewBox="0 0 512 512"
   version="1.1"
   id="svg1"
   width="512"
   height="512"
   xml:space="preserve"
   xmlns="http://www.w3.org/2000/svg"
   xmlns:svg="http://www.w3.org/2000/svg"><defs
     id="defs1" /><path
     style="fill:none;stroke:#000000;stroke-width:24;stroke-linejoin:round;stroke-dasharray:none;stroke-opacity:1"
     d="m 147.93405,100.64928 c -24.31052,36.22094 -39.93576,90.59975 -39.93727,151.89904 -0.002,60.94511 15.42047,115.67606 39.48949,151.89904 -41.21467,-27.38178 -69.663318,-85.20249 -69.661298,-151.89803 5e-4,-66.93964 28.648368,-124.63599 70.109078,-151.89903 z"
     id="path5" /><path
     style="fill:none;stroke:#000000;stroke-width:24;stroke-linejoin:round;stroke-dasharray:none;stroke-opacity:1"
     d="m 207.33462,129.36214 c -19.64664,29.27497 -32.27583,73.2226 -32.27684,122.76573 -5e-4,49.25622 12.46518,93.4877 31.9151,122.76421 -33.3095,-22.1303 -56.30185,-68.85938 -56.29985,-122.76374 7.2e-4,-54.10107 23.15336,-100.73127 56.66183,-122.76573 z"
     id="path4" /><path
     style="fill:none;stroke:#000000;stroke-width:24;stroke-linejoin:round;stroke-dasharray:none;stroke-opacity:1"
     d="m 262.75843,160.85447 c -14.67434,21.86577 -24.10675,54.68864 -24.10776,91.69031 -7.1e-4,36.78762 9.31015,69.82401 23.83558,91.68673 -24.87703,-16.52864 -42.04934,-51.42868 -42.04885,-91.68725 0.002,-40.40635 17.29207,-75.23351 42.32103,-91.68979 z"
     id="path2" /><path
     style="fill:none;stroke:#000000;stroke-width:24;stroke-linejoin:round;stroke-dasharray:none;stroke-opacity:1"
     d="M 406.53245,341.72483 C 373.61464,298.1166 300.21808,305.90487 277.66846,272.00571 303.22062,239.31534 384.31321,238.11214 434.16789,252.64414"
     id="path1" /><path
     style="fill:none;stroke:#000000;stroke-width:24;stroke-linejoin:round;stroke-dasharray:none;stroke-opacity:1"
     d="m 298.67599,485.44356 c -13.21633,-7.17274 -27.943,-23.00985 -31.59261,-37.40222 -2.00139,-7.89996 -1.26584,-14.85204 3.74267,-21.44178 5.00701,-6.59026 15.08339,-13.12344 33.01693,-17.36492 85.52351,-20.22534 130.99203,-88.76464 130.32491,-156.5905 -0.66664,-67.82432 -47.86637,-134.77619 -142.17931,-151.367 -15.6992,-2.76208 -21.04832,-7.635977 -22.87362,-12.662757 -1.82681,-5.027289 -0.26966,-13.064325 4.10039,-22.535912 4.37057,-9.472096 11.07708,-19.898688 16.93535,-29.696423 3.23654,-5.412553 6.22957,-10.496919 8.44781,-15.544591"
     id="path1-7" /></svg>
