<?xml version="1.0" encoding="UTF-8" standalone="no"?>
<svg
   version="1.1"
   id="Layer_1"
   x="0px"
   y="0px"
   viewBox="0 0 512 512"
   enable-background="new 0 0 1548.1006 1657.1896"
   xml:space="preserve"
   width="512"
   height="512"
   xmlns="http://www.w3.org/2000/svg"
   xmlns:svg="http://www.w3.org/2000/svg"><defs
   id="defs11" />

<path
   id="path27"
   style="fill:none;stroke:#000000;stroke-width:16;stroke-dasharray:none;stroke-opacity:1"
   d="m 287.59097,402.40436 c -1.57054,0.26433 -4.07594,0.94401 -5.60912,1.5104 -2.84194,1.01953 -8.45105,3.81378 -9.98422,5.02213 l -0.89745,0.67968 1.53315,2.49218 c 0.82267,1.39713 1.3462,2.52994 1.15921,2.52994 -0.67307,0 -0.41132,3.02082 0.41135,4.56898 0.41134,0.83075 1.98188,2.7565 3.44027,4.2669 10.43293,10.64841 25.50275,13.63146 46.77999,9.25128 4.22554,-0.8685 6.43178,-1.85024 7.03009,-3.17186 0.52352,-1.1328 0.11214,-2.71873 -0.74787,-2.90754 -0.33656,-0.11323 0.67308,-0.5664 2.28102,-1.09506 l 2.91675,-0.90624 -3.47765,-3.05858 C 318.88983,409.7676 309.16738,404.21684 298.697,402.3666 c -3.96375,-0.67969 -7.25445,-0.67969 -11.10603,0.0377 z m -74.5638,0 c -10.32079,1.73696 -21.95035,8.57159 -34.96349,20.42831 l -2.01928,1.888 2.76717,0.86848 c 1.53316,0.4909 2.50541,0.94402 2.16885,1.01953 -0.86006,0.22658 -1.27139,1.81251 -0.74788,2.94531 0.59831,1.32162 2.80456,2.30336 7.03009,3.17186 21.23984,4.34242 36.19747,1.39713 46.74262,-9.17574 2.58018,-2.60546 4.11333,-4.90883 4.26292,-6.45701 0.18696,-1.58592 0,-2.49217 -0.44872,-2.22785 -0.44874,0.30208 -0.44874,0.26432 1.45837,-2.7565 0.67309,-1.09504 1.23399,-2.11458 1.23399,-2.34115 0,-0.56639 -1.83231,-1.73697 -5.49694,-3.58722 -7.74057,-3.92705 -14.4341,-5.09764 -21.9877,-3.77602 z m 39.97426,-7.36327 c -1.79491,0.52867 -4.48729,3.13412 -5.19778,5.05989 -0.48612,1.28384 -0.59828,2.26562 -0.41133,4.22915 0.14965,1.39713 0.22437,3.17187 0.22437,3.88931 -0.0748,3.58722 2.31844,7.28774 5.42215,8.30727 5.16037,1.73697 10.6573,-1.96354 10.91906,-7.36327 0.0373,-1.05729 0.29916,-2.68097 0.52354,-3.66274 0.37393,-1.39714 0.37393,-2.26561 0,-3.81379 -1.15923,-5.24868 -6.24482,-8.19397 -11.48001,-6.64582 z m 81.85568,-8.57155 c -5.7961,1.1328 -11.85393,3.81376 -16.67777,7.401 l -2.50542,1.888 1.49578,2.03906 c 1.38358,1.85025 1.49576,2.11458 1.08442,3.02083 -0.78526,1.73697 0.14965,3.81379 2.99155,6.64581 10.76949,10.83719 26.10106,13.17832 47.49048,7.32549 6.73093,-1.85027 8.97459,-3.36066 8.45105,-5.77732 -0.11213,-0.60418 -0.5235,-1.17056 -0.86005,-1.24608 -0.33654,-0.0756 0.6731,-0.67969 2.28102,-1.32162 l 2.95415,-1.13282 -4.71166,-3.47393 c -11.36781,-8.42055 -20.56674,-13.10283 -29.16738,-14.9153 -4.22554,-0.86851 -9.61029,-1.0573 -12.82617,-0.45312 z M 167.29419,386.3563 c -7.21706,0.94401 -16.26643,4.68228 -24.94186,10.34632 -4.03856,2.60545 -11.74175,8.23173 -11.77913,8.5338 0,0.15112 1.04703,0.60418 2.35581,1.09506 2.46803,0.90626 3.44027,1.51042 2.43062,1.51042 -0.37394,0 -0.71048,0.45312 -0.86006,1.13281 -0.52351,2.45441 1.68274,3.96481 8.45107,5.81508 21.38941,5.85283 36.72099,3.5117 47.49049,-7.32549 2.80456,-2.79426 3.77681,-4.94662 3.02892,-6.57029 -0.33655,-0.79296 -0.22436,-1.17058 1.08443,-2.90754 0.78527,-1.09507 1.45837,-2.07681 1.45837,-2.19011 0,-0.11323 -0.93485,-0.90624 -2.05667,-1.73697 -8.56325,-6.30596 -17.53783,-8.91141 -26.66199,-7.70309 z m 154.32542,-33.83321 c -22.77302,5.21092 -35.15047,12.98955 -40.98394,25.79027 -2.20624,4.79557 -4.11336,14.23563 -3.29068,16.19917 0.18697,0.37759 0.37395,1.09504 0.44873,1.58592 0.48611,2.83201 2.20624,3.81379 6.69354,3.81379 11.81653,0 23.37131,-7.40101 31.93457,-20.50384 4.11333,-6.23042 8.30148,-14.91529 8.52583,-17.55851 0.11214,-1.51041 0.0748,-2.0013 -0.26176,-1.8125 -0.41133,0.26433 -0.11213,-0.56641 1.98189,-5.77733 1.04703,-2.56769 1.15923,-3.05856 0.71049,-3.0208 -0.18696,0 -2.76717,0.60417 -5.75867,1.28383 z m -136.7876,0.64193 c 1.94449,4.87108 2.58019,6.7591 2.20625,6.53252 -0.22435,-0.1511 -0.37393,0.45312 -0.37393,1.58595 0,2.94529 4.30031,11.81895 9.42331,19.40876 8.03971,11.97001 19.78147,19.21999 31.11188,19.21999 4.63686,0 6.20743,-1.01953 6.73093,-4.22915 0.0373,-0.41536 0.29915,-0.86849 0.56091,-1.01953 0.37394,-0.26433 0.41134,-1.01953 0.0748,-3.70051 -2.46801,-20.57933 -14.99503,-31.56758 -43.52671,-38.21339 -3.62724,-0.86848 -6.69355,-1.54816 -6.80574,-1.54816 -0.11218,0 0.18698,0.90623 0.59831,1.96352 z m 168.01165,-29.6418 c -10.80689,10.7239 -16.26642,18.57805 -19.22057,27.64052 -1.1966,3.776 -2.05667,9.85543 -1.68273,12.46087 0.11213,0.94402 0.29915,3.4362 0.37393,5.51301 0.26177,6.34372 2.46803,13.1028 4.82384,14.61323 2.87936,1.81249 7.32926,-0.41536 12.97576,-6.41926 3.51504,-3.70049 5.83348,-7.51428 7.66578,-12.49863 1.38359,-3.73828 2.5054,-8.83592 2.20626,-9.89322 -0.14965,-0.41535 -0.0748,-0.71743 0.18696,-0.71743 0.29915,0 0.37392,-0.30209 0.26175,-0.79297 -0.11213,-0.41535 0.0373,-2.90753 0.37394,-5.55076 0.37394,-3.36065 0.48612,-6.49475 0.33655,-10.45959 -0.26176,-7.2122 -1.79491,-19.44653 -2.43062,-19.44653 -0.11213,0 -2.76716,2.49217 -5.87087,5.55076 z m -200.02098,-5.0977 c -0.0747,0.26432 -0.52351,2.94529 -1.00964,5.96613 -0.71049,4.64449 -0.82268,7.09891 -0.86006,16.2369 -0.0747,11.66793 0.26175,15.14188 1.8697,20.95695 2.468,8.76038 7.62839,16.23693 14.50891,20.84367 4.48728,3.02083 7.06747,2.64323 9.16155,-1.28385 1.34619,-2.60544 2.76716,-7.74086 2.91673,-10.68614 0.0374,-1.1328 0.18696,-4.11588 0.33655,-6.60805 0.33655,-5.09766 -0.0374,-8.04294 -1.53315,-12.80074 -2.46802,-7.85414 -7.40404,-15.33067 -16.04207,-24.35536 -5.49693,-5.73958 -9.12416,-8.9492 -9.34852,-8.26951 z m 226.83254,-24.58193 c -4.63687,8.26949 -8.60065,17.59628 -10.32077,24.24209 -1.45838,5.7018 -1.75753,8.8359 -1.53315,16.08588 0.26176,8.94918 1.45835,13.48042 5.0856,19.52206 5.08558,8.49604 8.71282,9.47782 13.27489,3.66273 3.51504,-4.56899 6.39438,-11.81895 6.76834,-17.10539 0.0748,-1.35936 0.29913,-4.1914 0.48611,-6.30598 0.97226,-10.87495 -2.09406,-22.65614 -9.94682,-38.40217 l -2.24365,-4.53123 z M 127.58166,297.242 c -7.06748,14.53772 -9.4981,23.86451 -9.27372,35.53243 0.0747,3.24737 0.22436,5.70178 0.37393,5.47523 0.18696,-0.26432 0.18696,0.0756 0.0747,0.71745 -0.71049,3.7005 2.87935,13.36713 6.76833,18.38924 2.84195,3.625 5.27257,4.53123 7.85276,2.90756 2.61759,-1.62371 7.29185,-9.06247 8.93719,-14.16011 0.74788,-2.37891 1.72012,-7.43877 1.49576,-7.81638 -0.11218,-0.1511 0,-2.03905 0.22436,-4.19139 0.97225,-9.70438 -1.90709,-20.88143 -8.97458,-34.81497 -1.57055,-3.13411 -3.25327,-6.23045 -3.66462,-6.94789 l -0.78527,-1.32159 z M 106.5288,268.05332 c -11.4052,15.40618 -16.565584,28.58453 -15.780307,40.2902 0.112176,2.07682 0.299153,5.28644 0.373941,7.17446 0.18696,4.26691 1.121822,7.7031 3.10371,11.06375 1.645338,2.79426 3.290678,4.45572 4.786438,4.83332 3.814198,0.98177 12.676608,-8.23173 15.780308,-16.3502 1.2714,-3.28513 2.50541,-8.87365 2.16886,-9.74214 -0.11218,-0.33984 -0.0374,-1.47266 0.18698,-2.5677 0.18697,-1.05729 0.37393,-4.41795 0.37393,-7.43877 0.0374,-5.85285 -0.5609,-10.72393 -2.13146,-17.18092 -1.234,-5.17316 -4.37511,-15.29292 -4.71165,-15.29292 -0.18698,0 -2.05668,2.34115 -4.15074,5.21092 z m 292.98269,-0.7552 c -1.72013,5.28644 -3.44027,12.04552 -4.41251,17.25644 -0.67309,3.54946 -1.04703,19.59758 -0.44873,19.21998 0.14966,-0.11324 0.18696,0.30208 0.0748,0.944 -0.29916,1.51041 0.78527,6.75909 2.16885,10.34631 2.80456,7.36326 11.10603,16.50125 14.95763,16.50125 2.13146,0 4.63688,-2.64323 6.61875,-6.98565 1.98188,-4.22917 2.50542,-8.45831 2.43061,-19.25774 -0.0373,-4.53123 -0.18695,-6.2682 -0.86005,-8.79816 -2.468,-9.51557 -7.70317,-19.44652 -15.81771,-30.01941 -1.45836,-1.92576 -2.76716,-3.58722 -2.87933,-3.73825 -0.14964,-0.15111 -0.97225,1.88801 -1.8323,4.53123 z m 86.30555,-17.63406 c -8.67543,1.35937 -12.48963,2.07682 -16.64037,3.17187 -18.09875,4.60677 -28.45689,13.06506 -32.9068,26.88531 -0.97224,2.98307 -2.13145,9.13798 -1.79491,9.62887 0.0748,0.18879 0.52351,0.30209 0.97223,0.33985 0.44874,0 0.59831,0.11323 0.37394,0.22655 -0.63568,0.22657 -0.59829,1.4349 0.0748,2.71874 0.93483,1.85027 2.80455,2.49218 7.47881,2.49218 2.28104,0 4.63687,-0.15111 5.23516,-0.30209 0.63571,-0.18878 -0.48611,0.33984 -2.468,1.17059 -5.08558,2.07681 -9.34852,4.75778 -12.75139,7.96742 -4.78642,4.53123 -8.11451,9.93093 -10.17119,16.57674 -1.19659,3.8138 -1.19659,4.15364 -0.11213,4.60676 0.44873,0.18879 0.63571,0.33983 0.41133,0.33983 -0.29916,0.0377 -0.33654,0.45312 -0.18696,1.28386 0.56092,2.49217 1.53317,3.58722 3.51506,4.04034 1.15921,0.26433 1.15921,0.26433 0.26175,0.45313 -0.52351,0.11324 -2.69238,0.49088 -4.86124,0.83073 -12.04089,1.92577 -20.67891,7.77861 -26.69938,18.08716 -0.93485,1.58593 -1.94448,3.47396 -2.24362,4.1914 -0.52354,1.24607 -0.52354,1.24607 0.86005,2.03906 0.74787,0.45312 1.15921,0.83072 0.97225,0.83072 -0.56093,0 -0.63571,1.47264 -0.14964,2.94529 0.52352,1.58594 2.84196,3.32291 4.86124,3.66276 0.82266,0.1511 1.45837,0.33983 1.34617,0.41535 -0.0748,0.0756 -2.05667,-0.11323 -4.41249,-0.45311 -5.7587,-0.83074 -14.77067,-0.56641 -18.47269,0.49087 -8.07711,2.34114 -14.62108,6.94789 -20.37978,14.3489 l -1.53315,1.96354 1.49575,1.20833 c 1.27142,1.01952 1.45839,1.3216 1.12185,1.92578 -0.63571,1.24608 -0.0373,3.20961 1.42097,4.72003 1.79491,1.77472 7.32923,4.41795 11.55477,5.47523 4.37511,1.09504 11.92872,1.17056 16.60296,0.15112 11.21822,-2.41666 29.54134,-12.38536 29.54134,-16.0481 0,-1.09506 -0.6731,-2.3789 -1.15921,-2.11459 -0.18697,0.15111 -0.33655,0.15111 -0.33655,0.0756 0,-0.11324 1.2714,-1.09505 2.80455,-2.22787 1.53318,-1.09505 2.80455,-2.11458 2.80455,-2.22785 0,-0.11324 -0.78526,-0.49088 -1.75752,-0.83072 -13.05053,-4.53123 -15.7803,-5.51301 -14.5089,-5.28645 2.20626,0.45313 9.01197,0.30208 11.59218,-0.22656 7.77795,-1.6237 16.34121,-5.96612 23.78262,-12.1588 9.01197,-7.51429 11.74175,-11.06377 9.90944,-12.91402 -0.48611,-0.45312 -0.22437,-0.90626 1.90711,-3.24737 1.34617,-1.51043 2.39321,-2.7565 2.31842,-2.83202 -0.14965,-0.0756 -4.00115,-0.7552 -13.42448,-2.26563 -2.61758,-0.45312 -2.87934,-0.52863 -1.45837,-0.56639 1.79491,-0.0377 5.38477,-1.17059 9.01198,-2.79426 5.19777,-2.34114 11.89133,-7.62758 16.86474,-13.29162 3.88898,-4.41795 8.41367,-10.53513 9.31113,-12.57417 0.78527,-1.77472 0.78527,-3.73827 0,-3.54947 -0.59831,0.11323 -0.37394,-0.33985 2.16884,-4.38019 l 1.86972,-2.90753 -2.69237,-0.11323 c -3.40286,-0.15112 -13.53666,0.52864 -18.24832,1.24609 -6.69353,0.98177 -6.69353,0.98177 -4.33771,0.33985 3.47765,-0.98178 9.12415,-4.53124 13.64884,-8.68487 7.21706,-6.5703 17.46303,-22.84496 16.56558,-26.28114 -0.0748,-0.37761 -0.29916,-0.56642 -0.48614,-0.45312 -0.44872,0.2643 0.11214,-1.13282 1.90712,-4.7578 0.86005,-1.69922 1.49575,-3.20963 1.42097,-3.36067 -0.0748,-0.15112 -0.86005,-0.15112 -1.79491,0 z m -34.88869,44.74593 c -0.11214,0.11323 -0.44872,0.1511 -0.71049,0.0377 -0.29915,-0.11324 -0.18696,-0.22655 0.22438,-0.22655 0.41133,-0.0377 0.63568,0.0755 0.48611,0.18879 z m -48.23836,70.23409 c -0.11215,0.11325 -0.44875,0.15112 -0.71049,0.0377 -0.29916,-0.11324 -0.18697,-0.22656 0.22434,-0.22656 0.41136,-0.0377 0.63571,0.0756 0.48615,0.1888 z m 1.49575,0.37761 c -0.11213,0.11323 -0.44872,0.1511 -0.71049,0.0377 -0.29916,-0.11323 -0.18696,-0.22655 0.22438,-0.22655 0.41133,-0.0377 0.63568,0.0756 0.48611,0.1888 z M 24.000045,249.51304 c 0,0.0756 0.673093,1.51039 1.533158,3.17186 1.75752,3.58722 2.318433,4.98435 1.869705,4.72002 -0.560913,-0.3776 -0.673096,1.47266 -0.224366,3.28515 1.159218,4.56899 9.909433,17.6718 15.406364,22.95826 4.636867,4.49345 10.507741,8.38275 14.321938,9.47782 1.346186,0.3776 1.83231,0.60415 1.12182,0.49087 -0.710486,-0.11323 -2.916738,-0.45312 -4.86123,-0.7552 -4.375109,-0.64192 -13.200114,-1.32161 -17.83698,-1.32161 h -3.477651 l 1.981886,3.09635 c 2.692375,4.22914 2.692375,4.22914 2.206252,3.92705 -0.673092,-0.41536 -0.972246,1.5482 -0.486123,3.17186 0.934852,3.17186 9.759857,14.19787 15.107211,18.95565 3.552439,3.13411 8.301488,6.34375 11.367804,7.74088 3.664619,1.62368 7.254453,2.75649 9.049369,2.79426 l 1.720129,0.0377 -1.682735,0.30209 c -0.934852,0.18879 -4.636867,0.79296 -8.226701,1.35935 -3.58983,0.56641 -6.618752,1.09507 -6.730935,1.17059 -0.07478,0.0756 0,0.26433 0.186961,0.41536 1.009642,0.71744 5.160386,5.43748 4.599473,5.24868 -0.673093,-0.22657 -1.047035,0.3776 -1.047035,1.77473 0,1.43488 1.981887,4.07812 5.272567,7.06116 13.050537,11.81897 23.59567,16.99213 35.113054,17.10541 2.35581,0 4.89862,-0.0756 5.60911,-0.26433 0.71048,-0.15112 -1.30879,0.64193 -4.4873,1.73697 -8.824996,3.09635 -11.592159,4.15363 -11.592159,4.41795 0,0.11324 1.084428,1.0573 2.430615,2.03906 2.056677,1.51041 3.814196,3.17186 2.505405,2.34115 -0.486122,-0.30209 -1.196611,0.90623 -1.196611,2.03904 0,3.73827 18.17352,13.63145 29.54133,16.08588 4.67426,1.01952 12.22786,0.944 16.60297,-0.15112 4.22553,-1.05729 9.75986,-3.70052 11.55477,-5.47525 1.45837,-1.5104 2.09407,-3.47394 1.42098,-4.68226 -0.29915,-0.64193 -0.14959,-0.90625 1.08442,-1.85025 0.82268,-0.60417 1.49577,-1.20834 1.49577,-1.35938 0,-0.1511 -0.97225,-1.51042 -2.16886,-3.02082 -6.05784,-7.66533 -13.76102,-12.38536 -22.7356,-13.93354 -3.32807,-0.56639 -13.76102,-0.22654 -17.7248,0.56641 -4.89863,0.98177 -5.49693,0.98177 -2.20625,0.11323 1.90711,-0.49086 3.8142,-1.28383 4.56208,-1.888 1.42098,-1.09504 2.28104,-3.17186 1.9071,-4.64451 -0.18695,-0.67969 0.0374,-0.98177 0.93485,-1.47266 0.6357,-0.30209 1.15922,-0.71745 1.15922,-0.86847 0,-0.15112 -0.59831,-1.4349 -1.3088,-2.83203 -6.09523,-11.97002 -15.85508,-18.91789 -29.204777,-20.69263 -4.225531,-0.5664 -4.749049,-0.71746 -3.402861,-1.13282 1.907098,-0.52862 3.141104,-2.19008 3.328073,-4.45569 0.03739,-0.75523 0.336548,-1.24609 0.747883,-1.39713 0.860063,-0.26433 0.860063,-0.22657 -0.448729,-4.30469 -4.038563,-12.42312 -11.405198,-20.16396 -23.932219,-24.99728 -1.533157,-0.56641 -2.206249,-0.94402 -1.495763,-0.79298 0.710488,0.18879 3.066317,0.30208 5.235172,0.30208 3.028923,0 4.225534,-0.15111 5.309963,-0.67969 1.458369,-0.7552 2.729769,-2.86977 2.430615,-4.04034 -0.112177,-0.45312 0.07479,-0.75519 0.523517,-0.86849 0.860064,-0.22654 0.860064,-0.79295 0.149587,-4.68226 -2.28104,-12.0833 -9.311128,-21.44783 -20.342385,-27.11189 -5.870872,-2.98305 -14.733272,-5.55073 -24.904463,-7.17443 -3.290679,-0.4909 -6.356995,-0.98178 -6.805725,-1.09505 -0.486122,-0.0756 -0.860063,-0.0756 -0.860063,0.0377 z M 409.98183,218.47409 c -2.39323,10.53512 -3.14111,17.483 -2.99153,27.26292 0.0748,4.38019 0.18696,7.92966 0.29915,7.85414 0.11213,-0.0756 0.22438,0.83072 0.22438,2.00128 0.0748,2.64323 1.57053,8.4583 3.10371,11.85672 2.84194,6.38149 8.71281,12.80074 14.24713,15.63276 3.36548,1.69922 5.98306,0.79296 7.6284,-2.60546 2.01929,-4.1914 2.65496,-8.87367 2.61758,-19.33326 0,-4.9466 -0.14965,-6.11715 -1.00965,-9.32679 -2.61756,-9.62887 -8.97456,-19.82413 -18.92139,-30.20821 l -4.78645,-4.98435 z m -312.726768,2.34114 c -14.882845,15.82155 -21.538992,29.60404 -20.716322,42.97119 0.112175,2.26561 0.299152,5.51298 0.373941,7.17444 0.261758,5.17316 2.168857,10.76168 4.188137,12.08329 2.580192,1.73698 5.534325,0.83072 10.320769,-3.09634 4.524685,-3.77603 7.777965,-8.04294 9.872043,-13.06504 1.53315,-3.70053 2.76716,-8.42057 2.91673,-11.40361 0.0747,-1.24611 0.33655,-4.30467 0.56092,-6.79684 0.44873,-4.56901 0.29914,-10.9505 -0.41134,-16.42572 -0.56092,-4.49348 -2.69238,-15.48173 -2.99152,-15.48173 -0.14958,0 -1.981898,1.81249 -4.113358,4.04036 z M 477.06683,198.46115 c -19.6693,11.97 -29.20479,22.84495 -31.48583,36.06105 -0.5983,3.58723 -0.56092,12.04552 0.0748,13.78249 0.18696,0.45314 0.14965,0.60418 -0.11213,0.45314 -0.59832,-0.3776 0.48611,4.79554 1.27138,6.15491 1.60795,2.79427 4.71167,2.8698 10.02162,0.22657 8.45108,-4.22915 14.62109,-11.13928 18.58487,-20.91919 2.43062,-6.00388 4.9734,-16.80333 4.56207,-19.2955 -0.11214,-0.7552 -0.0748,-1.17056 0.11213,-0.90625 0.18697,0.22656 0.29917,-0.30208 0.29917,-1.32159 0.0373,-0.98177 0.22437,-4.15363 0.48613,-7.06119 0.26174,-2.90753 0.52351,-6.2682 0.63569,-7.47652 0.11212,-1.17057 0.0373,-2.15234 -0.11214,-2.15234 -0.14965,0 -2.09408,1.09504 -4.33771,2.45442 z m -446.485426,2.71874 c 0.186979,2.86979 0.336547,6.34373 0.336547,7.74086 0,1.35937 0.07479,2.3789 0.186979,2.19008 0.112176,-0.1511 0.224366,0.83073 0.26176,2.1901 0.07479,3.39844 1.720128,11.74346 3.328073,16.65228 3.963775,12.30984 10.844286,20.76814 20.791114,25.52595 6.917905,3.32289 10.133798,1.54816 10.69471,-5.96612 0.149568,-1.69922 0.261758,-6.00388 0.224364,-9.51559 0,-6.23044 -0.03739,-6.53253 -1.234006,-10.00648 -3.402861,-10.04423 -10.507737,-18.35148 -22.922577,-26.73426 -3.21589,-2.1901 -11.442589,-7.24998 -11.741743,-7.24998 -0.149568,0 -0.07478,2.34114 0.07479,5.17316 z M 459.26723,142.84027 c -5.38474,7.02342 -6.61875,8.68487 -8.8998,12.19657 -6.99269,10.79944 -10.02159,20.12622 -9.72246,30.24598 0.0373,2.52993 0.26177,4.53123 0.41135,4.41795 0.14964,-0.11328 0.18696,0.26432 0.0373,0.79296 -0.56091,2.30338 1.86969,10.72392 4.22552,14.68875 1.57055,2.60546 3.06632,3.66275 5.23518,3.66275 2.09407,0 5.27256,-2.45442 8.52585,-6.49478 2.80456,-3.58722 4.59948,-6.87236 5.98306,-10.98823 1.86969,-5.62628 2.24363,-9.44007 2.20624,-20.65486 -0.0373,-6.64582 -0.18697,-8.45831 -1.00964,-12.80074 -0.97223,-5.05987 -4.3751,-17.78509 -4.74904,-17.74733 -0.11214,0 -1.12183,1.20834 -2.24366,2.68098 z M 50.063724,140.68794 c -2.28104,7.7031 -2.954132,10.15751 -3.776803,13.9713 -1.682735,7.92966 -2.206252,13.29162 -1.907098,19.63534 0.149568,3.09634 0.261758,6.07941 0.261758,6.60804 0.03739,4.11587 1.720128,10.79944 3.739408,14.91531 2.168859,4.34243 6.095238,9.25127 9.236342,11.55464 2.281038,1.66145 4.075956,1.92577 6.057842,0.90625 1.346187,-0.71744 3.215891,-3.62498 4.562079,-7.02341 2.206252,-5.58852 2.692374,-9.10023 2.654981,-18.84237 0,-4.75779 -0.149588,-6.41925 -0.822671,-8.94919 -2.243646,-8.42053 -6.805725,-16.84108 -14.770666,-27.11187 -5.309959,-6.83461 -4.973412,-6.49477 -5.235172,-5.66404 z M 382.60936,125.96143 c 0,0.22656 1.27138,4.7578 2.50539,9.02471 0.14965,0.49089 0.0748,0.60416 -0.26176,0.41536 -0.37394,-0.22656 -0.44872,0.15103 -0.29915,1.73697 0.44874,4.34244 6.02046,17.36972 9.98423,23.41137 1.04703,1.58594 3.10371,4.19139 4.59946,5.81508 2.84197,3.09634 8.52586,7.7031 8.52586,6.94789 0,-0.26432 0.0748,-0.3776 0.18696,-0.26432 0.22435,0.18878 1.08443,16.57676 1.04703,19.55982 -0.0373,1.43488 0.0748,1.85025 0.26174,1.32161 0.22438,-0.49089 0.26177,-0.11328 0.11215,0.944 -0.22438,2.07681 1.34619,10.11976 2.91672,14.87754 1.45838,4.41796 4.74906,10.8372 6.9553,13.63146 2.24366,2.79427 5.42215,5.39973 9.08678,7.47655 5.98306,3.39841 9.57287,4.34241 11.92871,3.09632 1.60795,-0.83071 2.80455,-3.47395 2.54278,-5.58851 -0.11213,-0.86848 -0.0748,-1.3216 0.0748,-1.0573 0.18695,0.26433 0.29913,-0.30206 0.33653,-1.35937 0,-0.98174 0.0373,-4.11585 0.0748,-6.91011 0.11213,-6.57029 -1.00965,-11.55465 -3.8142,-17.10541 -3.21591,-6.41924 -10.88169,-14.83978 -19.44493,-21.3723 -4.71166,-3.58723 -6.46918,-5.05989 -4.30032,-3.66275 1.00963,0.67968 7.36663,1.28384 9.61029,0.90624 1.72012,-0.30208 3.70201,-1.92577 3.77679,-3.1341 0.11214,-1.05728 0.14965,-1.24609 0.44872,-1.54817 0.44873,-0.45313 0.29916,-5.513 -0.29914,-8.87367 -1.42099,-8.34502 -4.74906,-14.46218 -11.25562,-20.73038 -6.76834,-6.53253 -18.51008,-12.72521 -31.52322,-16.61452 -1.49577,-0.45312 -2.99153,-0.90624 -3.25329,-1.01953 -0.29916,-0.11327 -0.5235,-0.0756 -0.5235,0.0756 z m -259.70196,1.85026 c -8.00233,2.71874 -11.21821,4.04035 -15.81769,6.457 -12.863566,6.87238 -20.716325,15.595 -23.633063,26.24339 -0.897458,3.39842 -1.757522,11.25256 -1.308794,12.30984 0.373942,0.90625 0.44873,1.13282 0.523517,1.85026 0.07478,1.20833 2.056674,2.83202 3.776803,3.1341 1.907099,0.33985 8.002334,-0.11327 9.273739,-0.67968 0.44872,-0.18879 0.82267,-0.30209 0.82267,-0.22656 0,0.0756 -1.907105,1.58592 -4.188142,3.36066 -13.087931,10.00647 -20.118022,19.18221 -22.959973,29.90613 -0.523517,2.03905 -0.710486,4.00259 -0.710486,8.49607 0,3.20962 0.149568,6.34373 0.299153,6.98565 0.186961,0.83071 0.186961,0.98175 -0.112176,0.56639 -0.261757,-0.41536 -0.299151,0.0756 -0.149568,1.69922 0.822671,7.74084 4.898625,8.57159 14.733272,2.94531 3.66462,-2.07682 6.843118,-4.68228 9.086764,-7.47655 2.01928,-2.52993 5.309956,-8.79814 6.730926,-12.83849 1.308808,-3.7005 2.991538,-11.44135 2.692378,-12.57416 -0.14956,-0.64194 -0.0747,-0.83073 0.22437,-0.60417 0.33655,0.18881 0.37393,0 0.22436,-0.67969 -0.14957,-0.49089 0,-2.79425 0.29916,-5.05987 0.29915,-2.26561 0.6357,-6.83461 0.74787,-10.15751 0.26176,-6.72132 0.44873,-8.53382 0.89747,-8.38278 0.63569,0.15102 5.27256,-3.62499 8.00233,-6.53253 4.56208,-4.87107 7.96494,-10.57287 11.47998,-19.25774 2.65499,-6.57028 4.15075,-12.23432 3.02892,-11.51688 -0.37393,0.1888 0.97224,-5.1354 2.01929,-8.11846 0.6357,-1.85024 0.6357,-1.88801 0.29914,-1.88801 -0.18696,0 -2.99152,0.90625 -6.2822,2.03906 z M 432.60524,92.581351 c -5.0108,9.477829 -8.63803,19.295499 -10.02162,26.998589 -1.12181,6.34373 -0.86005,16.27469 0.56092,21.8632 1.75753,6.91013 6.02045,14.08459 9.72247,16.38796 0.74788,0.45312 1.8697,0.79296 2.80455,0.79296 2.58018,0 5.1604,-2.83201 8.2641,-9.0247 1.72013,-3.43619 3.51504,-9.85543 3.21589,-11.47912 -0.14965,-0.71745 -0.0748,-0.98177 0.22437,-0.79296 0.26176,0.18881 0.29915,0.11327 0.14964,-0.1888 -0.18696,-0.26431 -0.0748,-2.15233 0.14965,-4.19139 1.30878,-10.38407 -2.35584,-24.20433 -10.61993,-39.799326 l -2.35582,-4.455711 z M 75.304735,92.24151 c -5.983055,11.29032 -9.385917,20.46607 -10.769498,28.99989 -0.82267,4.98436 -0.486124,16.61452 0.598304,21.03247 1.383582,5.8906 4.487292,11.81896 7.66579,14.80202 1.383581,1.28385 1.907099,1.54817 3.215892,1.54817 3.141102,0 6.805722,-3.62498 9.722462,-9.62886 2.019281,-4.15363 3.851592,-10.6484 3.552439,-12.4609 -0.18696,-0.86847 -0.149568,-1.01951 0.18696,-0.56639 0.299153,0.45312 0.373941,0.37759 0.186979,-0.37761 -0.07478,-0.52864 -0.03739,-2.56769 0.112176,-4.53124 C 90.33715,124.5643 89.364904,117.61641 86.784713,109.91332 85.251553,105.23105 81.886085,97.527945 79.2685,92.61911 L 77.211824,88.692043 Z M 374.60702,78.081409 c 0.71049,2.794258 1.83231,10.610634 1.53315,10.421835 -0.93485,-0.566406 0.97225,8.156221 3.32808,15.330666 2.69237,8.0807 6.28221,14.46219 10.99385,19.44654 5.7213,6.07941 12.82617,9.81767 19.51973,10.30855 5.38474,0.41537 6.50658,-0.83071 6.88052,-7.47653 1.15921,-20.2395 -10.54515,-34.663926 -38.0298,-46.973774 -2.09407,-0.944006 -3.92637,-1.699213 -4.07596,-1.699213 -0.18695,0 -0.22437,0.302084 -0.14965,0.641926 z m -241.41624,0.981767 c -22.24949,10.195271 -32.9442,20.088459 -37.057538,34.286324 -0.6357,2.26562 -0.82267,4.11588 -0.972246,9.85543 -0.186979,6.68358 -0.149568,7.1367 0.598306,8.34502 0.41133,0.67969 1.1966,1.47266 1.72012,1.69922 3.515058,1.62368 12.527028,-0.98177 18.697048,-5.39972 2.84196,-2.03905 7.40402,-6.83461 9.4607,-10.00647 1.94449,-2.98307 4.86124,-8.98695 6.24481,-12.83849 1.83231,-5.248695 3.62723,-12.838502 3.73941,-16.010363 0.0747,-1.699214 0.48613,-4.833316 0.89746,-7.023411 0.89746,-4.493472 0.89746,-4.531233 0.52352,-4.531233 -0.18696,0 -1.9071,0.755207 -3.85159,1.623693 z" /></svg>
