<?xml version="1.0" encoding="UTF-8" standalone="no"?>
<!-- Created with Inkscape (http://www.inkscape.org/) -->

<svg
   width="512"
   height="512"
   viewBox="0 0 135.46666 135.46667"
   version="1.1"
   id="svg4728"
   xml:space="preserve"
   xmlns="http://www.w3.org/2000/svg"
   xmlns:svg="http://www.w3.org/2000/svg"><defs
     id="defs4725" /><g
     id="layer1"
     style="stroke-width:3.22787;stroke-dasharray:none"
     transform="matrix(1.9672432,0,0,1.9672434,1.108597,1.1101222)"><path
       id="path4765"
       style="fill:none;fill-opacity:1;fill-rule:evenodd;stroke:#000000;stroke-width:3.22787;stroke-linecap:round;stroke-linejoin:round;stroke-dasharray:none;stroke-opacity:1"
       d="m 7.7766527,63.358528 c 5.5149103,2.087075 7.1295093,-0.51605 7.0088293,-5.205902 l 5.580071,-5.580075 2.487985,2.487982 h 4.045734 L 31.015636,50.944164 28.287827,48.216352 59.575124,16.92905 64.531975,3.2014398 50.804185,8.1584709 19.516885,39.445768 16.789071,36.717959 12.672704,40.834323 v 4.045734 l 2.487978,2.487985 -5.5800719,5.580071 C 4.890758,52.827432 2.2876306,54.442032 4.3747077,59.956942 2.3463968,61.98931 3.4153066,62.939826 4.1045375,63.628878 c 0.6892309,0.689051 1.6397413,1.757966 3.6721152,-0.27035 z" /></g></svg>
