<?xml version="1.0" encoding="UTF-8" standalone="no"?>
<svg
   version="1.1"
   id="Layer_1"
   x="0px"
   y="0px"
   viewBox="0 0 512 512"
   enable-background="new 0 0 1548.1006 1657.1896"
   xml:space="preserve"
   width="512"
   height="512"
   xmlns="http://www.w3.org/2000/svg"
   xmlns:svg="http://www.w3.org/2000/svg"><defs
   id="defs11" />

<path
   style="fill:none;fill-rule:evenodd;stroke:#000000;stroke-width:24;stroke-linecap:round;stroke-linejoin:round;stroke-dasharray:none"
   d="m 329.02499,484 c 2.7449,-166.72112 -93.5874,-163.54722 -64.99356,-250.95744 16.38448,10.48149 17.69364,33.08247 61.13209,21.81528 l 54.15456,20.6892 c 20.23811,24.59716 40.07352,14.42054 59.95919,8.60778 17.30672,-20.57815 14.64177,-39.04777 12.19602,-57.54056 l -95.9066,-80.81393 C 349.21345,121.54828 327.84543,108.96983 303.8173,98.459529 320.81399,78.570038 315.58642,52.656166 314.99543,27.998995 294.6108,41.555099 274.04028,55.020211 267.51082,75.331486 87.542451,88.752975 67.278307,359.98585 58.975251,466.6986"
   id="path622" /><path
   style="fill:#000000;fill-rule:evenodd;stroke:#000000;stroke-width:24;stroke-linecap:round;stroke-linejoin:round;stroke-dasharray:none;paint-order:markers stroke fill"
   d="M 66.388316,70.245665 440.22598,442.25192"
   id="path1" /></svg>
