<?xml version="1.0" encoding="UTF-8" standalone="no"?>
<svg
   viewBox="0 0 512 512"
   version="1.1"
   id="svg1"
   width="512"
   height="512"
   xmlns="http://www.w3.org/2000/svg"
   xmlns:svg="http://www.w3.org/2000/svg">
  <defs
     id="defs1" />
  <path
     id="path13"
     style="fill:none;fill-opacity:1;fill-rule:evenodd;stroke:#000000;stroke-width:24;stroke-linecap:round;stroke-linejoin:round;stroke-dasharray:none;paint-order:markers stroke fill"
     d="m 387.63355,390.87955 22.25602,39.17308 c -75.51879,71.92802 -232.25656,71.93163 -307.77913,0 l 22.25602,-39.17308 M 453.57098,147.83123 c 16.8114,26.56227 25.72547,56.12971 26.74219,78.51085 -20.40754,4.40392 -39.09449,14.26668 -63.48421,38.46384 m -9.12785,-49.048 c 8.43342,50.76915 24.26747,85.67075 -7.07831,157.82406 -20.58277,47.37845 -123.08079,63.9843 -201.08488,49.81741 m -31.65289,-7.96641 c -27.29559,-9.10972 -48.3444,-23.06004 -56.50781,-41.851 C 80.031432,301.42867 95.86548,266.52707 104.2989,215.75792 M 359.0241,76.976666 c 51.56467,2.013686 84.84241,24.449834 99.83322,67.308444 -27.14467,17.16055 -41.1456,41.12857 -42.0028,71.90409 -47.49259,-0.87529 -84.69877,-22.17308 -111.61855,-63.89331 M 328.83626,43.263539 C 317.82087,60.465076 311.1592,78.009278 275.81907,91.098567 L 256,147.22433 236.18095,91.098567 C 200.84082,78.009278 194.17914,60.465076 183.16375,43.263539 m 145.67251,0 v 0 L 359.0241,76.976666 C 346.16582,119.79362 316.82254,155.43314 256,177.36687 195.17748,155.43314 165.83419,119.79362 152.97591,76.976666 l 30.18784,-33.713127 v 0 c 46.25267,-20.359121 99.51961,-20.315206 145.67251,0 z M 58.429028,147.83123 c -16.8114,26.56227 -25.725464,56.12971 -26.742194,78.51085 20.407555,4.40392 39.094505,14.26668 63.484221,38.46384 M 152.97591,76.976666 c -51.56467,2.013686 -84.842411,24.449834 -99.833219,67.308444 27.144667,17.16055 41.145599,41.12857 42.002799,71.90409 47.49259,-0.87529 84.69877,-22.17308 111.61855,-63.89331" />
</svg>
