<?xml version="1.0" encoding="UTF-8" standalone="no"?>
<svg
   viewBox="0 0 512 512"
   version="1.1"
   id="svg1"
   width="512"
   height="512"
   xmlns="http://www.w3.org/2000/svg"
   xmlns:svg="http://www.w3.org/2000/svg">
  <defs
     id="defs1" />
  <g
     id="g4"
     transform="translate(21.33693,11.754787)">
    <path
       style="fill:none;fill-opacity:1;fill-rule:evenodd;stroke:#000000;stroke-width:24;stroke-linecap:round;stroke-linejoin:round;stroke-dasharray:none;paint-order:markers stroke fill"
       d="m 134.11443,143.2087 119.78704,94.00101 13.51903,98.96719 v 47.30508 l -69.52642,48.54995 c -20.89583,14.59145 6.29721,52.00269 27.03805,36.72367 l 81.11416,-59.75378 3.86256,-45.43776 32.83192,15.56088 41.8446,78.42683 c 12.15667,22.78451 51.48833,5.85859 39.9133,-18.05063 l -42.48835,-87.76336 -43.7759,-34.85637 -3.21882,-64.11082 92.70188,-1.24488 c 31.53376,-0.42341 22.76122,-40.33397 2.57506,-40.45828 l -101.0708,-0.62244 c -16.03123,-8.87119 -31.53431,-20.80634 -50.85728,-10.5814 l -118.4524,-89.63066 c -18.8862,-14.290825 -44.50826,18.29289 -25.79763,32.97577 z"
       id="path2" />
    <ellipse
       style="fill:none;fill-opacity:1;fill-rule:evenodd;stroke:#000000;stroke-width:24;stroke-linecap:round;stroke-linejoin:round;stroke-dasharray:none;paint-order:markers stroke fill"
       id="path3"
       cx="309.25333"
       cy="141.04346"
       rx="41.253315"
       ry="40.147068" />
    <path
       style="fill:none;fill-opacity:1;fill-rule:evenodd;stroke:#000000;stroke-width:24;stroke-linecap:round;stroke-linejoin:round;stroke-dasharray:none;paint-order:markers stroke fill"
       d="M 20.859242,181.19053 329.22174,16.245213"
       id="path4" />
  </g>
</svg>
