<?xml version="1.0" encoding="UTF-8" standalone="no"?>
<!-- Created with Inkscape (http://www.inkscape.org/) -->

<svg
   width="512"
   height="512"
   viewBox="0 0 135.46666 135.46667"
   version="1.1"
   id="svg1"
   xml:space="preserve"
   xmlns="http://www.w3.org/2000/svg"
   xmlns:svg="http://www.w3.org/2000/svg"><defs
     id="defs1" /><g
     id="layer1"
     transform="matrix(1.9672725,0,0,1.9672457,1.1087445,1.1100835)"
     style="stroke-width:3.22784;stroke-dasharray:none"><path
       id="path4765"
       style="fill:none;fill-opacity:1;fill-rule:evenodd;stroke:#000000;stroke-width:3.22784;stroke-linecap:round;stroke-linejoin:round;stroke-dasharray:none;stroke-opacity:1"
       d="m 3.2011671,3.2014555 4.956803,13.7278395 16.9379839,16.93747 -5.578987,5.57899 -2.727999,-2.72748 -4.116028,4.11602 v 4.04575 l 2.487704,2.48822 -5.5800219,5.58002 c -4.68986,-0.12068 -7.292953,1.49397 -5.205883,7.00888 -2.02831,2.03236 -0.959498,2.98256 -0.270268,3.67161 0.68923,0.68905 1.639747,1.75805 3.672127,-0.27027 5.5149099,2.08708 7.1295549,-0.51603 7.0088749,-5.20588 l 5.580021,-5.58003 2.48822,2.48822 h 4.045748 l 4.116024,-4.11654 -2.727478,-2.728 5.578468,-5.57847 5.57899,5.57847 -2.728,2.728 4.11655,4.11654 h 4.04574 l 2.48822,-2.48822 5.58003,5.58003 c -0.12068,4.68985 1.49396,7.29296 7.00887,5.20588 2.03238,2.02832 2.9829,0.95932 3.67213,0.27027 0.68923,-0.68905 1.75804,-1.63925 -0.27027,-3.67161 2.08707,-5.51491 -0.51602,-7.12956 -5.20588,-7.00888 l -5.58003,-5.58002 2.48771,-2.48822 v -4.04575 l -4.11603,-4.11602 -2.728,2.72748 -5.57899,-5.57899 16.93747,-16.93747 4.9568,-13.7278395 -13.72732,4.95732 L 33.866996,25.096245 16.929011,8.1587755 Z" /></g></svg>
