<?xml version="1.0" encoding="UTF-8" standalone="no"?>
<!-- Created with Inkscape (http://www.inkscape.org/) -->

<svg
   version="1.1"
   id="svg89213"
   width="512"
   height="512"
   viewBox="0 0 512 512"
   xml:space="preserve"
   xmlns="http://www.w3.org/2000/svg"
   xmlns:svg="http://www.w3.org/2000/svg"><defs
     id="defs89217" /><path
     id="path5-9"
     style="fill:none;fill-opacity:1;fill-rule:evenodd;stroke:#000000;stroke-width:24;stroke-linecap:round;stroke-linejoin:round;stroke-opacity:1;paint-order:markers stroke fill"
     d="m 50.391272,283.72828 107.392748,30.1445 -28.14226,110.00693 M 59.568035,371.74557 256,256 M 177.20733,447.93923 257.00773,370 338.1986,449.37711 M 258.01547,484 256,256 M 382.81605,420.21094 355.22372,312.1272 464.55685,281.49739 M 454.44744,368.25441 256,256 M 461.60873,228.27171 354.21599,198.12721 382.35825,88.120278 M 452.43197,140.25442 256,256 M 334.79268,64.060764 254.99226,142 173.8014,62.62288 M 253.98453,28 256,256 M 129.18395,91.789052 156.77628,199.87278 47.443151,230.50259 M 57.552561,143.74557 256,256" /></svg>
