<?xml version="1.0" encoding="UTF-8" standalone="no"?>
<!-- Created with Inkscape (http://www.inkscape.org/) -->

<svg
   version="1.1"
   id="svg89213"
   width="512"
   height="512"
   viewBox="0 0 512 512"
   xml:space="preserve"
   xmlns="http://www.w3.org/2000/svg"
   xmlns:svg="http://www.w3.org/2000/svg"><defs
     id="defs89217" /><path
     id="path31"
     style="fill:none;fill-rule:evenodd;stroke:#000000;stroke-width:24;stroke-linejoin:round;stroke-dasharray:none;paint-order:markers stroke fill"
     d="m 202.78865,78.223031 c -0.008,62.942109 -0.0163,125.884289 -0.0243,188.826389 m 106.90801,154.66966 c 48.48853,-0.0684 118.77021,1.083 144.15424,-47.59538 L 454.03978,78.223031 M 309.67212,362.94487 c 48.14113,0.69344 108.51955,-0.0456 141.21509,-38.48002 l 3.15408,-11.17405 v 0 l -0.005,-0.43065 M 202.74453,137.19131 c 15.38171,46.30152 82.81769,47.21925 125.65581,50.02122 41.65654,-3.02549 111.59887,-3.67284 125.63997,-50.02199 M 305.50249,303.90581 c 49.58372,0.5066 121.99929,2.39417 148.11094,-45.24169 l 0.42745,-4.14762 -0.0821,-1.79839 M 203.01759,192.57728 c 4.28641,41.15932 62.94164,46.97212 97.42522,52.1365 51.38629,2.59735 115.01842,2.33182 150.44466,-37.78254 l 3.154,-11.17406 -0.25436,-3.18096 m 0.25274,-114.353189 c 0,27.737409 -56.25345,50.223029 -125.6456,50.223029 -69.39217,1e-5 -125.64566,-22.48561 -125.64566,-50.223029 -1e-5,-27.737425 56.25348,-50.22305 125.64566,-50.223037 69.39215,4e-6 125.64559,22.485624 125.64558,50.223037 z M 309.70162,316.65977 309.52881,434.89485 c -0.86996,8.5769 -5.99898,14.64428 -12.32584,19.6415 -28.97294,24.99542 -70.59283,28.95764 -108.2773,29.33056 -27.04472,0.89001 -54.04799,-2.74895 -80.16096,-9.19997 -21.943578,-5.41275 -45.26473,-18.17072 -50.582653,-40.47618 -0.07326,-39.2033 0.07789,-78.40585 0.22823,-117.60849 m -0.0044,58.80627 c 5.053209,22.32479 28.387197,35.10014 50.335653,40.51433 30.64364,7.70796 62.52915,10.90108 94.22198,9.08361 34.86162,-1.68318 71.91572,-9.0593 98.44588,-31.60671 4.7258,-4.91913 8.34625,-11.20161 8.294,-17.96085 m -0.002,-58.75917 c 0,27.73741 -56.25345,50.22303 -125.64561,50.22303 -69.39215,0 -125.645601,-22.48562 -125.645597,-50.22303 -1.8e-5,-27.73742 56.253437,-50.22304 125.645597,-50.22304 69.39215,10e-6 125.64559,22.48563 125.64557,50.22304 z" /></svg>
