<?xml version="1.0" encoding="UTF-8" standalone="no"?>
<!-- Created with Inkscape (http://www.inkscape.org/) -->

<svg
   width="512"
   height="512"
   viewBox="0 0 135.46666 135.46667"
   version="1.1"
   id="svg1"
   xml:space="preserve"
   xmlns="http://www.w3.org/2000/svg"
   xmlns:svg="http://www.w3.org/2000/svg"><defs
     id="defs1" /><path
     id="path3"
     style="fill:none;fill-rule:evenodd;stroke:#000000;stroke-width:6.35;stroke-linecap:butt;stroke-linejoin:round;stroke-dasharray:none;paint-order:markers stroke fill"
     d="m 91.764754,99.788673 c 0.520655,4.534657 1.157817,8.993267 1.700073,13.531527 0.556945,4.661 -2.399748,10.07781 0.347399,14.73813 h -1.2e-5 v 0 h 7.817246 c 3.41676,-1.14922 3.41676,-3.49878 0,-7.04867 1.35954,-5.10338 1.41745,-10.65687 0.17373,-16.6605 12.46136,-0.64047 16.48984,-4.875727 17.37163,-11.373995 2.08903,-15.394709 2.47306,-34.705531 1.0423,-49.1805 -0.38758,-3.921174 -11.98642,-4.165126 -11.98642,-4.165126 -0.11264,-3.900744 -4.45554,-7.051279 -13.028727,-9.451617 9.687737,-30.55717609 -24.050697,-30.16113439 -15.287027,0 -2.264846,0.198018 -4.231119,0.512512 -5.908002,0.965256 m -6.536286,68.645495 c 0.520655,4.534657 1.157816,8.993267 1.700073,13.531527 0.556945,4.661 -2.399748,10.07781 0.347399,14.73813 h -1.2e-5 v 0 h 7.817248 c 3.416756,-1.14922 3.416756,-3.49878 0,-7.04867 1.359533,-5.10338 1.41744,-10.65687 0.173729,-16.6605 C 89.97045,103.70869 93.998926,99.473433 94.880724,92.975166 96.969747,77.580457 97.353779,58.269635 95.92302,43.794666 95.535436,39.873493 83.936596,39.62954 83.936596,39.62954 83.823961,35.728796 79.481057,32.578261 70.907877,30.177923 c 9.687732,-30.55717676 -24.050697,-30.16113499 -15.287027,0 -2.264846,0.198018 -4.231119,0.512512 -5.908002,0.965256 m -4.488827,96.915151 h 7.817248 c 3.416756,-1.14922 3.416756,-3.49878 0,-7.04867 1.359532,-5.10338 1.41744,-10.65687 0.173729,-16.6605 12.461355,-0.64047 16.489831,-4.875727 17.371628,-11.373993 2.089024,-15.394709 2.473056,-34.705531 1.042297,-49.1805 C 71.241339,39.873494 59.642499,39.629541 59.642499,39.629541 59.529864,35.728797 55.18696,32.578262 46.61378,30.177924 c 9.687732,-30.55717669 -24.050697,-30.16113499 -15.287027,0 -10.798594,0.944134 -14.809726,4.536104 -13.028732,13.136162 -4.227432,9.131232 -5.038103,18.262469 -2.432024,27.393701 -3.736823,15.23043 13.555677,18.232552 5.3852,-1.121383 2.029531,-1.332049 3.245544,-6.565153 3.648049,-15.699319 0.162721,7.44318 -0.258118,15.51425 1.737156,20.985825 -2.972696,7.84212 -3.667557,14.783986 -2.084584,20.825611 -0.713412,8.324379 -2.753822,16.546769 0.173728,25.150949 -2.892769,3.00312 -3.182301,5.40607 -0.868584,7.20886 h 8.859537 c 4.19101,-2.7856 -2.091287,-6.69969 -1.216018,-9.93222 2.278138,-8.41357 2.953175,-26.112118 2.953175,-26.112118 h 7.99096 c 0.503539,7.304381 1.583869,14.207868 2.432018,21.306208 0.556945,4.661 -2.399748,10.07781 0.347399,14.73813 z" /></svg>
