<?xml version="1.0" encoding="UTF-8" standalone="no"?>
<!-- Created with Inkscape (http://www.inkscape.org/) -->

<svg
   version="1.1"
   id="svg89213"
   width="512"
   height="512"
   viewBox="0 0 512 512"
   xml:space="preserve"
   xmlns="http://www.w3.org/2000/svg"
   xmlns:svg="http://www.w3.org/2000/svg"><defs
     id="defs89217"><clipPath
       clipPathUnits="userSpaceOnUse"
       id="clipPath3"><path
         style="display:none;fill-rule:evenodd;stroke-linejoin:round;paint-order:markers stroke fill"
         d="M 221.24219,8.0039063 C 195.64796,8.1355262 169.01202,12.230878 141.92187,20.847656 129.85339,24.711371 122.8675,37.291095 125.967,49.578052 c 3.09951,12.286958 15.21651,20.047787 27.67362,17.724682 107.10714,-20.185113 178.50642,35.972926 200.31641,103.898436 19.82541,61.74468 0.90158,133.26118 -86.06641,175.1543 l -2.0039,-16.45313 c -2.37884,-19.50801 -25.9119,-28.04596 -40.2461,-14.60156 l -94.45507,88.625 c -11.68332,10.96577 -9.54662,30.08173 4.26953,38.19727 l 113.36328,66.57422 c 17.13769,10.05897 38.37707,-3.87347 35.97656,-23.59961 l -2.7539,-22.59571 c 71.7624,-22.56881 121.99812,-59.16569 152,-103.44336 32.74744,-48.32964 40.55235,-104.77796 29.40429,-156.90625 C 441.14919,97.895772 344.79636,7.3684752 221.24219,8.0039063 Z"
         id="path3" /><path
         id="lpe_path-effect3"
         style="fill-rule:evenodd;stroke-linejoin:round;paint-order:markers stroke fill"
         class="powerclip"
         d="M 44.663863,15.000231 H 474.54235 V 505.00025 H 44.663863 Z M 221.24219,8.0039063 C 195.64796,8.1355262 169.01202,12.230878 141.92187,20.847656 129.85339,24.711371 122.8675,37.291095 125.967,49.578052 c 3.09951,12.286958 15.21651,20.047787 27.67362,17.724682 107.10714,-20.185113 178.50642,35.972926 200.31641,103.898436 19.82541,61.74468 0.90158,133.26118 -86.06641,175.1543 l -2.0039,-16.45313 c -2.37884,-19.50801 -25.9119,-28.04596 -40.2461,-14.60156 l -94.45507,88.625 c -11.68332,10.96577 -9.54662,30.08173 4.26953,38.19727 l 113.36328,66.57422 c 17.13769,10.05897 38.37707,-3.87347 35.97656,-23.59961 l -2.7539,-22.59571 c 71.7624,-22.56881 121.99812,-59.16569 152,-103.44336 32.74744,-48.32964 40.55235,-104.77796 29.40429,-156.90625 C 441.14919,97.895772 344.79636,7.3684752 221.24219,8.0039063 Z" /></clipPath></defs><path
     id="path31"
     style="fill:none;fill-rule:evenodd;stroke:#000000;stroke-width:24;stroke-linejoin:round;stroke-dasharray:none;paint-order:markers stroke fill"
     d="m 206.28954,82.223278 c -0.008,62.942102 -0.0163,125.884282 -0.0243,188.826382 m 106.90801,154.66966 c 48.48853,-0.0684 118.77021,1.08301 144.15424,-47.59538 L 457.54067,82.223268 M 313.17301,366.94511 c 48.14113,0.69344 108.51955,-0.0456 141.21509,-38.48002 l 3.15408,-11.17405 v 0 l -0.005,-0.43065 M 206.24542,141.19155 c 15.38171,46.30152 82.81769,47.21925 125.65581,50.02122 41.65654,-3.02549 111.59887,-3.67283 125.63997,-50.02199 M 309.00338,307.90605 c 49.58372,0.5066 121.99929,2.39417 148.11094,-45.24169 l 0.42745,-4.14762 -0.082,-1.79839 M 206.51848,196.57752 c 4.28641,41.15932 62.94164,46.97212 97.42522,52.1365 51.38629,2.59735 115.01842,2.33182 150.44466,-37.78254 l 3.154,-11.17406 -0.25436,-3.18096 m 0.25274,-114.353182 c -1e-5,27.737412 -56.25346,50.223022 -125.6456,50.223022 -69.39217,1e-5 -125.64565,-22.4856 -125.64566,-50.223022 -3e-5,-27.737429 56.25347,-50.22306 125.64566,-50.223047 69.39216,4e-6 125.64561,22.48563 125.64558,50.223047 z M 313.20251,320.66001 313.03015,438.89534 c -0.87051,8.57665 -5.99953,14.64403 -12.32639,19.64125 -28.97294,24.99542 -70.59283,28.95764 -108.2773,29.33056 -27.04472,0.89002 -54.04799,-2.74895 -80.16096,-9.19997 -21.910256,-5.40453 -45.193921,-18.13201 -50.558254,-40.37467 -0.0082,-0.0338 -0.01627,-0.0677 -0.02434,-0.10151 -0.07321,-39.2033 0.07795,-78.40585 0.228285,-117.60849 m -0.0045,58.80627 c 5.053209,22.32479 28.387197,35.10014 50.335639,40.51433 30.64364,7.70796 62.52915,10.90108 94.22198,9.08361 34.86162,-1.68318 71.91572,-9.0593 98.44588,-31.60671 4.7258,-4.91913 8.34626,-11.20161 8.294,-17.96085 m -0.002,-58.75917 c 0,27.73741 -56.25345,50.22303 -125.64561,50.22303 -69.39215,0 -125.645597,-22.48562 -125.645593,-50.22303 -1.8e-5,-27.73742 56.253433,-50.22304 125.645593,-50.22304 69.39215,0 125.6456,22.48563 125.64558,50.22304 z"
     clip-path="url(#clipPath3)" /><path
     id="path1"
     style="fill:none;fill-rule:evenodd;stroke:#000000;stroke-width:24;stroke-linejoin:round;stroke-dasharray:none;stroke-opacity:1;paint-order:markers stroke fill"
     d="m 221.36534,32.003204 c -23.12874,0.118941 -47.30797,3.8074 -72.16896,11.715133 234.6751,-44.22621581 339.38596,252.271953 98.70557,337.026303 l -5.83979,-47.94111 -94.4545,88.62408 113.36401,66.57372 -5.21921,-42.82635 C 569.56954,362.54524 444.66177,30.854805 221.36534,32.003204 Z" /></svg>
